<svg xmlns="http://www.w3.org/2000/svg" xmlns:xlink="http://www.w3.org/1999/xlink" width="48" zoomAndPan="magnify" viewBox="0 0 36 36.000001" height="48" preserveAspectRatio="xMidYMid meet" version="1.0"><defs><clipPath id="8c922be6e0"><path d="M 0.488281 18 L 35.511719 18 L 35.511719 35.027344 L 0.488281 35.027344 Z M 0.488281 18 " clip-rule="nonzero"/></clipPath></defs><path fill="#ff9a01" d="M 31.445312 31.714844 C 31.445312 31.863281 31.394531 31.988281 31.292969 32.09375 C 31.1875 32.195312 31.0625 32.246094 30.914062 32.246094 C 30.769531 32.246094 30.644531 32.195312 30.539062 32.09375 C 30.4375 31.988281 30.382812 31.863281 30.382812 31.714844 C 30.382812 31.570312 30.4375 31.445312 30.539062 31.339844 C 30.644531 31.238281 30.769531 31.183594 30.914062 31.183594 C 31.0625 31.183594 31.1875 31.238281 31.292969 31.339844 C 31.394531 31.445312 31.445312 31.570312 31.445312 31.714844 Z M 31.445312 31.714844 " fill-opacity="1" fill-rule="nonzero"/><path fill="#ff9a01" d="M 14.648438 15.410156 C 14.976562 15.367188 15.261719 15.082031 15.261719 14.714844 L 15.261719 13.894531 C 15.261719 13.773438 15.097656 13.527344 14.851562 13.40625 L 14.6875 13.324219 Z M 14.648438 15.410156 " fill-opacity="1" fill-rule="nonzero"/><path fill="#ff9a01" d="M 10.480469 19.25 L 17.671875 19.25 C 17.796875 19.25 20.003906 19.25 21.3125 17.738281 C 22.046875 16.878906 22.375 15.734375 22.167969 14.347656 C 21.636719 9.972656 17.714844 6.375 16.363281 5.476562 C 16.363281 5.476562 18.328125 3.148438 18.367188 3.105469 C 18.613281 2.492188 18.328125 1.796875 17.714844 1.554688 L 16.894531 1.226562 C 16.855469 0.53125 16.285156 0 15.589844 0 L 12.605469 0 C 11.910156 0 11.339844 0.53125 11.296875 1.226562 L 10.480469 1.554688 C 9.867188 1.796875 9.582031 2.492188 9.824219 3.105469 C 9.867188 3.148438 11.828125 5.476562 11.828125 5.476562 C 10.4375 6.417969 6.515625 10.011719 5.984375 14.386719 C 5.820312 15.777344 6.105469 16.921875 6.84375 17.777344 C 8.191406 19.25 10.355469 19.25 10.480469 19.25 Z M 16.285156 10.75 C 16.285156 11.035156 16.039062 11.238281 15.792969 11.238281 C 15.546875 11.238281 15.300781 10.996094 15.300781 10.75 L 15.300781 10.382812 C 15.300781 10.054688 15.058594 9.726562 14.6875 9.6875 L 14.6875 12.21875 L 15.382812 12.507812 C 15.914062 12.710938 16.285156 13.285156 16.324219 13.894531 L 16.324219 14.714844 C 16.324219 15.613281 15.589844 16.390625 14.6875 16.429688 L 14.6875 17.042969 C 14.6875 17.328125 14.445312 17.535156 14.199219 17.535156 C 13.953125 17.535156 13.707031 17.289062 13.707031 17.042969 L 13.707031 16.429688 L 13.667969 16.429688 C 12.726562 16.429688 11.949219 15.652344 11.949219 14.714844 L 11.949219 14.347656 C 11.949219 14.058594 12.195312 13.855469 12.441406 13.855469 C 12.726562 13.855469 12.933594 14.101562 12.933594 14.347656 L 12.933594 14.714844 C 12.933594 15.082031 13.257812 15.410156 13.625 15.410156 L 13.667969 15.410156 L 13.667969 12.914062 L 12.808594 12.589844 C 12.03125 12.261719 11.871094 11.566406 11.871094 11.199219 L 11.871094 10.382812 C 11.871094 9.441406 12.644531 8.664062 13.585938 8.664062 C 13.585938 8.664062 13.667969 8.664062 13.667969 8.664062 L 13.667969 8.09375 C 13.667969 7.804688 13.914062 7.601562 14.15625 7.601562 C 14.402344 7.601562 14.648438 7.847656 14.648438 8.09375 L 14.648438 8.664062 C 15.546875 8.707031 16.285156 9.441406 16.285156 10.382812 Z M 10.847656 2.535156 L 11.664062 2.207031 L 12.277344 3.351562 C 12.359375 3.515625 12.523438 3.636719 12.726562 3.636719 C 13.011719 3.636719 13.257812 3.390625 13.21875 3.105469 C 13.21875 3.023438 13.175781 2.941406 13.175781 2.859375 C 13.175781 2.859375 12.320312 1.265625 12.277344 1.226562 C 12.320312 1.105469 12.441406 1.023438 12.5625 1.023438 L 15.546875 1.023438 C 15.671875 1.023438 15.792969 1.105469 15.832031 1.226562 L 14.976562 2.820312 C 14.851562 3.066406 14.933594 3.390625 15.179688 3.515625 C 15.261719 3.554688 15.34375 3.554688 15.425781 3.554688 C 15.628906 3.554688 15.792969 3.433594 15.875 3.269531 L 16.488281 2.125 L 17.265625 2.453125 C 17.347656 2.492188 17.386719 2.535156 17.386719 2.617188 L 15.261719 5.066406 C 14.445312 4.988281 13.625 4.988281 12.808594 5.066406 L 10.683594 2.617188 C 10.726562 2.617188 10.765625 2.574219 10.847656 2.535156 Z M 10.847656 2.535156 " fill-opacity="1" fill-rule="nonzero"/><path fill="#ff9a01" d="M 12.890625 10.382812 L 12.890625 11.199219 C 12.890625 11.320312 13.011719 11.609375 13.300781 11.6875 L 13.625 11.8125 L 13.625 9.6875 L 13.585938 9.6875 C 13.21875 9.6875 12.890625 10.011719 12.890625 10.382812 Z M 12.890625 10.382812 " fill-opacity="1" fill-rule="nonzero"/><g clip-path="url(#8c922be6e0)"><path fill="#ff9a01" d="M 35.085938 34.046875 L 28.625 34.046875 L 28.625 22.765625 L 34.023438 22.765625 C 34.308594 22.765625 34.511719 22.519531 34.511719 22.273438 C 34.511719 22.03125 34.308594 21.742188 34.023438 21.742188 L 28.625 21.742188 L 28.625 20.109375 C 28.625 19.824219 28.382812 19.617188 28.136719 19.617188 C 27.890625 19.617188 27.644531 19.863281 27.644531 20.109375 L 27.644531 21.742188 L 24.742188 21.742188 C 24.457031 21.742188 24.253906 21.988281 24.253906 22.234375 L 24.253906 23.707031 L 23.3125 23.707031 L 20.328125 21.089844 C 20.246094 21.007812 20.125 20.96875 20.003906 20.96875 L 11.789062 20.96875 C 11.542969 20.96875 11.296875 21.128906 11.296875 21.417969 L 11.257812 21.742188 C 11.257812 22.480469 11.5 23.175781 11.949219 23.746094 L 11.378906 23.746094 L 9.335938 20.558594 C 8.679688 19.292969 7.25 18.269531 5.78125 18.761719 C 5.003906 19.003906 4.960938 19.046875 4.960938 19.046875 C 4.839844 19.085938 4.714844 19.210938 4.675781 19.332031 C 4.636719 19.453125 4.636719 19.617188 4.714844 19.742188 L 4.878906 20.027344 C 3.734375 19.414062 2.304688 19.332031 1.324219 20.273438 C 0.710938 20.886719 0.671875 20.925781 0.671875 20.925781 C 0.507812 21.128906 0.507812 21.457031 0.753906 21.660156 C 0.753906 21.660156 8.066406 26.730469 8.066406 26.730469 C 8.109375 26.769531 19.59375 31.023438 19.59375 31.023438 C 19.59375 31.023438 22.90625 31.0625 24.171875 31.0625 L 24.171875 31.878906 C 24.171875 32.164062 24.417969 32.371094 24.660156 32.371094 L 27.5625 32.371094 L 27.5625 34.535156 C 27.5625 34.824219 27.808594 35.027344 28.054688 35.027344 L 35.003906 35.027344 C 35.289062 35.027344 35.492188 34.78125 35.492188 34.535156 C 35.492188 34.292969 35.328125 34.046875 35.085938 34.046875 Z M 6.066406 19.742188 C 6.964844 19.453125 7.945312 20.191406 8.394531 21.089844 L 9.5 22.804688 L 6.515625 21.089844 L 5.820312 19.824219 Z M 24.171875 30 L 19.878906 30 L 8.597656 25.832031 L 1.855469 21.171875 L 2.019531 21.007812 C 2.714844 20.3125 3.898438 20.558594 4.714844 21.128906 L 10.804688 24.644531 C 10.886719 24.6875 10.96875 24.726562 11.050781 24.726562 L 18.367188 24.726562 C 18.652344 24.726562 18.859375 24.480469 18.859375 24.238281 C 18.859375 23.992188 18.613281 23.746094 18.367188 23.746094 L 13.707031 23.746094 C 12.933594 23.625 12.359375 22.765625 12.277344 21.988281 L 19.714844 21.988281 L 22.742188 24.605469 C 22.824219 24.6875 22.945312 24.726562 23.066406 24.726562 L 24.210938 24.726562 Z M 24.171875 30 " fill-opacity="1" fill-rule="nonzero"/></g></svg>