<svg xmlns="http://www.w3.org/2000/svg" xmlns:xlink="http://www.w3.org/1999/xlink" width="48" zoomAndPan="magnify" viewBox="0 0 36 36.000001" height="48" preserveAspectRatio="xMidYMid meet" version="1.0"><defs><clipPath id="b19b354fcc"><path d="M 0.488281 0 L 35.511719 0 L 35.511719 35.027344 L 0.488281 35.027344 Z M 0.488281 0 " clip-rule="nonzero"/></clipPath></defs><g clip-path="url(#b19b354fcc)"><path fill="#ff9a01" d="M 34.914062 33.9375 L 34.367188 33.9375 L 34.367188 6.082031 C 34.367188 5.484375 33.945312 4.753906 33.425781 4.449219 C 33.425781 4.449219 29.5 2.484375 29.492188 2.480469 C 28.9375 2.203125 28.214844 2.230469 27.734375 2.652344 L 25.90625 4.277344 C 25.457031 4.675781 25.09375 5.484375 25.09375 6.082031 L 25.09375 18.152344 C 25.09375 18.152344 25.917969 17.777344 26.183594 17.746094 L 26.183594 6.082031 C 26.183594 5.792969 26.414062 5.285156 26.632812 5.09375 L 28.09375 3.792969 L 28.09375 17.953125 L 29.183594 18.464844 L 29.183594 16.636719 L 33.277344 18.789062 L 33.277344 20.828125 L 31.929688 20.121094 C 32.085938 20.386719 32.183594 21.488281 32.183594 21.488281 L 33.277344 22.0625 L 33.277344 24.101562 L 32.183594 23.527344 L 32.183594 24.761719 L 33.277344 25.335938 L 33.277344 27.375 L 32.183594 26.800781 L 32.183594 28.035156 L 33.277344 28.609375 L 33.277344 30.648438 L 32.183594 30.074219 L 32.183594 31.308594 L 33.277344 31.882812 L 33.277344 33.9375 L 31.09375 33.9375 L 31.09375 21.898438 C 31.09375 21.296875 30.652344 20.601562 30.105469 20.347656 L 27.445312 19.121094 C 27.191406 19 26.863281 18.941406 26.535156 18.941406 C 26.15625 18.941406 25.773438 19.019531 25.492188 19.167969 L 23.332031 20.300781 C 22.796875 20.582031 22.363281 21.296875 22.363281 21.898438 L 22.363281 33.9375 L 21.273438 33.9375 L 21.273438 3.921875 C 21.273438 3.320312 20.851562 2.585938 20.332031 2.28125 C 20.332031 2.28125 16.941406 0.296875 16.941406 0.296875 C 16.414062 -0.0117188 15.644531 0.0664062 15.1875 0.472656 L 13.359375 2.105469 C 12.910156 2.503906 12.542969 3.320312 12.542969 3.921875 L 12.542969 33.9375 L 11.453125 33.9375 L 11.453125 9.0625 C 11.453125 8.457031 11.019531 7.742188 10.480469 7.464844 C 10.480469 7.464844 8.160156 6.269531 8.160156 6.269531 C 7.730469 6.046875 7.15625 6.054688 6.722656 6.265625 C 6.605469 6.324219 6.464844 6.402344 6.371094 6.496094 L 2.449219 9.984375 C 2 10.382812 1.632812 11.203125 1.632812 11.808594 L 1.632812 33.9375 L 1.085938 33.9375 C 0.785156 33.9375 0.542969 34.179688 0.542969 34.480469 C 0.542969 34.78125 0.785156 35.027344 1.085938 35.027344 L 34.914062 35.027344 C 35.214844 35.027344 35.457031 34.78125 35.457031 34.480469 C 35.457031 34.179688 35.214844 33.9375 34.914062 33.9375 Z M 6.816406 33.9375 L 5.007812 33.9375 L 6.816406 32.40625 Z M 6.816406 30.976562 L 3.324219 33.929688 L 3.332031 33.9375 L 2.722656 33.9375 L 2.722656 32.457031 L 6.816406 28.976562 Z M 6.816406 27.546875 L 2.722656 31.023438 L 2.722656 28.910156 L 6.816406 25.433594 Z M 6.816406 24 L 2.722656 27.476562 L 2.722656 25.363281 L 6.816406 21.886719 Z M 6.816406 20.453125 L 2.722656 23.933594 L 2.722656 21.816406 L 6.816406 18.339844 Z M 6.816406 16.910156 L 2.722656 20.386719 L 2.722656 18.273438 L 6.816406 14.792969 Z M 6.816406 13.363281 L 2.722656 16.839844 L 2.722656 14.726562 L 6.816406 11.25 Z M 6.816406 9.816406 L 2.722656 13.292969 L 2.722656 11.808594 C 2.722656 11.511719 2.957031 10.992188 3.175781 10.796875 L 6.816406 7.5625 Z M 20.183594 33.9375 L 16.910156 33.9375 L 16.910156 31.1875 L 20.183594 33.027344 Z M 20.183594 31.777344 L 16.910156 29.933594 L 16.910156 27.914062 L 20.183594 29.753906 Z M 20.183594 28.503906 L 16.910156 26.660156 L 16.910156 24.640625 L 20.183594 26.480469 Z M 20.183594 25.230469 L 16.910156 23.386719 L 16.910156 21.367188 L 20.183594 23.207031 Z M 20.183594 21.957031 L 16.910156 20.113281 L 16.910156 18.09375 L 20.183594 19.933594 Z M 20.183594 18.683594 L 16.910156 16.839844 L 16.910156 14.820312 L 20.183594 16.660156 Z M 20.183594 15.410156 L 16.910156 13.570312 L 16.910156 11.546875 L 20.183594 13.386719 Z M 20.183594 12.136719 L 16.910156 10.296875 L 16.910156 8.273438 L 20.183594 10.113281 Z M 20.183594 8.863281 L 16.910156 7.023438 L 16.910156 5 L 20.183594 6.84375 Z M 20.183594 5.589844 L 16.910156 3.75 L 16.910156 1.542969 L 19.78125 3.222656 C 19.964844 3.328125 20.183594 3.710938 20.183594 3.921875 Z M 25.910156 20.179688 L 25.910156 33.9375 L 23.457031 33.9375 L 23.457031 21.898438 C 23.457031 21.699219 23.664062 21.359375 23.839844 21.265625 M 30.003906 33.9375 L 27.003906 33.9375 L 27.003906 20.117188 L 29.644531 21.339844 C 29.804688 21.414062 30.003906 21.722656 30.003906 21.898438 Z M 33.277344 17.554688 L 29.183594 15.402344 L 29.183594 13.363281 L 33.277344 15.515625 Z M 33.277344 14.285156 L 29.183594 12.128906 L 29.183594 10.089844 L 33.277344 12.242188 Z M 33.277344 11.011719 L 29.183594 8.855469 L 29.183594 6.816406 L 33.277344 8.96875 Z M 33.277344 7.738281 L 29.183594 5.582031 L 29.183594 3.546875 L 32.894531 5.40625 C 33.074219 5.523438 33.277344 5.882812 33.277344 6.082031 Z M 33.277344 7.738281 " fill-opacity="1" fill-rule="nonzero"/></g></svg>