<svg xmlns="http://www.w3.org/2000/svg" xmlns:xlink="http://www.w3.org/1999/xlink" width="48" zoomAndPan="magnify" viewBox="0 0 36 36.000001" height="48" preserveAspectRatio="xMidYMid meet" version="1.0"><defs><clipPath id="ad4935e480"><path d="M 6.792969 0 L 29.414062 0 L 29.414062 35 L 6.792969 35 Z M 6.792969 0 " clip-rule="nonzero"/></clipPath><clipPath id="895f3f3fec"><path d="M 6.792969 5 L 29.414062 5 L 29.414062 35 L 6.792969 35 Z M 6.792969 5 " clip-rule="nonzero"/></clipPath></defs><g clip-path="url(#ad4935e480)"><path fill="#ffffff" d="M 29.1875 15.257812 C 29.179688 14.523438 29.070312 13.792969 29.035156 13.066406 C 29.027344 12.71875 28.867188 12.390625 28.847656 12.042969 C 28.714844 10.925781 28.070312 9.933594 27.316406 9.132812 C 26.8125 8.589844 26.210938 8.117188 25.492188 7.90625 C 25.472656 7.507812 25.429688 7.117188 25.386719 6.71875 C 25.328125 6.238281 25.414062 5.753906 25.285156 5.289062 C 25.488281 5.136719 25.652344 4.957031 25.804688 4.753906 C 26.203125 4.246094 26.199219 3.546875 26.117188 2.9375 C 26 2.414062 25.835938 1.84375 25.363281 1.523438 C 25.015625 1.210938 24.542969 1.132812 24.160156 0.890625 C 22.410156 0.1875 20.507812 0.09375 18.644531 0.0507812 C 17.628906 0.0078125 16.613281 0.125 15.605469 0.128906 C 15.03125 0.128906 14.480469 0.277344 13.90625 0.253906 C 12.617188 0.40625 11.296875 0.6875 10.214844 1.429688 C 9.359375 2.007812 9.019531 3.15625 9.234375 4.144531 C 9.300781 4.703125 9.640625 5.210938 10.121094 5.507812 C 10.324219 5.820312 10.242188 6.203125 10.257812 6.550781 C 10.238281 6.9375 10.289062 7.320312 10.214844 7.699219 C 9.933594 8.109375 9.476562 8.363281 9.097656 8.683594 C 8.371094 9.25 7.683594 9.902344 7.277344 10.746094 C 6.988281 11.304688 6.964844 11.949219 6.820312 12.550781 C 6.804688 13.058594 6.863281 13.566406 6.839844 14.074219 C 6.886719 18.5 7.203125 22.917969 7.226562 27.34375 C 7.285156 28.164062 7.152344 28.984375 7.246094 29.804688 C 7.285156 30.152344 7.21875 30.550781 7.472656 30.832031 C 7.90625 31.328125 8.4375 31.726562 8.867188 32.226562 C 9.714844 32.863281 10.597656 33.472656 11.621094 33.816406 C 15.011719 34.992188 18.730469 35.027344 22.199219 34.179688 C 23.425781 33.894531 24.585938 33.386719 25.695312 32.800781 C 26.40625 32.414062 27.023438 31.878906 27.589844 31.304688 C 27.953125 30.941406 28.199219 30.484375 28.394531 30.019531 C 28.496094 29.964844 28.671875 29.949219 28.671875 29.796875 C 28.765625 29.265625 28.738281 28.730469 28.808594 28.191406 C 28.925781 26.320312 29.085938 24.449219 29.101562 22.570312 C 29.121094 20.132812 29.203125 17.695312 29.1875 15.257812 Z M 29.1875 15.257812 " fill-opacity="1" fill-rule="nonzero"/></g><path fill="#ff9a01" d="M 15.597656 0.125 C 16.613281 0.117188 17.628906 0 18.644531 0.0429688 C 20.503906 0.09375 22.410156 0.1875 24.160156 0.886719 C 24.542969 1.125 25.015625 1.203125 25.363281 1.515625 C 25.828125 1.835938 25.996094 2.410156 26.117188 2.929688 C 26.199219 3.539062 26.203125 4.238281 25.804688 4.746094 C 25.652344 4.941406 25.488281 5.128906 25.285156 5.28125 C 24.863281 5.566406 24.398438 5.789062 23.90625 5.898438 C 21.765625 6.382812 19.566406 6.542969 17.382812 6.550781 C 17.011719 6.550781 16.648438 6.484375 16.28125 6.484375 C 14.960938 6.515625 13.632812 6.480469 12.332031 6.210938 C 11.578125 6.050781 10.796875 5.914062 10.128906 5.515625 C 9.648438 5.214844 9.308594 4.714844 9.242188 4.148438 C 9.019531 3.15625 9.359375 2.007812 10.214844 1.429688 C 11.296875 0.6875 12.617188 0.414062 13.902344 0.246094 C 14.472656 0.269531 15.03125 0.125 15.597656 0.125 Z M 25.523438 2.96875 C 25.335938 3.113281 25.175781 3.292969 24.980469 3.417969 C 24.441406 3.765625 23.804688 3.925781 23.195312 4.097656 C 22.339844 4.316406 21.460938 4.449219 20.597656 4.601562 C 19.703125 4.773438 18.789062 4.816406 17.882812 4.890625 C 16.191406 5.027344 14.488281 4.925781 12.820312 4.652344 C 11.738281 4.460938 10.636719 4.195312 9.714844 3.570312 C 9.605469 3.453125 9.367188 3.480469 9.410156 3.679688 C 9.570312 3.976562 9.867188 4.15625 10.15625 4.300781 C 10.949219 4.6875 11.816406 4.90625 12.683594 5.058594 C 14.3125 5.324219 15.984375 5.425781 17.628906 5.28125 C 18.695312 5.210938 19.761719 5.113281 20.820312 4.917969 C 22.332031 4.6875 23.914062 4.484375 25.253906 3.691406 C 25.507812 3.53125 25.871094 3.265625 25.746094 2.921875 C 25.691406 2.9375 25.582031 2.960938 25.523438 2.96875 Z M 25.109375 20.699219 C 25.152344 20.84375 25.1875 21.054688 25.03125 21.148438 C 24.730469 21.394531 24.304688 21.476562 24.078125 21.800781 C 23.96875 21.988281 24.21875 22.136719 24.382812 22.046875 C 24.878906 21.910156 25.515625 21.734375 25.660156 21.175781 C 25.769531 20.539062 25.289062 20.023438 25.058594 19.480469 C 24.949219 19.246094 25.074219 19.007812 25.132812 18.78125 C 25.226562 18.828125 25.320312 18.871094 25.414062 18.914062 C 25.523438 18.703125 25.507812 18.382812 25.226562 18.339844 C 24.789062 18.296875 24.566406 18.796875 24.515625 19.152344 C 24.425781 19.75 24.933594 20.175781 25.109375 20.699219 Z M 21.0625 21.148438 C 20.71875 20.742188 20.523438 20.207031 20.058594 19.914062 C 19.835938 19.753906 19.488281 19.894531 19.449219 20.167969 C 19.398438 20.5625 19.480469 20.960938 19.507812 21.351562 C 19.566406 21.742188 19.507812 22.15625 19.660156 22.535156 C 19.792969 22.613281 19.921875 22.546875 19.945312 22.402344 C 20.03125 21.816406 19.949219 21.222656 19.957031 20.625 C 20.226562 20.972656 20.464844 21.34375 20.742188 21.683594 C 20.84375 21.800781 20.980469 21.945312 21.15625 21.910156 C 21.394531 21.859375 21.445312 21.582031 21.480469 21.378906 C 21.578125 20.726562 21.578125 20.058594 21.519531 19.40625 C 21.488281 19.132812 21.488281 18.832031 21.34375 18.585938 C 21.222656 18.644531 21.140625 18.761719 21.125 18.90625 C 21.054688 19.644531 21.164062 20.402344 21.0625 21.148438 Z M 22.390625 20.65625 C 22.433594 20.980469 22.613281 21.328125 22.953125 21.429688 C 23.585938 21.621094 24.269531 20.878906 24 20.277344 C 23.832031 19.957031 23.410156 20.066406 23.152344 20.207031 C 22.960938 20.464844 23.382812 20.515625 23.550781 20.566406 C 23.476562 20.691406 23.433594 20.871094 23.273438 20.910156 C 23.0625 21.011719 22.953125 20.75 22.925781 20.589844 C 22.867188 20.132812 22.984375 19.644531 23.222656 19.253906 C 23.570312 19.160156 23.949219 19.144531 24.28125 18.992188 C 24.136719 18.710938 23.804688 18.695312 23.527344 18.710938 C 23.246094 18.730469 22.925781 18.828125 22.765625 19.082031 C 22.46875 19.53125 22.316406 20.105469 22.390625 20.65625 Z M 12.675781 22.613281 C 12.710938 22.789062 12.574219 22.976562 12.390625 22.96875 C 12.066406 22.96875 11.714844 22.910156 11.457031 22.6875 C 11.375 22.773438 11.246094 22.867188 11.316406 23.003906 C 11.410156 23.171875 11.59375 23.253906 11.761719 23.332031 C 12.066406 23.457031 12.425781 23.558594 12.746094 23.398438 C 13.082031 23.222656 13.226562 22.800781 13.132812 22.445312 C 13 21.800781 12.535156 21.308594 12.261719 20.726562 C 12.117188 20.429688 12.117188 19.980469 12.433594 19.804688 C 12.652344 19.660156 12.898438 19.8125 13.117188 19.855469 C 13.09375 19.660156 13.058594 19.429688 12.839844 19.371094 C 12.253906 19.1875 11.660156 19.746094 11.6875 20.335938 C 11.6875 21.222656 12.578125 21.757812 12.675781 22.613281 Z M 18.710938 22.105469 C 18.730469 22.316406 18.804688 22.519531 18.898438 22.707031 C 19.117188 22.476562 19.058594 22.140625 19.074219 21.851562 C 19.074219 21.074219 19.1875 20.277344 19.015625 19.507812 C 18.957031 19.304688 18.675781 19.386719 18.660156 19.574219 C 18.507812 20.414062 18.625 21.273438 18.710938 22.105469 Z M 16.847656 22.089844 C 16.6875 21.4375 16.5625 20.777344 16.382812 20.132812 C 16.324219 19.957031 16.25 19.726562 16.035156 19.71875 C 15.824219 19.792969 15.882812 20.03125 15.910156 20.199219 C 16.046875 20.921875 16.191406 21.640625 16.359375 22.359375 C 16.417969 22.546875 16.476562 22.816406 16.714844 22.851562 C 16.96875 22.898438 17.121094 22.644531 17.214844 22.445312 C 17.449219 21.902344 17.601562 21.328125 17.761719 20.765625 C 17.855469 20.378906 18 19.996094 17.949219 19.589844 C 17.753906 19.523438 17.695312 19.769531 17.621094 19.902344 C 17.324219 20.617188 17.152344 21.378906 16.847656 22.089844 Z M 14.523438 19.851562 C 14.574219 19.726562 14.664062 19.542969 14.820312 19.652344 C 15.039062 19.804688 15.25 19.996094 15.324219 20.257812 C 15.476562 20.777344 15.546875 21.316406 15.597656 21.859375 C 15.640625 22.324219 15.734375 22.800781 15.597656 23.257812 C 15.402344 23.003906 15.328125 22.6875 15.25 22.382812 C 14.921875 22.433594 14.589844 22.445312 14.257812 22.441406 C 14.15625 22.707031 14.109375 23.019531 13.914062 23.238281 C 13.878906 23.230469 13.800781 23.214844 13.761719 23.207031 C 13.703125 22.832031 13.871094 22.476562 13.929688 22.105469 C 14.046875 21.328125 14.242188 20.574219 14.523438 19.851562 Z M 14.828125 20.480469 C 14.675781 20.972656 14.5625 21.476562 14.414062 21.96875 C 14.664062 21.960938 14.910156 21.953125 15.15625 21.953125 C 15.019531 21.46875 14.921875 20.972656 14.828125 20.480469 Z M 10.140625 24.171875 C 10.078125 23.558594 9.976562 22.949219 9.953125 22.332031 C 9.75 22.925781 9.707031 23.664062 10.140625 24.171875 Z M 26.160156 22.570312 C 26.546875 22.875 26.910156 23.253906 27.046875 23.746094 C 27.183594 24.273438 27.199219 24.847656 27.039062 25.371094 C 26.910156 25.8125 26.617188 26.183594 26.304688 26.523438 C 26.742188 26.597656 27.226562 26.734375 27.4375 27.164062 C 27.777344 27.792969 27.445312 28.554688 26.945312 28.992188 C 27.125 29.296875 27.242188 29.664062 27.117188 30.019531 C 26.921875 30.578125 26.457031 31.023438 25.9375 31.277344 C 25.3125 31.558594 24.636719 31.710938 23.957031 31.691406 C 23.6875 31.886719 23.507812 32.191406 23.195312 32.335938 C 22.425781 32.734375 21.511719 32.859375 20.664062 32.667969 C 20.539062 32.820312 20.414062 32.988281 20.234375 33.089844 C 19.195312 33.691406 17.964844 33.929688 16.78125 33.808594 C 16.085938 33.734375 15.359375 33.277344 15.292969 32.515625 C 14.871094 32.457031 14.421875 32.40625 14.066406 32.160156 C 13.804688 31.988281 13.648438 31.71875 13.496094 31.457031 C 13.125 31.472656 12.753906 31.507812 12.390625 31.4375 C 11.96875 31.339844 11.609375 31.101562 11.273438 30.847656 C 11.484375 30.527344 11.621094 30.160156 11.695312 29.78125 C 11.824219 29.195312 11.535156 28.578125 11.101562 28.191406 C 10.738281 27.882812 10.199219 27.765625 9.757812 27.9375 C 9.757812 27.984375 9.765625 28.078125 9.773438 28.128906 C 10.097656 28.238281 10.484375 28.222656 10.765625 28.453125 C 11.171875 28.796875 11.375 29.359375 11.28125 29.882812 C 11.222656 30.238281 11.121094 30.585938 11.070312 30.941406 C 10.722656 30.980469 10.375 31.066406 10.027344 31.007812 C 9.308594 30.90625 8.632812 30.382812 8.472656 29.660156 C 8.277344 29.035156 8.640625 28.292969 9.273438 28.097656 C 9.03125 27.480469 8.921875 26.800781 9.074219 26.148438 C 9.242188 25.480469 9.664062 24.890625 10.171875 24.433594 C 10.242188 24.941406 10.113281 25.464844 10.199219 25.964844 C 10.433594 26.132812 10.722656 26.21875 11 26.300781 C 11.703125 26.488281 12.40625 26.648438 13.109375 26.828125 C 12.957031 27.074219 12.8125 27.34375 12.585938 27.53125 C 12.398438 27.691406 12.21875 27.859375 12.078125 28.0625 C 12.769531 28.078125 13.144531 27.417969 13.445312 26.894531 C 13.699219 26.945312 13.957031 26.996094 14.21875 27.039062 C 14.410156 27.539062 14.667969 28.222656 15.308594 28.230469 C 15.074219 27.859375 14.835938 27.496094 14.664062 27.105469 C 15.78125 27.25 16.910156 27.25 18.035156 27.183594 C 18.035156 27.234375 18.035156 27.328125 18.035156 27.378906 C 17.78125 27.65625 17.519531 27.9375 17.410156 28.300781 C 17.265625 28.75 17.410156 29.265625 17.761719 29.585938 C 17.796875 29.195312 17.710938 28.796875 17.796875 28.417969 C 17.992188 27.902344 18.40625 27.386719 18.992188 27.328125 C 18.992188 27.277344 18.984375 27.167969 18.980469 27.117188 C 19.195312 27.097656 19.421875 27.066406 19.640625 27.039062 C 19.792969 27.335938 19.988281 27.621094 20.261719 27.824219 C 20.234375 27.53125 20.167969 27.25 20.074219 26.972656 C 20.554688 26.902344 21.03125 26.8125 21.503906 26.710938 C 21.324219 27.175781 21.140625 27.683594 21.273438 28.1875 C 21.367188 28.542969 21.496094 28.960938 21.867188 29.113281 C 21.800781 28.6875 21.640625 28.28125 21.613281 27.851562 C 21.589844 27.402344 21.785156 26.996094 21.960938 26.597656 C 22.714844 26.378906 23.449219 26.089844 24.171875 25.804688 C 24.550781 26.03125 24.949219 26.242188 25.40625 26.234375 C 25.195312 26.007812 24.957031 25.820312 24.710938 25.652344 C 25.074219 25.515625 25.429688 25.371094 25.761719 25.175781 C 26.007812 25.03125 26.03125 24.71875 26.066406 24.472656 C 26.125 23.832031 26.125 23.203125 26.160156 22.570312 Z M 25.234375 27.257812 C 25 27.539062 25.050781 27.960938 25.238281 28.25 C 25.457031 28.585938 25.726562 28.925781 26.148438 29 C 26.058594 28.5625 25.675781 28.273438 25.558594 27.84375 C 25.472656 27.632812 25.632812 27.402344 25.542969 27.199219 C 25.4375 27.167969 25.304688 27.164062 25.234375 27.257812 Z M 18.6875 30.28125 C 18.710938 30.28125 18.761719 30.28125 18.789062 30.28125 C 19.085938 29.652344 19.335938 28.890625 20.015625 28.5625 C 20.285156 28.394531 20.582031 28.542969 20.851562 28.605469 C 20.851562 28.265625 20.457031 28.085938 20.160156 28.179688 C 19.253906 28.417969 18.601562 29.355469 18.6875 30.28125 Z M 23.449219 28.695312 C 23.035156 29.257812 23.085938 30.070312 23.449219 30.652344 C 23.609375 30.929688 23.90625 31.066406 24.210938 31.074219 C 23.984375 30.789062 23.679688 30.542969 23.585938 30.179688 C 23.457031 29.746094 23.449219 29.203125 23.78125 28.851562 C 23.957031 28.644531 24.238281 28.605469 24.476562 28.527344 C 24.574219 28.511719 24.625 28.453125 24.636719 28.351562 C 24.238281 28.121094 23.710938 28.332031 23.449219 28.695312 Z M 15.171875 28.597656 C 14.421875 28.984375 13.804688 29.660156 13.558594 30.472656 C 13.496094 30.71875 13.414062 31.136719 13.769531 31.175781 C 13.75 30.015625 14.691406 29.136719 15.621094 28.605469 C 15.476562 28.570312 15.308594 28.503906 15.171875 28.597656 Z M 16.222656 31.175781 C 16.027344 31.320312 15.832031 31.472656 15.699219 31.683594 C 15.613281 31.785156 15.613281 32.089844 15.808594 31.972656 C 16.367188 31.441406 17.042969 31.015625 17.796875 30.839844 C 18.585938 30.6875 19.414062 30.738281 20.191406 30.972656 C 19.972656 30.476562 19.355469 30.425781 18.890625 30.375 C 17.933594 30.253906 16.984375 30.617188 16.222656 31.175781 Z M 16.222656 31.175781 " fill-opacity="1" fill-rule="nonzero"/><path fill="#a2742a" d="M 25.523438 2.96875 C 25.574219 2.960938 25.683594 2.9375 25.742188 2.929688 C 25.863281 3.273438 25.507812 3.539062 25.246094 3.699219 C 23.90625 4.5 22.332031 4.695312 20.816406 4.925781 C 19.761719 5.121094 18.6875 5.214844 17.621094 5.289062 C 15.96875 5.433594 14.308594 5.332031 12.675781 5.0625 C 11.804688 4.910156 10.941406 4.703125 10.148438 4.308594 C 9.859375 4.15625 9.5625 3.976562 9.402344 3.683594 C 9.359375 3.488281 9.597656 3.460938 9.707031 3.578125 C 10.628906 4.199219 11.730469 4.46875 12.8125 4.65625 C 14.480469 4.933594 16.1875 5.035156 17.875 4.898438 C 18.78125 4.824219 19.695312 4.78125 20.589844 4.605469 C 21.460938 4.453125 22.332031 4.324219 23.1875 4.105469 C 23.796875 3.933594 24.433594 3.78125 24.972656 3.425781 C 25.175781 3.292969 25.335938 3.113281 25.523438 2.96875 Z M 25.40625 26.234375 C 25.195312 26.007812 24.957031 25.820312 24.710938 25.652344 C 24.535156 25.710938 24.355469 25.753906 24.179688 25.8125 C 24.558594 26.03125 24.957031 26.242188 25.40625 26.234375 Z M 21.265625 28.1875 C 21.359375 28.542969 21.488281 28.960938 21.859375 29.113281 C 21.792969 28.6875 21.632812 28.28125 21.605469 27.851562 C 21.582031 27.402344 21.78125 26.996094 21.953125 26.597656 C 21.800781 26.640625 21.640625 26.675781 21.488281 26.710938 C 21.324219 27.175781 21.132812 27.683594 21.265625 28.1875 Z M 12.578125 27.53125 C 12.390625 27.691406 12.210938 27.859375 12.070312 28.0625 C 12.761719 28.078125 13.140625 27.417969 13.4375 26.894531 C 13.328125 26.871094 13.21875 26.851562 13.109375 26.820312 C 12.957031 27.074219 12.8125 27.335938 12.578125 27.53125 Z M 20.253906 27.824219 C 20.226562 27.53125 20.160156 27.25 20.066406 26.972656 C 19.921875 26.996094 19.769531 27.015625 19.625 27.039062 C 19.777344 27.34375 19.972656 27.625 20.253906 27.824219 Z M 15.292969 28.238281 C 15.0625 27.867188 14.820312 27.503906 14.648438 27.113281 C 14.503906 27.089844 14.359375 27.066406 14.210938 27.046875 C 14.394531 27.546875 14.65625 28.222656 15.292969 28.238281 Z M 18.019531 27.386719 C 17.765625 27.664062 17.507812 27.945312 17.398438 28.308594 C 17.253906 28.757812 17.398438 29.273438 17.746094 29.59375 C 17.78125 29.203125 17.695312 28.800781 17.78125 28.425781 C 17.976562 27.910156 18.390625 27.394531 18.980469 27.335938 C 18.980469 27.285156 18.972656 27.175781 18.964844 27.125 C 18.652344 27.15625 18.339844 27.175781 18.019531 27.199219 C 18.019531 27.242188 18.019531 27.335938 18.019531 27.386719 Z M 25.238281 28.257812 C 25.457031 28.59375 25.726562 28.933594 26.148438 29.003906 C 26.058594 28.570312 25.675781 28.28125 25.558594 27.851562 C 25.472656 27.640625 25.632812 27.410156 25.542969 27.207031 C 25.441406 27.167969 25.3125 27.164062 25.238281 27.257812 C 25 27.539062 25.050781 27.96875 25.238281 28.257812 Z M 9.78125 28.128906 C 10.105469 28.238281 10.492188 28.222656 10.773438 28.453125 C 11.179688 28.796875 11.382812 29.359375 11.289062 29.882812 C 11.230469 30.238281 11.128906 30.585938 11.078125 30.941406 C 11.128906 30.921875 11.238281 30.878906 11.289062 30.863281 C 11.5 30.542969 11.636719 30.171875 11.710938 29.796875 C 11.839844 29.207031 11.550781 28.59375 11.113281 28.207031 C 10.75 27.894531 10.214844 27.78125 9.773438 27.953125 C 9.765625 27.988281 9.773438 28.085938 9.78125 28.128906 Z M 18.789062 30.28125 C 19.085938 29.652344 19.335938 28.890625 20.015625 28.5625 C 20.285156 28.394531 20.582031 28.542969 20.851562 28.605469 C 20.851562 28.265625 20.457031 28.085938 20.160156 28.179688 C 19.253906 28.410156 18.601562 29.347656 18.6875 30.28125 C 18.71875 30.28125 18.769531 30.28125 18.789062 30.28125 Z M 23.449219 30.652344 C 23.609375 30.929688 23.90625 31.066406 24.210938 31.074219 C 23.984375 30.789062 23.679688 30.542969 23.585938 30.179688 C 23.457031 29.746094 23.449219 29.203125 23.78125 28.851562 C 23.957031 28.644531 24.238281 28.605469 24.476562 28.527344 C 24.574219 28.511719 24.625 28.453125 24.636719 28.351562 C 24.230469 28.113281 23.703125 28.332031 23.441406 28.6875 C 23.035156 29.257812 23.09375 30.070312 23.449219 30.652344 Z M 13.558594 30.472656 C 13.496094 30.71875 13.414062 31.136719 13.769531 31.175781 C 13.75 30.015625 14.691406 29.136719 15.621094 28.605469 C 15.46875 28.5625 15.308594 28.503906 15.171875 28.597656 C 14.421875 28.984375 13.800781 29.660156 13.558594 30.472656 Z M 15.699219 31.683594 C 15.613281 31.785156 15.613281 32.089844 15.808594 31.972656 C 16.367188 31.441406 17.042969 31.015625 17.796875 30.839844 C 18.585938 30.6875 19.414062 30.738281 20.191406 30.972656 C 19.972656 30.476562 19.355469 30.425781 18.890625 30.375 C 17.933594 30.253906 16.984375 30.617188 16.222656 31.175781 C 16.027344 31.328125 15.832031 31.480469 15.699219 31.683594 Z M 15.699219 31.683594 " fill-opacity="1" fill-rule="nonzero"/><g clip-path="url(#895f3f3fec)"><path fill="#d9d9d9" d="M 23.898438 5.898438 C 24.390625 5.789062 24.855469 5.566406 25.277344 5.28125 C 25.398438 5.746094 25.320312 6.230469 25.378906 6.710938 C 25.429688 7.109375 25.464844 7.5 25.488281 7.902344 C 26.203125 8.109375 26.808594 8.589844 27.308594 9.125 C 28.070312 9.933594 28.707031 10.917969 28.839844 12.035156 C 28.859375 12.382812 29.019531 12.710938 29.027344 13.058594 C 29.0625 13.792969 29.171875 14.515625 29.179688 15.25 C 29.195312 17.6875 29.105469 20.125 29.085938 22.5625 C 29.078125 24.441406 28.910156 26.3125 28.796875 28.1875 C 28.722656 28.714844 28.75 29.257812 28.65625 29.789062 C 28.65625 29.941406 28.484375 29.957031 28.382812 30.015625 C 28.183594 30.476562 27.9375 30.933594 27.574219 31.296875 C 27.011719 31.871094 26.394531 32.40625 25.683594 32.792969 C 24.574219 33.378906 23.410156 33.886719 22.1875 34.171875 C 18.71875 35.011719 14.996094 34.984375 11.609375 33.808594 C 10.59375 33.472656 9.699219 32.859375 8.851562 32.21875 C 8.429688 31.71875 7.894531 31.320312 7.457031 30.828125 C 7.203125 30.542969 7.277344 30.144531 7.234375 29.796875 C 7.140625 28.976562 7.269531 28.15625 7.210938 27.335938 C 7.191406 22.910156 6.871094 18.492188 6.828125 14.066406 C 6.855469 13.558594 6.796875 13.050781 6.804688 12.542969 C 6.949219 11.941406 6.964844 11.296875 7.261719 10.738281 C 7.667969 9.894531 8.351562 9.234375 9.082031 8.675781 C 9.460938 8.359375 9.917969 8.105469 10.199219 7.691406 C 10.273438 7.3125 10.214844 6.929688 10.242188 6.542969 C 10.230469 6.195312 10.300781 5.8125 10.105469 5.5 C 10.773438 5.90625 11.558594 6.035156 12.3125 6.195312 C 13.609375 6.464844 14.9375 6.5 16.257812 6.472656 C 16.628906 6.472656 16.992188 6.535156 17.359375 6.535156 C 19.566406 6.542969 21.765625 6.390625 23.898438 5.898438 Z M 23.28125 6.644531 C 23.289062 6.761719 23.347656 6.835938 23.457031 6.863281 C 23.671875 6.785156 23.863281 6.636719 24.050781 6.5 C 23.796875 6.371094 23.425781 6.371094 23.28125 6.644531 Z M 10.898438 6.515625 C 10.714844 6.726562 10.773438 7.058594 10.773438 7.328125 C 10.796875 7.515625 10.824219 7.878906 11.101562 7.820312 C 11.324219 7.539062 11.265625 7.140625 11.257812 6.796875 C 11.28125 6.609375 11.09375 6.378906 10.898438 6.515625 Z M 21.023438 6.855469 C 20.566406 6.914062 20.109375 6.941406 19.652344 6.980469 C 19.492188 7.007812 19.285156 6.992188 19.1875 7.160156 C 19.144531 7.285156 19.269531 7.398438 19.390625 7.386719 C 20.242188 7.421875 21.089844 7.277344 21.925781 7.109375 C 22.1875 7.050781 22.492188 7.007812 22.648438 6.769531 C 22.105469 6.683594 21.5625 6.804688 21.023438 6.855469 Z M 9.960938 9.207031 C 9.386719 9.519531 9.019531 10.097656 8.734375 10.671875 C 8.261719 11.710938 8.125 12.863281 8.089844 13.988281 C 8.054688 15.003906 7.988281 16.019531 8.058594 17.035156 C 8.054688 17.179688 8.160156 17.359375 8.320312 17.257812 C 8.394531 17.050781 8.378906 16.824219 8.386719 16.605469 C 8.371094 15.554688 8.414062 14.496094 8.488281 13.445312 C 8.613281 12.304688 8.851562 11.136719 9.519531 10.179688 C 9.699219 9.902344 9.953125 9.683594 10.128906 9.410156 C 10.222656 9.292969 10.097656 9.132812 9.960938 9.207031 Z M 25.160156 9.851562 C 25.285156 10.035156 25.449219 10.179688 25.589844 10.34375 C 25.996094 10.816406 26.253906 11.382812 26.539062 11.933594 C 26.625 12.117188 26.761719 12.253906 26.921875 12.371094 C 26.921875 11.914062 26.707031 11.5 26.53125 11.09375 C 26.300781 10.578125 25.980469 10.078125 25.515625 9.75 C 25.398438 9.640625 25.132812 9.648438 25.160156 9.851562 Z M 27.472656 15.851562 C 27.605469 17.398438 27.664062 18.949219 27.75 20.496094 C 27.800781 21.394531 27.75 22.300781 27.75 23.203125 C 27.75 24.433594 27.605469 25.660156 27.65625 26.894531 C 27.707031 26.859375 27.808594 26.777344 27.851562 26.742188 C 27.988281 26.371094 27.96875 25.957031 27.988281 25.566406 C 28.089844 23.484375 28.15625 21.394531 28.011719 19.3125 C 27.960938 18.144531 27.894531 16.96875 27.785156 15.800781 C 27.726562 15.257812 27.722656 14.699219 27.503906 14.191406 C 27.351562 14.734375 27.453125 15.300781 27.472656 15.851562 Z M 24.128906 15.425781 C 23.375 15.582031 22.648438 15.882812 21.894531 16.054688 C 20.394531 16.460938 18.839844 16.597656 17.289062 16.605469 C 16.1875 16.628906 15.089844 16.648438 13.988281 16.570312 C 12.992188 16.496094 11.976562 16.453125 11.011719 16.148438 C 10.960938 16.164062 10.851562 16.199219 10.796875 16.222656 C 10.605469 16.199219 10.351562 16.035156 10.214844 16.230469 C 10.027344 16.585938 10.035156 17.003906 9.976562 17.390625 C 9.832031 19.03125 9.824219 20.683594 9.945312 22.332031 C 9.734375 22.925781 9.699219 23.664062 10.136719 24.171875 C 10.140625 24.261719 10.15625 24.339844 10.164062 24.425781 C 9.65625 24.882812 9.234375 25.472656 9.070312 26.140625 C 8.917969 26.792969 9.023438 27.472656 9.265625 28.089844 C 8.640625 28.292969 8.269531 29.027344 8.464844 29.652344 C 8.625 30.375 9.300781 30.898438 10.019531 31 C 10.367188 31.058594 10.722656 30.972656 11.0625 30.933594 C 11.113281 30.914062 11.222656 30.871094 11.273438 30.855469 C 11.609375 31.109375 11.96875 31.347656 12.390625 31.441406 C 12.753906 31.515625 13.125 31.480469 13.496094 31.464844 C 13.648438 31.726562 13.804688 31.996094 14.066406 32.167969 C 14.429688 32.414062 14.871094 32.464844 15.292969 32.523438 C 15.351562 33.277344 16.085938 33.734375 16.78125 33.816406 C 17.96875 33.9375 19.195312 33.699219 20.234375 33.097656 C 20.414062 33.003906 20.539062 32.835938 20.664062 32.675781 C 21.511719 32.863281 22.425781 32.742188 23.195312 32.34375 C 23.507812 32.199219 23.6875 31.894531 23.957031 31.695312 C 24.636719 31.71875 25.320312 31.566406 25.9375 31.285156 C 26.457031 31.023438 26.914062 30.585938 27.117188 30.027344 C 27.242188 29.671875 27.125 29.304688 26.945312 29 C 27.445312 28.5625 27.773438 27.792969 27.4375 27.167969 C 27.226562 26.742188 26.734375 26.605469 26.304688 26.53125 C 26.609375 26.191406 26.902344 25.820312 27.039062 25.378906 C 27.191406 24.847656 27.183594 24.28125 27.046875 23.753906 C 26.910156 23.265625 26.546875 22.882812 26.160156 22.578125 C 26.175781 21.324219 26.191406 20.074219 26.183594 18.820312 C 26.140625 17.824219 26.03125 16.832031 25.863281 15.851562 C 25.804688 15.539062 25.71875 15.15625 25.390625 15.023438 C 24.929688 14.960938 24.558594 15.316406 24.128906 15.425781 Z M 7.761719 19.492188 C 7.761719 21.945312 7.804688 24.390625 7.851562 26.84375 C 7.863281 27.140625 7.804688 27.472656 7.988281 27.734375 C 8.066406 27.621094 8.167969 27.503906 8.167969 27.351562 C 8.210938 26.871094 8.175781 26.386719 8.175781 25.90625 C 8.15625 23.621094 8.191406 21.34375 8.066406 19.058594 C 8.054688 18.8125 8.003906 18.574219 7.945312 18.339844 C 7.726562 18.679688 7.769531 19.101562 7.761719 19.492188 Z M 7.878906 30.304688 C 7.996094 30.5 8.183594 30.628906 8.363281 30.777344 C 8.71875 31.035156 9.0625 31.347656 9.503906 31.429688 C 9.15625 30.980469 8.667969 30.675781 8.257812 30.289062 C 8.15625 30.167969 7.878906 30.035156 7.878906 30.304688 Z M 10.941406 32.160156 C 10.953125 32.355469 11.144531 32.429688 11.289062 32.515625 C 12.160156 32.988281 13.089844 33.320312 14.023438 33.632812 C 14.300781 33.726562 14.582031 33.773438 14.871094 33.765625 C 13.851562 33.15625 12.683594 32.859375 11.609375 32.351562 C 11.398438 32.277344 11.171875 32.097656 10.941406 32.160156 Z M 10.941406 32.160156 " fill-opacity="1" fill-rule="nonzero"/></g><path fill="#ffffff" d="M 23.28125 6.644531 C 23.425781 6.371094 23.804688 6.371094 24.042969 6.507812 C 23.855469 6.644531 23.671875 6.789062 23.449219 6.871094 C 23.339844 6.835938 23.28125 6.761719 23.28125 6.644531 Z M 10.773438 7.328125 C 10.796875 7.515625 10.824219 7.878906 11.101562 7.820312 C 11.324219 7.539062 11.265625 7.140625 11.257812 6.796875 C 11.273438 6.609375 11.085938 6.378906 10.890625 6.515625 C 10.714844 6.726562 10.773438 7.058594 10.773438 7.328125 Z M 19.652344 6.980469 C 19.492188 7.007812 19.285156 6.992188 19.1875 7.160156 C 19.144531 7.285156 19.269531 7.398438 19.390625 7.386719 C 20.242188 7.421875 21.089844 7.277344 21.925781 7.109375 C 22.1875 7.050781 22.492188 7.007812 22.648438 6.769531 C 22.105469 6.6875 21.5625 6.8125 21.023438 6.863281 C 20.566406 6.914062 20.109375 6.941406 19.652344 6.980469 Z M 8.734375 10.671875 C 8.261719 11.710938 8.125 12.863281 8.089844 13.988281 C 8.054688 15.003906 7.988281 16.019531 8.058594 17.035156 C 8.054688 17.179688 8.160156 17.359375 8.320312 17.257812 C 8.394531 17.050781 8.378906 16.824219 8.386719 16.605469 C 8.371094 15.554688 8.414062 14.496094 8.488281 13.445312 C 8.613281 12.304688 8.851562 11.136719 9.519531 10.179688 C 9.699219 9.902344 9.953125 9.683594 10.128906 9.410156 C 10.230469 9.285156 10.105469 9.125 9.96875 9.199219 C 9.386719 9.519531 9.019531 10.105469 8.734375 10.671875 Z M 25.589844 10.34375 C 25.996094 10.816406 26.253906 11.382812 26.539062 11.933594 C 26.625 12.117188 26.761719 12.253906 26.921875 12.371094 C 26.921875 11.914062 26.707031 11.5 26.53125 11.09375 C 26.300781 10.578125 25.980469 10.078125 25.515625 9.75 C 25.398438 9.648438 25.132812 9.648438 25.160156 9.851562 C 25.285156 10.035156 25.449219 10.179688 25.589844 10.34375 Z M 27.75 20.503906 C 27.800781 21.402344 27.75 22.308594 27.75 23.207031 C 27.75 24.441406 27.605469 25.667969 27.65625 26.902344 C 27.707031 26.863281 27.808594 26.785156 27.851562 26.75 C 27.988281 26.378906 27.96875 25.964844 27.988281 25.574219 C 28.089844 23.492188 28.15625 21.402344 28.011719 19.320312 C 27.960938 18.152344 27.894531 16.976562 27.785156 15.808594 C 27.726562 15.265625 27.722656 14.707031 27.503906 14.199219 C 27.34375 14.734375 27.445312 15.300781 27.46875 15.851562 C 27.605469 17.398438 27.671875 18.949219 27.75 20.503906 Z M 21.894531 16.054688 C 20.394531 16.460938 18.839844 16.597656 17.289062 16.605469 C 16.1875 16.628906 15.089844 16.648438 13.988281 16.570312 C 12.992188 16.496094 11.976562 16.453125 11.011719 16.148438 C 10.960938 16.164062 10.851562 16.199219 10.796875 16.222656 C 10.605469 16.199219 10.351562 16.035156 10.214844 16.230469 C 10.027344 16.585938 10.035156 17.003906 9.976562 17.390625 C 9.832031 19.03125 9.824219 20.683594 9.945312 22.332031 C 9.960938 22.949219 10.070312 23.558594 10.136719 24.171875 C 10.140625 24.261719 10.15625 24.339844 10.164062 24.425781 C 10.238281 24.933594 10.105469 25.457031 10.191406 25.957031 C 10.425781 26.125 10.714844 26.210938 10.992188 26.292969 C 11.695312 26.480469 12.398438 26.640625 13.101562 26.820312 C 13.210938 26.84375 13.320312 26.871094 13.429688 26.894531 C 13.683594 26.945312 13.945312 26.996094 14.207031 27.039062 C 14.351562 27.0625 14.496094 27.082031 14.640625 27.105469 C 15.757812 27.25 16.890625 27.25 18.015625 27.183594 C 18.324219 27.164062 18.636719 27.140625 18.957031 27.113281 C 19.175781 27.089844 19.398438 27.0625 19.617188 27.03125 C 19.761719 27.011719 19.914062 26.988281 20.058594 26.964844 C 20.539062 26.894531 21.019531 26.808594 21.488281 26.707031 C 21.640625 26.667969 21.800781 26.632812 21.953125 26.589844 C 22.707031 26.371094 23.441406 26.082031 24.167969 25.796875 C 24.339844 25.742188 24.523438 25.695312 24.695312 25.640625 C 25.058594 25.5 25.414062 25.355469 25.746094 25.160156 C 25.996094 25.015625 26.015625 24.703125 26.050781 24.457031 C 26.109375 23.824219 26.109375 23.195312 26.148438 22.5625 C 26.160156 21.308594 26.175781 20.058594 26.167969 18.804688 C 26.125 17.8125 26.015625 16.816406 25.847656 15.835938 C 25.792969 15.527344 25.703125 15.140625 25.378906 15.011719 C 24.914062 14.945312 24.542969 15.300781 24.117188 15.417969 C 23.367188 15.589844 22.648438 15.886719 21.894531 16.054688 Z M 25.226562 18.339844 C 25.507812 18.382812 25.523438 18.710938 25.414062 18.914062 C 25.320312 18.871094 25.226562 18.828125 25.132812 18.78125 C 25.066406 19.007812 24.941406 19.246094 25.058594 19.480469 C 25.289062 20.023438 25.769531 20.539062 25.660156 21.175781 C 25.515625 21.734375 24.871094 21.910156 24.382812 22.046875 C 24.21875 22.136719 23.976562 21.984375 24.078125 21.800781 C 24.304688 21.476562 24.730469 21.394531 25.03125 21.148438 C 25.183594 21.054688 25.144531 20.84375 25.109375 20.699219 C 24.933594 20.175781 24.433594 19.75 24.523438 19.152344 C 24.566406 18.796875 24.789062 18.296875 25.226562 18.339844 Z M 21.34375 18.585938 C 21.488281 18.832031 21.488281 19.132812 21.519531 19.40625 C 21.578125 20.066406 21.578125 20.726562 21.480469 21.378906 C 21.445312 21.582031 21.394531 21.859375 21.15625 21.910156 C 20.980469 21.953125 20.84375 21.808594 20.742188 21.683594 C 20.457031 21.34375 20.226562 20.972656 19.957031 20.625 C 19.949219 21.214844 20.03125 21.816406 19.945312 22.402344 C 19.914062 22.546875 19.785156 22.613281 19.660156 22.535156 C 19.507812 22.164062 19.566406 21.742188 19.507812 21.351562 C 19.480469 20.960938 19.398438 20.5625 19.449219 20.167969 C 19.488281 19.894531 19.835938 19.753906 20.058594 19.914062 C 20.523438 20.207031 20.726562 20.742188 21.0625 21.148438 C 21.164062 20.402344 21.054688 19.644531 21.132812 18.90625 C 21.140625 18.761719 21.222656 18.644531 21.34375 18.585938 Z M 23.535156 18.703125 C 23.8125 18.6875 24.144531 18.703125 24.289062 18.984375 C 23.949219 19.136719 23.578125 19.144531 23.230469 19.246094 C 22.984375 19.640625 22.867188 20.125 22.933594 20.582031 C 22.953125 20.75 23.070312 21.011719 23.28125 20.902344 C 23.449219 20.867188 23.484375 20.691406 23.558594 20.5625 C 23.390625 20.511719 22.976562 20.460938 23.15625 20.199219 C 23.410156 20.058594 23.839844 19.953125 24.007812 20.269531 C 24.269531 20.878906 23.585938 21.613281 22.960938 21.425781 C 22.628906 21.324219 22.445312 20.972656 22.394531 20.648438 C 22.324219 20.097656 22.46875 19.515625 22.78125 19.058594 C 22.941406 18.8125 23.253906 18.71875 23.535156 18.703125 Z M 12.839844 19.363281 C 13.058594 19.429688 13.09375 19.660156 13.117188 19.851562 C 12.890625 19.804688 12.652344 19.652344 12.433594 19.800781 C 12.109375 19.980469 12.117188 20.421875 12.261719 20.71875 C 12.535156 21.300781 12.992188 21.792969 13.132812 22.441406 C 13.226562 22.796875 13.082031 23.214844 12.746094 23.390625 C 12.433594 23.550781 12.070312 23.457031 11.761719 23.324219 C 11.59375 23.253906 11.40625 23.164062 11.316406 23 C 11.253906 22.867188 11.382812 22.765625 11.457031 22.679688 C 11.710938 22.902344 12.058594 22.960938 12.390625 22.960938 C 12.574219 22.96875 12.71875 22.789062 12.675781 22.605469 C 12.574219 21.75 11.679688 21.214844 11.695312 20.328125 C 11.664062 19.742188 12.261719 19.183594 12.839844 19.363281 Z M 19.015625 19.515625 C 19.1875 20.285156 19.074219 21.074219 19.074219 21.859375 C 19.058594 22.148438 19.117188 22.484375 18.898438 22.714844 C 18.804688 22.527344 18.730469 22.324219 18.710938 22.113281 C 18.625 21.273438 18.507812 20.421875 18.660156 19.582031 C 18.675781 19.390625 18.957031 19.3125 19.015625 19.515625 Z M 17.933594 19.589844 C 17.984375 19.996094 17.839844 20.378906 17.746094 20.765625 C 17.585938 21.328125 17.433594 21.902344 17.203125 22.445312 C 17.113281 22.644531 16.953125 22.898438 16.699219 22.851562 C 16.460938 22.824219 16.402344 22.554688 16.34375 22.359375 C 16.171875 21.640625 16.027344 20.921875 15.894531 20.199219 C 15.875 20.03125 15.816406 19.792969 16.019531 19.71875 C 16.238281 19.726562 16.308594 19.957031 16.367188 20.132812 C 16.546875 20.777344 16.679688 21.4375 16.832031 22.089844 C 17.144531 21.378906 17.308594 20.617188 17.601562 19.902344 C 17.679688 19.769531 17.746094 19.523438 17.933594 19.589844 Z M 14.820312 19.652344 C 15.039062 19.804688 15.25 19.996094 15.324219 20.257812 C 15.476562 20.777344 15.546875 21.316406 15.597656 21.859375 C 15.640625 22.324219 15.734375 22.800781 15.597656 23.257812 C 15.402344 23.003906 15.328125 22.6875 15.25 22.382812 C 14.921875 22.433594 14.589844 22.445312 14.257812 22.441406 C 14.15625 22.707031 14.109375 23.019531 13.914062 23.238281 C 13.878906 23.230469 13.800781 23.214844 13.761719 23.207031 C 13.703125 22.832031 13.871094 22.476562 13.929688 22.105469 C 14.054688 21.335938 14.257812 20.582031 14.53125 19.855469 C 14.566406 19.734375 14.664062 19.542969 14.820312 19.652344 Z M 7.84375 26.835938 C 7.855469 27.132812 7.800781 27.46875 7.980469 27.730469 C 8.058594 27.613281 8.160156 27.496094 8.160156 27.34375 C 8.207031 26.863281 8.167969 26.378906 8.167969 25.898438 C 8.148438 23.613281 8.183594 21.335938 8.058594 19.050781 C 8.046875 18.804688 7.996094 18.566406 7.9375 18.332031 C 7.71875 18.675781 7.761719 19.09375 7.753906 19.488281 C 7.761719 21.9375 7.800781 24.390625 7.84375 26.835938 Z M 14.414062 21.960938 C 14.664062 21.953125 14.910156 21.945312 15.15625 21.945312 C 15.023438 21.460938 14.921875 20.96875 14.835938 20.472656 C 14.683594 20.972656 14.5625 21.46875 14.414062 21.960938 Z M 8.363281 30.769531 C 8.71875 31.03125 9.0625 31.339844 9.503906 31.421875 C 9.15625 30.972656 8.667969 30.667969 8.257812 30.28125 C 8.15625 30.160156 7.871094 30.035156 7.878906 30.296875 C 7.996094 30.5 8.191406 30.628906 8.363281 30.769531 Z M 11.289062 32.515625 C 12.160156 32.988281 13.089844 33.320312 14.023438 33.632812 C 14.300781 33.726562 14.582031 33.773438 14.871094 33.765625 C 13.851562 33.15625 12.683594 32.859375 11.609375 32.351562 C 11.390625 32.277344 11.171875 32.097656 10.933594 32.160156 C 10.953125 32.351562 11.144531 32.429688 11.289062 32.515625 Z M 11.289062 32.515625 " fill-opacity="1" fill-rule="nonzero"/></svg>