<svg xmlns="http://www.w3.org/2000/svg" xmlns:xlink="http://www.w3.org/1999/xlink" width="48" zoomAndPan="magnify" viewBox="0 0 36 36.000001" height="48" preserveAspectRatio="xMidYMid meet" version="1.0"><defs><clipPath id="8eae7e7895"><path d="M 6 19 L 18 19 L 18 25.78125 L 6 25.78125 Z M 6 19 " clip-rule="nonzero"/></clipPath><clipPath id="39cc173149"><path d="M 0.488281 19 L 9 19 L 9 25.78125 L 0.488281 25.78125 Z M 0.488281 19 " clip-rule="nonzero"/></clipPath><clipPath id="09771142a4"><path d="M 15 19 L 27 19 L 27 25.78125 L 15 25.78125 Z M 15 19 " clip-rule="nonzero"/></clipPath><clipPath id="d408dd9990"><path d="M 9 19 L 19 19 L 19 25.78125 L 9 25.78125 Z M 9 19 " clip-rule="nonzero"/></clipPath><clipPath id="2a23bbaa0e"><path d="M 24 19 L 35.511719 19 L 35.511719 25.78125 L 24 25.78125 Z M 24 19 " clip-rule="nonzero"/></clipPath><clipPath id="7bd32eeb8e"><path d="M 18 20 L 28 20 L 28 25.78125 L 18 25.78125 Z M 18 20 " clip-rule="nonzero"/></clipPath></defs><g clip-path="url(#8eae7e7895)"><path fill="#ff9a01" d="M 8.808594 25.535156 L 6.445312 19.671875 L 14.167969 19.292969 L 17.097656 23.925781 Z M 8.808594 25.535156 " fill-opacity="1" fill-rule="nonzero"/></g><g clip-path="url(#39cc173149)"><path fill="#fcc352" d="M 0.527344 25.28125 L 2.914062 19.789062 L 6.738281 19.664062 L 8.808594 25.535156 Z M 0.527344 25.28125 " fill-opacity="1" fill-rule="nonzero"/></g><g clip-path="url(#09771142a4)"><path fill="#ff9a01" d="M 18.117188 25.796875 L 15.757812 20.003906 L 23.472656 19.425781 L 26.402344 24.058594 Z M 18.117188 25.796875 " fill-opacity="1" fill-rule="nonzero"/></g><g clip-path="url(#d408dd9990)"><path fill="#fcc352" d="M 9.058594 25.570312 L 10.933594 19.960938 L 15.757812 20.003906 L 18.117188 25.796875 Z M 9.058594 25.570312 " fill-opacity="1" fill-rule="nonzero"/></g><g clip-path="url(#2a23bbaa0e)"><path fill="#ff9a01" d="M 27.179688 26.027344 L 24.816406 20.234375 L 32.53125 19.65625 L 35.464844 24.289062 Z M 27.179688 26.027344 " fill-opacity="1" fill-rule="nonzero"/></g><g clip-path="url(#7bd32eeb8e)"><path fill="#fcc352" d="M 18.117188 25.800781 L 19.992188 20.191406 L 24.816406 20.234375 L 27.179688 26.027344 Z M 18.117188 25.800781 " fill-opacity="1" fill-rule="nonzero"/></g><path fill="#ff9a01" d="M 13.75 20.132812 L 11.386719 14.273438 L 19.269531 14.964844 L 22.203125 19.597656 Z M 13.75 20.132812 " fill-opacity="1" fill-rule="nonzero"/><path fill="#fcc352" d="M 4.6875 19.90625 L 6.535156 14.429688 L 11.679688 14.265625 L 13.75 20.132812 Z M 4.6875 19.90625 " fill-opacity="1" fill-rule="nonzero"/><path fill="#ff9a01" d="M 22.761719 20.425781 L 20.402344 14.566406 L 28.285156 15.257812 L 31.214844 19.890625 Z M 22.761719 20.425781 " fill-opacity="1" fill-rule="nonzero"/><path fill="#fcc352" d="M 13.703125 20.199219 L 15.550781 14.722656 L 20.691406 14.558594 L 22.761719 20.425781 Z M 13.703125 20.199219 " fill-opacity="1" fill-rule="nonzero"/><path fill="#ff9a01" d="M 18.992188 14.871094 L 16.632812 9.011719 L 24.515625 9.703125 L 27.078125 15.152344 Z M 18.992188 14.871094 " fill-opacity="1" fill-rule="nonzero"/><path fill="#fcc352" d="M 9.933594 14.644531 L 11.78125 9.167969 L 16.921875 9.003906 L 18.992188 14.871094 Z M 9.933594 14.644531 " fill-opacity="1" fill-rule="nonzero"/></svg>