<svg xmlns="http://www.w3.org/2000/svg" xmlns:xlink="http://www.w3.org/1999/xlink" width="48" zoomAndPan="magnify" viewBox="0 0 36 36.000001" height="48" preserveAspectRatio="xMidYMid meet" version="1.0"><defs><clipPath id="b4f898eb51"><path d="M 3.199219 25 L 22 25 L 22 30 L 3.199219 30 Z M 3.199219 25 " clip-rule="nonzero"/></clipPath><clipPath id="bbb626b371"><path d="M 3.199219 0 L 32 0 L 32 24 L 3.199219 24 Z M 3.199219 0 " clip-rule="nonzero"/></clipPath></defs><path fill="#ff9a01" d="M 12.546875 25.667969 C 14.289062 22.195312 19.222656 23.03125 20.203125 25.941406 Z M 12.546875 25.667969 " fill-opacity="1" fill-rule="nonzero"/><path fill="#ff9a01" d="M 16.390625 23.40625 C 16.25 22.152344 16.996094 20.296875 17.597656 18.773438 C 17.691406 18.539062 17.78125 18.308594 17.867188 18.085938 C 17.910156 17.972656 18.011719 17.890625 18.132812 17.867188 C 21.738281 17.179688 23.082031 15.699219 23.035156 15.746094 C 25.082031 13.535156 24.75 12.144531 24.445312 10.777344 C 24.15625 9.496094 23.859375 8.171875 25.433594 6.472656 C 25.609375 6.285156 25.804688 6.089844 26.027344 5.894531 L 26.28125 6.511719 C 23.332031 6.648438 19.714844 9.003906 17.851562 11.671875 C 16.6875 13.339844 17.8125 16.015625 18.402344 17.367188 C 18.503906 17.609375 18.601562 17.828125 18.640625 17.964844 C 18.695312 18.15625 18.585938 18.351562 18.394531 18.402344 C 18.207031 18.457031 18.011719 18.347656 17.957031 18.160156 C 17.933594 18.082031 17.867188 17.917969 17.75 17.652344 C 17.222656 16.4375 15.832031 13.328125 17.269531 11.265625 C 19.222656 8.464844 23.023438 5.949219 26.246094 5.804688 C 26.398438 5.796875 26.535156 5.886719 26.59375 6.023438 C 26.648438 6.164062 26.613281 6.324219 26.5 6.425781 C 26.292969 6.609375 26.113281 6.785156 25.957031 6.957031 C 24.628906 8.386719 24.863281 9.40625 25.136719 10.621094 C 25.472656 12.109375 25.828125 13.777344 23.558594 16.230469 C 23.511719 16.28125 22.035156 17.847656 18.265625 18.566406 L 18.53125 18.34375 C 18.445312 18.570312 18.351562 18.800781 18.257812 19.035156 C 17.621094 20.640625 16.980469 22.292969 17.097656 23.328125 C 17.117188 23.523438 16.976562 23.699219 16.78125 23.71875 C 16.585938 23.742188 16.410156 23.601562 16.390625 23.40625 Z M 16.390625 23.40625 " fill-opacity="1" fill-rule="nonzero"/><g clip-path="url(#b4f898eb51)"><path fill="#ff9a01" d="M 3.753906 29.300781 L 8.0625 26.128906 C 8.089844 26.109375 8.121094 26.09375 8.15625 26.082031 C 10.246094 25.394531 12.621094 25.402344 15.257812 25.410156 C 15.617188 25.410156 15.976562 25.410156 16.34375 25.410156 C 19.761719 25.402344 21.128906 26.394531 21.179688 27.1875 C 21.183594 27.199219 21.183594 27.214844 21.183594 27.226562 C 21.183594 27.414062 21.09375 27.621094 20.878906 27.714844 C 20.101562 28.050781 18.679688 28.46875 16.574219 28.855469 C 16.394531 28.890625 16.21875 28.769531 16.183594 28.589844 C 16.152344 28.40625 16.273438 28.230469 16.453125 28.199219 C 18.539062 27.8125 19.902344 27.40625 20.613281 27.101562 C 20.527344 27.136719 20.515625 27.214844 20.515625 27.226562 C 20.515625 27.230469 20.515625 27.230469 20.515625 27.230469 C 20.507812 27.113281 19.875 26.070312 16.347656 26.078125 C 15.976562 26.078125 15.613281 26.078125 15.253906 26.078125 C 12.589844 26.074219 10.332031 26.070312 8.363281 26.714844 L 8.457031 26.667969 L 4.152344 29.839844 C 4.003906 29.949219 3.792969 29.917969 3.683594 29.769531 C 3.574219 29.617188 3.605469 29.410156 3.753906 29.300781 Z M 3.753906 29.300781 " fill-opacity="1" fill-rule="nonzero"/></g><path fill="#ff9a01" d="M 6.984375 34.394531 C 8.066406 33.347656 11.277344 31.441406 11.75 31.289062 C 11.765625 31.28125 11.789062 31.277344 11.8125 31.269531 C 11.851562 31.265625 11.886719 31.261719 11.910156 31.261719 C 12.105469 31.261719 12.605469 31.371094 13.15625 31.488281 C 14.574219 31.789062 16.652344 32.226562 17.617188 32.042969 C 17.722656 32.023438 17.796875 32 17.851562 31.972656 C 25.199219 28.464844 27.652344 26.386719 27.710938 25.882812 C 27.710938 25.882812 27.710938 25.882812 27.710938 25.886719 C 27.710938 25.871094 27.566406 25.605469 26.726562 25.632812 C 26.167969 25.648438 25.476562 25.8125 24.820312 26.167969 C 22.035156 27.660156 20.046875 28.027344 20.023438 28.035156 C 19.847656 28.066406 19.675781 27.957031 19.628906 27.785156 C 19.578125 27.613281 19.671875 27.433594 19.839844 27.371094 C 23.589844 25.972656 27.074219 23.886719 26.796875 23.136719 C 26.792969 23.136719 26.792969 23.132812 26.792969 23.132812 C 26.707031 22.921875 26.550781 22.800781 25.929688 23.054688 C 25.359375 23.289062 24.628906 23.765625 23.78125 24.316406 C 22.773438 24.976562 21.617188 25.734375 20.484375 26.195312 C 20.269531 26.285156 20.054688 26.363281 19.839844 26.425781 C 19.671875 26.480469 19.488281 26.394531 19.421875 26.230469 C 19.351562 26.066406 19.417969 25.878906 19.574219 25.792969 C 22.242188 24.335938 23.242188 23.261719 23.167969 22.992188 C 23.167969 22.992188 23.164062 22.988281 23.148438 22.972656 C 22.507812 22.507812 20.457031 23.984375 18.894531 25.183594 C 18.769531 25.277344 18.652344 25.367188 18.546875 25.449219 C 18.394531 25.5625 18.175781 25.53125 18.0625 25.378906 C 17.949219 25.226562 17.976562 25.011719 18.128906 24.898438 C 18.234375 24.816406 18.351562 24.730469 18.472656 24.632812 C 19.6875 23.707031 22.371094 21.558594 23.554688 22.414062 C 23.636719 22.476562 23.710938 22.550781 23.765625 22.644531 C 23.769531 22.652344 23.769531 22.65625 23.773438 22.660156 C 23.800781 22.707031 23.820312 22.753906 23.832031 22.804688 C 24.09375 23.742188 22.253906 25.117188 19.90625 26.398438 L 19.640625 25.765625 C 19.832031 25.710938 20.027344 25.640625 20.222656 25.558594 C 21.28125 25.125 22.382812 24.410156 23.40625 23.738281 C 24.230469 23.203125 25.023438 22.683594 25.667969 22.417969 C 26.316406 22.152344 27.097656 22.054688 27.433594 22.871094 L 27.429688 22.871094 C 27.433594 22.878906 27.4375 22.886719 27.441406 22.894531 C 28.03125 24.476562 23.300781 26.816406 20.082031 28.019531 L 19.898438 27.355469 C 19.871094 27.359375 21.785156 27.011719 24.492188 25.558594 C 25.242188 25.15625 26.039062 24.964844 26.703125 24.941406 C 27.402344 24.917969 28.375 25.101562 28.402344 25.867188 C 28.402344 25.898438 28.402344 25.929688 28.398438 25.960938 C 28.28125 26.949219 25.261719 29.199219 18.148438 32.59375 C 18.027344 32.652344 17.890625 32.695312 17.75 32.722656 C 16.609375 32.9375 14.347656 32.449219 13.011719 32.164062 C 12.394531 32.03125 12.011719 31.953125 11.914062 31.953125 C 11.910156 31.953125 11.921875 31.953125 11.941406 31.949219 C 11.957031 31.945312 11.960938 31.945312 11.960938 31.945312 C 11.609375 32.058594 8.484375 33.902344 7.464844 34.890625 C 7.328125 35.023438 7.109375 35.019531 6.976562 34.882812 C 6.84375 34.746094 6.847656 34.527344 6.984375 34.394531 Z M 6.984375 34.394531 " fill-opacity="1" fill-rule="nonzero"/><path fill="#ff9a01" d="M 17 20.265625 C 16.945312 18.976562 16.195312 15.328125 15.0625 14.644531 C 14.929688 14.5625 14.867188 14.398438 14.914062 14.25 C 15.636719 11.941406 14.757812 10.820312 14.761719 10.828125 L 14.765625 10.828125 C 14.761719 10.828125 14.765625 10.828125 14.765625 10.828125 L 15.03125 10.617188 L 14.765625 10.832031 C 13.871094 9.71875 12.679688 9.277344 11.410156 8.8125 C 10.609375 8.523438 9.769531 8.21875 9.023438 7.714844 L 9.554688 7.476562 C 9.300781 9.324219 10.492188 13.71875 13.574219 14.140625 C 14.035156 14.203125 14.550781 14.179688 15.125 14.042969 C 15.308594 14 15.492188 14.113281 15.535156 14.296875 C 15.578125 14.480469 15.464844 14.664062 15.28125 14.707031 C 14.632812 14.863281 14.035156 14.894531 13.480469 14.816406 C 9.785156 14.3125 8.613281 9.308594 8.875 7.386719 C 8.890625 7.269531 8.96875 7.167969 9.074219 7.121094 C 9.183594 7.070312 9.308594 7.082031 9.40625 7.148438 C 10.070312 7.597656 10.828125 7.875 11.640625 8.171875 C 12.894531 8.628906 14.265625 9.121094 15.296875 10.402344 L 15.03125 10.617188 L 15.296875 10.402344 C 15.300781 10.40625 15.300781 10.40625 15.304688 10.410156 C 15.40625 10.539062 16.371094 11.890625 15.566406 14.453125 L 15.417969 14.058594 C 16.910156 14.964844 17.632812 19.035156 17.679688 20.238281 C 17.6875 20.425781 17.542969 20.585938 17.355469 20.59375 C 17.164062 20.601562 17.007812 20.453125 17 20.265625 Z M 17 20.265625 " fill-opacity="1" fill-rule="nonzero"/><path fill="#ff9a01" d="M 16.902344 20.777344 C 16.480469 19.097656 15.757812 16.875 14.632812 17.15625 C 14.613281 17.160156 14.597656 17.164062 14.578125 17.171875 C 14.121094 17.3125 14.171875 17.539062 14.179688 17.425781 C 14.175781 17.449219 14.171875 17.476562 14.164062 17.5 C 12.734375 22.273438 8.296875 20.984375 8.253906 20.972656 C 8.128906 20.9375 8.035156 20.832031 8.011719 20.699219 C 7.988281 20.570312 8.042969 20.441406 8.152344 20.363281 C 9.046875 19.722656 9.132812 19.21875 9.226562 18.71875 C 9.316406 18.246094 9.414062 17.714844 10.097656 17.230469 C 10.117188 17.214844 10.136719 17.203125 10.15625 17.1875 C 11.714844 16.136719 13.511719 16.394531 14.0625 17.214844 C 14.085938 17.242188 14.101562 17.273438 14.121094 17.308594 C 14.207031 17.476562 14.144531 17.683594 13.976562 17.769531 C 13.808594 17.859375 13.601562 17.796875 13.511719 17.628906 C 13.507812 17.621094 13.5 17.609375 13.496094 17.597656 C 13.246094 17.230469 11.941406 16.8125 10.542969 17.757812 C 10.527344 17.769531 10.511719 17.78125 10.496094 17.789062 C 10.042969 18.113281 9.984375 18.414062 9.902344 18.847656 C 9.789062 19.441406 9.644531 20.140625 8.550781 20.921875 L 8.445312 20.3125 C 8.449219 20.3125 8.449219 20.3125 8.449219 20.3125 C 8.527344 20.335938 12.277344 21.414062 13.507812 17.300781 L 13.492188 17.375 C 13.5 17.261719 13.601562 16.753906 14.375 16.511719 C 14.40625 16.503906 14.433594 16.496094 14.464844 16.488281 C 16.429688 15.996094 17.265625 19.40625 17.566406 20.609375 C 17.613281 20.792969 17.503906 20.980469 17.316406 21.027344 C 17.132812 21.074219 16.949219 20.960938 16.902344 20.777344 Z M 16.902344 20.777344 " fill-opacity="1" fill-rule="nonzero"/><path fill="#ff9a01" d="M 19.449219 14.914062 C 19.628906 14.589844 19.902344 13.933594 20.226562 13.296875 C 20.550781 12.664062 20.847656 12.003906 21.175781 11.3125 C 21.503906 10.621094 21.894531 9.90625 22.265625 9.402344 C 22.640625 8.898438 22.640625 8.898438 22.371094 9.214844 C 22.371094 9.214844 21.761719 9.800781 21.199219 10.394531 C 20.632812 10.992188 20.167969 11.632812 19.863281 12.339844 C 19.558594 13.046875 19.394531 13.78125 19.40625 14.160156 C 19.355469 14.894531 19.515625 14.5625 19.449219 14.914062 Z M 19.449219 14.914062 " fill-opacity="1" fill-rule="nonzero"/><path fill="#ff9a01" d="M 19.972656 13.175781 C 20.015625 13.148438 20.101562 13.082031 20.203125 13.019531 C 20.308594 12.957031 20.425781 12.898438 20.558594 12.835938 C 20.695312 12.777344 20.84375 12.714844 21.003906 12.660156 C 21.164062 12.601562 21.273438 12.4375 21.425781 12.347656 C 21.578125 12.253906 21.742188 12.164062 21.917969 12.074219 C 22.089844 11.988281 22.277344 11.921875 22.425781 11.886719 C 22.574219 11.851562 22.574219 11.851562 22.476562 11.875 C 22.476562 11.875 22.277344 11.921875 22.082031 11.957031 C 21.886719 11.988281 21.695312 12.019531 21.507812 12.058594 C 21.320312 12.097656 21.140625 12.144531 20.960938 12.1875 C 20.78125 12.226562 20.632812 12.335938 20.5 12.441406 C 20.367188 12.550781 20.253906 12.65625 20.15625 12.761719 C 20.0625 12.863281 19.984375 12.964844 19.957031 13.019531 C 19.898438 13.117188 20.003906 13.136719 19.972656 13.175781 Z M 19.972656 13.175781 " fill-opacity="1" fill-rule="nonzero"/><path fill="#ff9a01" d="M 13.734375 12.347656 C 13.695312 12.304688 13.605469 12.226562 13.515625 12.140625 C 13.425781 12.058594 13.335938 11.96875 13.246094 11.875 C 13.15625 11.78125 13.066406 11.679688 13 11.613281 C 12.9375 11.542969 12.875 11.46875 12.753906 11.328125 C 12.632812 11.183594 12.375 11.058594 12.078125 10.851562 C 11.78125 10.644531 11.410156 10.390625 11.132812 10.144531 C 10.851562 9.894531 10.851562 9.894531 11.03125 10.066406 C 11.03125 10.066406 11.371094 10.433594 11.628906 10.765625 C 11.882812 11.101562 12.089844 11.363281 12.246094 11.554688 C 12.40625 11.746094 12.542969 11.839844 12.609375 11.882812 C 12.679688 11.929688 12.796875 12.003906 12.917969 12.074219 C 13.039062 12.144531 13.160156 12.210938 13.277344 12.265625 C 13.394531 12.324219 13.511719 12.375 13.574219 12.390625 C 13.683594 12.433594 13.683594 12.320312 13.734375 12.347656 Z M 13.734375 12.347656 " fill-opacity="1" fill-rule="nonzero"/><path fill="#ff9a01" d="M 12.140625 17.917969 C 12.082031 17.921875 11.945312 17.972656 11.777344 18.0625 C 11.609375 18.152344 11.414062 18.28125 11.261719 18.523438 C 11.113281 18.765625 10.933594 19.042969 10.757812 19.246094 C 10.582031 19.445312 10.582031 19.445312 10.703125 19.3125 C 10.703125 19.3125 10.941406 19.046875 11.183594 18.859375 C 11.429688 18.667969 11.664062 18.546875 11.796875 18.390625 C 11.925781 18.230469 12.039062 18.121094 12.082031 18.074219 C 12.175781 18.011719 12.09375 17.9375 12.140625 17.917969 Z M 12.140625 17.917969 " fill-opacity="1" fill-rule="nonzero"/><g clip-path="url(#bbb626b371)"><path fill="#ff9a01" d="M 7.0625 23.722656 L 6.289062 22.835938 C 6.28125 22.828125 6.273438 22.820312 6.269531 22.8125 L 5.574219 21.859375 C 5.566406 21.851562 5.5625 21.84375 5.558594 21.835938 L 4.945312 20.828125 C 4.941406 20.820312 4.9375 20.8125 4.929688 20.800781 L 4.410156 19.746094 C 4.40625 19.738281 4.402344 19.730469 4.398438 19.71875 L 3.96875 18.625 C 3.964844 18.613281 3.960938 18.605469 3.957031 18.59375 L 3.625 17.464844 C 3.621094 17.457031 3.617188 17.445312 3.617188 17.4375 L 3.382812 16.285156 C 3.378906 16.273438 3.378906 16.261719 3.375 16.253906 L 3.242188 15.082031 C 3.238281 15.074219 3.238281 15.0625 3.238281 15.054688 L 3.203125 13.875 C 3.203125 13.867188 3.203125 13.855469 3.203125 13.847656 L 3.269531 12.671875 C 3.273438 12.660156 3.273438 12.652344 3.273438 12.640625 L 3.441406 11.476562 C 3.441406 11.464844 3.445312 11.457031 3.445312 11.445312 L 3.714844 10.300781 C 3.714844 10.289062 3.71875 10.277344 3.722656 10.269531 L 4.085938 9.152344 C 4.089844 9.140625 4.09375 9.128906 4.097656 9.121094 L 4.554688 8.039062 C 4.558594 8.027344 4.566406 8.019531 4.570312 8.011719 L 5.121094 6.96875 C 5.125 6.960938 5.128906 6.953125 5.136719 6.941406 L 5.773438 5.953125 C 5.777344 5.945312 5.785156 5.9375 5.792969 5.929688 L 6.511719 5 C 6.519531 4.992188 6.523438 4.984375 6.53125 4.976562 L 7.328125 4.109375 C 7.335938 4.101562 7.34375 4.09375 7.351562 4.089844 L 8.21875 3.292969 C 8.226562 3.289062 8.234375 3.28125 8.246094 3.273438 L 9.179688 2.558594 C 9.1875 2.554688 9.195312 2.546875 9.203125 2.542969 L 10.195312 1.910156 C 10.203125 1.902344 10.214844 1.898438 10.222656 1.894531 L 11.265625 1.347656 C 11.273438 1.34375 11.285156 1.339844 11.292969 1.335938 L 12.378906 0.882812 C 12.386719 0.878906 12.398438 0.875 12.40625 0.871094 L 13.527344 0.511719 C 13.539062 0.507812 13.546875 0.507812 13.558594 0.503906 L 14.691406 0.246094 C 14.703125 0.242188 14.714844 0.242188 14.722656 0.238281 L 15.875 0.078125 C 15.886719 0.078125 15.898438 0.0742188 15.90625 0.0742188 L 17.070312 0.0117188 C 17.078125 0.0117188 17.089844 0.0117188 17.101562 0.0117188 L 18.265625 0.046875 C 18.273438 0.046875 18.285156 0.0507812 18.292969 0.0507812 L 19.449219 0.183594 C 19.460938 0.1875 19.472656 0.1875 19.480469 0.191406 L 20.621094 0.421875 C 20.632812 0.425781 20.640625 0.429688 20.652344 0.429688 L 21.769531 0.757812 C 21.777344 0.761719 21.789062 0.765625 21.796875 0.769531 L 22.882812 1.191406 C 22.890625 1.195312 22.902344 1.199219 22.910156 1.203125 L 23.953125 1.71875 C 23.964844 1.722656 23.972656 1.726562 23.980469 1.734375 L 24.980469 2.332031 C 24.988281 2.339844 24.996094 2.34375 25.003906 2.351562 L 25.949219 3.035156 C 25.957031 3.039062 25.964844 3.046875 25.972656 3.050781 L 26.851562 3.8125 C 26.859375 3.820312 26.867188 3.828125 26.875 3.835938 L 27.6875 4.667969 C 27.695312 4.675781 27.703125 4.683594 27.707031 4.691406 L 28.449219 5.589844 C 28.453125 5.597656 28.460938 5.605469 28.46875 5.613281 L 29.128906 6.570312 C 29.132812 6.582031 29.140625 6.589844 29.144531 6.597656 L 29.71875 7.609375 C 29.726562 7.617188 29.730469 7.628906 29.734375 7.636719 L 30.222656 8.691406 C 30.226562 8.703125 30.230469 8.710938 30.234375 8.722656 L 30.632812 9.816406 C 30.636719 9.824219 30.636719 9.835938 30.640625 9.84375 L 30.941406 10.96875 C 30.945312 10.980469 30.949219 10.988281 30.949219 11 L 31.15625 12.144531 C 31.15625 12.15625 31.160156 12.164062 31.160156 12.175781 L 31.269531 13.335938 C 31.269531 13.34375 31.269531 13.355469 31.269531 13.367188 L 31.277344 14.53125 C 31.277344 14.539062 31.277344 14.550781 31.277344 14.558594 L 31.1875 15.722656 C 31.1875 15.730469 31.183594 15.742188 31.183594 15.75 L 30.996094 16.898438 C 30.960938 17.097656 30.777344 17.230469 30.578125 17.199219 C 30.382812 17.167969 30.25 16.980469 30.28125 16.78125 L 30.46875 15.632812 L 30.464844 15.664062 L 30.554688 14.503906 L 30.554688 14.535156 L 30.546875 13.371094 L 30.546875 13.402344 L 30.441406 12.242188 L 30.445312 12.273438 L 30.238281 11.128906 L 30.246094 11.15625 L 29.941406 10.035156 L 29.953125 10.0625 L 29.554688 8.96875 L 29.566406 8.996094 L 29.078125 7.941406 L 29.09375 7.96875 L 28.515625 6.957031 L 28.53125 6.980469 L 27.871094 6.023438 L 27.890625 6.046875 L 27.148438 5.148438 L 27.171875 5.171875 L 26.359375 4.339844 L 26.378906 4.359375 L 25.5 3.601562 L 25.523438 3.617188 L 24.582031 2.9375 L 24.605469 2.953125 L 23.609375 2.351562 L 23.636719 2.367188 L 22.589844 1.855469 L 22.617188 1.867188 L 21.535156 1.445312 L 21.5625 1.453125 L 20.445312 1.125 L 20.476562 1.132812 L 19.335938 0.898438 L 19.367188 0.902344 L 18.210938 0.769531 L 18.242188 0.769531 L 17.078125 0.734375 L 17.109375 0.734375 L 15.945312 0.796875 L 15.976562 0.792969 L 14.824219 0.957031 L 14.855469 0.949219 L 13.71875 1.207031 L 13.75 1.199219 L 12.628906 1.558594 L 12.65625 1.546875 L 11.570312 2.003906 L 11.601562 1.988281 L 10.558594 2.535156 L 10.585938 2.519531 L 9.59375 3.152344 L 9.617188 3.132812 L 8.683594 3.847656 L 8.707031 3.828125 L 7.839844 4.621094 L 7.859375 4.601562 L 7.0625 5.464844 L 7.082031 5.441406 L 6.363281 6.371094 L 6.382812 6.347656 L 5.742188 7.335938 L 5.757812 7.308594 L 5.207031 8.347656 L 5.222656 8.320312 L 4.761719 9.402344 L 4.773438 9.375 L 4.410156 10.492188 L 4.417969 10.464844 L 4.152344 11.609375 L 4.15625 11.578125 L 3.988281 12.742188 L 3.992188 12.710938 L 3.925781 13.886719 L 3.925781 13.855469 L 3.960938 15.03125 L 3.960938 15 L 4.09375 16.167969 L 4.089844 16.136719 L 4.324219 17.292969 L 4.316406 17.261719 L 4.652344 18.390625 L 4.640625 18.359375 L 5.070312 19.457031 L 5.058594 19.425781 L 5.578125 20.480469 L 5.566406 20.453125 L 6.175781 21.460938 L 6.15625 21.433594 L 6.851562 22.382812 L 6.832031 22.359375 L 7.605469 23.246094 C 7.738281 23.394531 7.722656 23.625 7.574219 23.757812 C 7.421875 23.886719 7.195312 23.871094 7.0625 23.722656 Z M 7.0625 23.722656 " fill-opacity="1" fill-rule="nonzero"/></g><path fill="#ff9a01" d="M 29.480469 15.777344 C 29.632812 16.058594 30.550781 17.085938 30.746094 17.214844 C 30.753906 17.21875 30.734375 17.203125 30.699219 17.191406 C 30.605469 17.164062 30.542969 17.1875 30.5625 17.183594 C 30.804688 17.121094 31.929688 16.371094 32.085938 16.195312 C 32.089844 16.1875 32.074219 16.207031 32.054688 16.246094 C 32.140625 16.066406 32.359375 15.992188 32.539062 16.078125 C 32.71875 16.164062 32.792969 16.382812 32.703125 16.5625 C 32.679688 16.617188 32.644531 16.65625 32.625 16.675781 C 32.394531 16.933594 31.15625 17.773438 30.75 17.882812 C 30.714844 17.890625 30.605469 17.921875 30.484375 17.882812 C 30.429688 17.867188 30.382812 17.839844 30.359375 17.824219 C 30.035156 17.617188 29.042969 16.488281 28.84375 16.121094 C 28.75 15.945312 28.8125 15.726562 28.988281 15.632812 C 29.164062 15.535156 29.382812 15.601562 29.480469 15.777344 Z M 29.480469 15.777344 " fill-opacity="1" fill-rule="nonzero"/></svg>