<svg xmlns="http://www.w3.org/2000/svg" xmlns:xlink="http://www.w3.org/1999/xlink" width="48" zoomAndPan="magnify" viewBox="0 0 36 36.000001" height="48" preserveAspectRatio="xMidYMid meet" version="1.0"><defs><clipPath id="55e1194664"><path d="M 0.488281 1.765625 L 35.386719 1.765625 L 35.386719 33.144531 L 0.488281 33.144531 Z M 0.488281 1.765625 " clip-rule="nonzero"/></clipPath></defs><path fill="#ff9a01" d="M 8.375 8.042969 C 8.375 8.121094 8.347656 8.1875 8.292969 8.242188 C 8.238281 8.300781 8.167969 8.328125 8.089844 8.328125 C 8.011719 8.328125 7.945312 8.300781 7.890625 8.242188 C 7.832031 8.1875 7.804688 8.121094 7.804688 8.042969 C 7.804688 7.964844 7.832031 7.894531 7.890625 7.839844 C 7.945312 7.785156 8.011719 7.757812 8.089844 7.757812 C 8.167969 7.757812 8.238281 7.785156 8.292969 7.839844 C 8.347656 7.894531 8.375 7.964844 8.375 8.042969 Z M 8.375 8.042969 " fill-opacity="1" fill-rule="nonzero"/><path fill="#ff9a01" d="M 16.363281 8.042969 C 16.363281 8.121094 16.335938 8.1875 16.28125 8.242188 C 16.222656 8.300781 16.15625 8.328125 16.078125 8.328125 C 16 8.328125 15.933594 8.300781 15.875 8.242188 C 15.820312 8.1875 15.792969 8.121094 15.792969 8.042969 C 15.792969 7.964844 15.820312 7.894531 15.875 7.839844 C 15.933594 7.785156 16 7.757812 16.078125 7.757812 C 16.15625 7.757812 16.222656 7.785156 16.28125 7.839844 C 16.335938 7.894531 16.363281 7.964844 16.363281 8.042969 Z M 16.363281 8.042969 " fill-opacity="1" fill-rule="nonzero"/><path fill="#ff9a01" d="M 24.351562 8.042969 C 24.351562 8.121094 24.324219 8.1875 24.265625 8.242188 C 24.210938 8.300781 24.144531 8.328125 24.066406 8.328125 C 23.984375 8.328125 23.917969 8.300781 23.863281 8.242188 C 23.808594 8.1875 23.78125 8.121094 23.78125 8.042969 C 23.78125 7.964844 23.808594 7.894531 23.863281 7.839844 C 23.917969 7.785156 23.984375 7.757812 24.066406 7.757812 C 24.144531 7.757812 24.210938 7.785156 24.265625 7.839844 C 24.324219 7.894531 24.351562 7.964844 24.351562 8.042969 Z M 24.351562 8.042969 " fill-opacity="1" fill-rule="nonzero"/><path fill="#ff9a01" d="M 32.335938 8.042969 C 32.335938 8.121094 32.308594 8.1875 32.253906 8.242188 C 32.199219 8.300781 32.128906 8.328125 32.050781 8.328125 C 31.972656 8.328125 31.90625 8.300781 31.851562 8.242188 C 31.792969 8.1875 31.765625 8.121094 31.765625 8.042969 C 31.765625 7.964844 31.792969 7.894531 31.851562 7.839844 C 31.90625 7.785156 31.972656 7.757812 32.050781 7.757812 C 32.128906 7.757812 32.199219 7.785156 32.253906 7.839844 C 32.308594 7.894531 32.335938 7.964844 32.335938 8.042969 Z M 32.335938 8.042969 " fill-opacity="1" fill-rule="nonzero"/><g clip-path="url(#55e1194664)"><path fill="#ff9a01" d="M 34.90625 1.765625 L 1.246094 1.765625 C 1.085938 1.765625 0.953125 1.824219 0.839844 1.933594 C 0.730469 2.046875 0.675781 2.179688 0.675781 2.335938 L 0.675781 4.617188 C 0.675781 4.777344 0.730469 4.910156 0.839844 5.023438 C 0.953125 5.132812 1.085938 5.191406 1.246094 5.191406 L 1.816406 5.191406 L 1.816406 10.324219 C 1.816406 10.578125 1.859375 10.820312 1.941406 11.058594 C 2.023438 11.300781 2.140625 11.519531 2.296875 11.71875 C 2.449219 11.917969 2.632812 12.085938 2.84375 12.222656 C 3.054688 12.363281 3.28125 12.464844 3.527344 12.527344 L 3.527344 32.003906 L 0.675781 32.003906 C 0.515625 32.003906 0.382812 32.058594 0.269531 32.171875 C 0.160156 32.28125 0.105469 32.417969 0.105469 32.574219 L 0.105469 33.714844 C 0.105469 33.871094 0.160156 34.007812 0.269531 34.117188 C 0.382812 34.230469 0.515625 34.285156 0.675781 34.285156 L 34.90625 34.285156 C 35.0625 34.285156 35.195312 34.230469 35.308594 34.117188 C 35.417969 34.007812 35.476562 33.871094 35.476562 33.714844 L 35.476562 32.574219 C 35.476562 32.417969 35.417969 32.28125 35.308594 32.171875 C 35.195312 32.058594 35.0625 32.003906 34.90625 32.003906 L 32.621094 32.003906 L 32.621094 12.527344 C 32.867188 12.464844 33.09375 12.363281 33.304688 12.222656 C 33.515625 12.085938 33.699219 11.917969 33.855469 11.71875 C 34.007812 11.519531 34.128906 11.300781 34.210938 11.058594 C 34.292969 10.820312 34.332031 10.578125 34.332031 10.324219 L 34.332031 5.191406 L 34.90625 5.191406 C 35.0625 5.191406 35.195312 5.132812 35.308594 5.023438 C 35.417969 4.910156 35.476562 4.777344 35.476562 4.617188 L 35.476562 2.335938 C 35.476562 2.179688 35.417969 2.046875 35.308594 1.933594 C 35.195312 1.824219 35.0625 1.765625 34.90625 1.765625 Z M 28.058594 7.757812 C 28.136719 7.757812 28.203125 7.785156 28.261719 7.839844 C 28.316406 7.894531 28.34375 7.964844 28.34375 8.042969 C 28.34375 8.121094 28.316406 8.1875 28.261719 8.242188 C 28.203125 8.300781 28.136719 8.328125 28.058594 8.328125 C 27.980469 8.328125 27.914062 8.300781 27.855469 8.242188 C 27.800781 8.1875 27.773438 8.121094 27.773438 8.042969 C 27.773438 7.964844 27.800781 7.894531 27.855469 7.839844 C 27.914062 7.785156 27.980469 7.757812 28.058594 7.757812 Z M 24.351562 2.335938 L 27.773438 2.335938 L 27.773438 4.617188 L 24.351562 4.617188 Z M 22.351562 5.191406 L 25.777344 5.191406 L 25.777344 10.324219 C 25.777344 10.550781 25.734375 10.769531 25.644531 10.980469 C 25.558594 11.1875 25.4375 11.375 25.273438 11.535156 C 25.113281 11.695312 24.929688 11.820312 24.71875 11.90625 C 24.511719 11.992188 24.292969 12.035156 24.066406 12.035156 C 23.839844 12.035156 23.621094 11.992188 23.410156 11.90625 C 23.199219 11.820312 23.015625 11.695312 22.855469 11.535156 C 22.695312 11.375 22.570312 11.1875 22.484375 10.980469 C 22.398438 10.769531 22.351562 10.550781 22.351562 10.324219 Z M 20.070312 7.757812 C 20.148438 7.757812 20.21875 7.785156 20.273438 7.839844 C 20.328125 7.894531 20.355469 7.964844 20.355469 8.042969 C 20.355469 8.121094 20.328125 8.1875 20.273438 8.242188 C 20.21875 8.300781 20.148438 8.328125 20.070312 8.328125 C 19.992188 8.328125 19.925781 8.300781 19.871094 8.242188 C 19.8125 8.1875 19.785156 8.121094 19.785156 8.042969 C 19.785156 7.964844 19.8125 7.894531 19.871094 7.839844 C 19.925781 7.785156 19.992188 7.757812 20.070312 7.757812 Z M 16.363281 2.335938 L 19.785156 2.335938 L 19.785156 4.617188 L 16.363281 4.617188 Z M 14.367188 5.191406 L 17.789062 5.191406 L 17.789062 10.324219 C 17.789062 10.550781 17.746094 10.769531 17.660156 10.980469 C 17.570312 11.1875 17.449219 11.375 17.289062 11.535156 C 17.128906 11.695312 16.941406 11.820312 16.734375 11.90625 C 16.523438 11.992188 16.304688 12.035156 16.078125 12.035156 C 15.851562 12.035156 15.632812 11.992188 15.421875 11.90625 C 15.214844 11.820312 15.027344 11.695312 14.867188 11.535156 C 14.707031 11.375 14.582031 11.1875 14.496094 10.980469 C 14.410156 10.769531 14.367188 10.550781 14.367188 10.324219 Z M 12.085938 7.757812 C 12.164062 7.757812 12.230469 7.785156 12.285156 7.839844 C 12.339844 7.894531 12.371094 7.964844 12.371094 8.042969 C 12.371094 8.121094 12.339844 8.1875 12.285156 8.242188 C 12.230469 8.300781 12.164062 8.328125 12.085938 8.328125 C 12.003906 8.328125 11.9375 8.300781 11.882812 8.242188 C 11.828125 8.1875 11.800781 8.121094 11.800781 8.042969 C 11.800781 7.964844 11.828125 7.894531 11.882812 7.839844 C 11.9375 7.785156 12.003906 7.757812 12.085938 7.757812 Z M 8.375 2.335938 L 11.800781 2.335938 L 11.800781 4.617188 L 8.375 4.617188 Z M 6.378906 5.191406 L 9.800781 5.191406 L 9.800781 10.324219 C 9.800781 10.550781 9.757812 10.769531 9.671875 10.980469 C 9.585938 11.1875 9.460938 11.375 9.300781 11.535156 C 9.140625 11.695312 8.957031 11.820312 8.746094 11.90625 C 8.535156 11.992188 8.316406 12.035156 8.089844 12.035156 C 7.863281 12.035156 7.644531 11.992188 7.4375 11.90625 C 7.226562 11.820312 7.042969 11.695312 6.878906 11.535156 C 6.71875 11.375 6.597656 11.1875 6.507812 10.980469 C 6.421875 10.769531 6.378906 10.550781 6.378906 10.324219 Z M 4.667969 17.457031 L 9.800781 17.457031 C 9.882812 17.457031 9.949219 17.425781 10.003906 17.371094 C 10.058594 17.316406 10.085938 17.25 10.085938 17.171875 C 10.085938 17.089844 10.058594 17.023438 10.003906 16.96875 C 9.949219 16.914062 9.882812 16.886719 9.800781 16.886719 L 4.667969 16.886719 L 4.667969 12.527344 C 5.308594 12.355469 5.785156 11.972656 6.09375 11.386719 C 6.296875 11.75 6.574219 12.035156 6.933594 12.246094 C 7.289062 12.457031 7.675781 12.5625 8.089844 12.5625 C 8.507812 12.5625 8.890625 12.457031 9.25 12.246094 C 9.605469 12.035156 9.886719 11.75 10.085938 11.386719 C 10.289062 11.75 10.566406 12.035156 10.925781 12.246094 C 11.28125 12.457031 11.667969 12.5625 12.085938 12.5625 C 12.5 12.5625 12.886719 12.457031 13.242188 12.246094 C 13.601562 12.035156 13.878906 11.75 14.082031 11.386719 C 14.28125 11.75 14.5625 12.035156 14.917969 12.246094 C 15.277344 12.457031 15.664062 12.5625 16.078125 12.5625 C 16.492188 12.5625 16.878906 12.457031 17.238281 12.246094 C 17.59375 12.035156 17.875 11.75 18.074219 11.386719 C 18.277344 11.75 18.554688 12.035156 18.914062 12.246094 C 19.269531 12.457031 19.65625 12.5625 20.070312 12.5625 C 20.488281 12.5625 20.871094 12.457031 21.230469 12.246094 C 21.589844 12.035156 21.867188 11.75 22.066406 11.386719 C 22.269531 11.75 22.546875 12.035156 22.90625 12.246094 C 23.261719 12.457031 23.648438 12.5625 24.066406 12.5625 C 24.480469 12.5625 24.867188 12.457031 25.222656 12.246094 C 25.582031 12.035156 25.859375 11.75 26.0625 11.386719 C 26.261719 11.75 26.542969 12.035156 26.898438 12.246094 C 27.257812 12.457031 27.644531 12.5625 28.058594 12.5625 C 28.472656 12.5625 28.859375 12.457031 29.21875 12.246094 C 29.574219 12.035156 29.855469 11.75 30.054688 11.386719 C 30.363281 11.972656 30.839844 12.355469 31.480469 12.527344 L 31.480469 16.886719 L 17.789062 16.886719 C 17.710938 16.886719 17.644531 16.914062 17.585938 16.96875 C 17.53125 17.023438 17.503906 17.089844 17.503906 17.171875 C 17.503906 17.25 17.53125 17.316406 17.585938 17.371094 C 17.644531 17.425781 17.710938 17.457031 17.789062 17.457031 L 31.480469 17.457031 L 31.480469 32.003906 L 28.058594 32.003906 L 28.058594 29.4375 L 21.210938 29.4375 C 21.132812 29.4375 21.066406 29.40625 21.011719 29.351562 C 20.953125 29.296875 20.925781 29.230469 20.925781 29.152344 C 20.925781 29.070312 20.953125 29.003906 21.011719 28.949219 C 21.066406 28.894531 21.132812 28.867188 21.210938 28.867188 L 28.058594 28.867188 L 28.058594 27.722656 L 22.925781 27.722656 C 22.84375 27.722656 22.777344 27.695312 22.722656 27.640625 C 22.667969 27.585938 22.636719 27.519531 22.636719 27.4375 C 22.636719 27.359375 22.667969 27.292969 22.722656 27.238281 C 22.777344 27.183594 22.84375 27.152344 22.925781 27.152344 L 28.058594 27.152344 L 28.058594 23.445312 C 28.058594 23.292969 28.03125 23.148438 27.972656 23.007812 C 27.914062 22.871094 27.832031 22.746094 27.722656 22.640625 C 27.617188 22.53125 27.492188 22.449219 27.355469 22.390625 C 27.214844 22.332031 27.070312 22.304688 26.917969 22.304688 L 26.347656 22.304688 L 26.347656 21.164062 C 26.347656 21.007812 26.292969 20.871094 26.179688 20.761719 C 26.070312 20.648438 25.933594 20.59375 25.777344 20.59375 L 24.824219 20.59375 L 24.824219 19.835938 C 24.824219 19.675781 24.769531 19.542969 24.65625 19.429688 C 24.546875 19.320312 24.410156 19.265625 24.253906 19.265625 L 21.972656 19.265625 C 21.8125 19.265625 21.679688 19.320312 21.566406 19.429688 C 21.457031 19.542969 21.402344 19.675781 21.402344 19.835938 L 21.402344 20.59375 L 21.210938 20.59375 C 21.054688 20.59375 20.921875 20.648438 20.808594 20.761719 C 20.699219 20.871094 20.640625 21.007812 20.640625 21.164062 L 20.640625 22.304688 L 18.542969 22.304688 L 18.542969 22.152344 C 18.515625 21.71875 18.429688 21.300781 18.285156 20.898438 C 18.136719 20.492188 17.9375 20.113281 17.6875 19.765625 C 17.433594 19.414062 17.136719 19.109375 16.800781 18.84375 C 16.460938 18.578125 16.089844 18.363281 15.691406 18.203125 C 16.132812 17.71875 16.355469 17.148438 16.355469 16.492188 C 16.355469 16.152344 16.292969 15.824219 16.160156 15.507812 C 16.03125 15.195312 15.847656 14.917969 15.605469 14.675781 C 15.363281 14.433594 15.085938 14.25 14.773438 14.121094 C 14.457031 13.988281 14.128906 13.925781 13.789062 13.925781 C 13.449219 13.925781 13.121094 13.988281 12.808594 14.121094 C 12.492188 14.25 12.214844 14.433594 11.976562 14.675781 C 11.734375 14.917969 11.546875 15.195312 11.417969 15.507812 C 11.289062 15.824219 11.222656 16.152344 11.222656 16.492188 C 11.222656 17.148438 11.445312 17.71875 11.890625 18.203125 C 11.492188 18.363281 11.121094 18.578125 10.78125 18.84375 C 10.441406 19.109375 10.144531 19.414062 9.894531 19.765625 C 9.640625 20.113281 9.441406 20.492188 9.296875 20.898438 C 9.152344 21.300781 9.066406 21.71875 9.039062 22.152344 L 9.039062 22.304688 L 8.660156 22.304688 C 8.511719 22.304688 8.363281 22.332031 8.226562 22.390625 C 8.085938 22.449219 7.960938 22.53125 7.855469 22.640625 C 7.746094 22.746094 7.664062 22.871094 7.605469 23.007812 C 7.550781 23.148438 7.519531 23.292969 7.519531 23.445312 L 7.519531 27.152344 L 14.367188 27.152344 C 14.445312 27.152344 14.511719 27.183594 14.566406 27.238281 C 14.625 27.292969 14.652344 27.359375 14.652344 27.4375 C 14.652344 27.519531 14.625 27.585938 14.566406 27.640625 C 14.511719 27.695312 14.445312 27.722656 14.367188 27.722656 L 7.519531 27.722656 L 7.519531 28.867188 L 12.65625 28.867188 C 12.734375 28.867188 12.800781 28.894531 12.855469 28.949219 C 12.914062 29.003906 12.941406 29.070312 12.941406 29.152344 C 12.941406 29.230469 12.914062 29.296875 12.855469 29.351562 C 12.800781 29.40625 12.734375 29.4375 12.65625 29.4375 L 7.519531 29.4375 L 7.519531 32.003906 L 4.667969 32.003906 Z M 21.496094 27.152344 C 21.578125 27.152344 21.644531 27.183594 21.699219 27.238281 C 21.753906 27.292969 21.78125 27.359375 21.78125 27.4375 C 21.78125 27.519531 21.753906 27.585938 21.699219 27.640625 C 21.644531 27.695312 21.578125 27.722656 21.496094 27.722656 C 21.417969 27.722656 21.351562 27.695312 21.296875 27.640625 C 21.238281 27.585938 21.210938 27.519531 21.210938 27.4375 C 21.210938 27.359375 21.242188 27.292969 21.296875 27.238281 C 21.351562 27.183594 21.417969 27.152344 21.496094 27.152344 Z M 21.210938 22.304688 L 21.210938 21.164062 L 25.777344 21.164062 L 25.777344 22.304688 Z M 20.070312 29.152344 C 20.070312 29.230469 20.042969 29.296875 19.988281 29.351562 C 19.933594 29.40625 19.863281 29.4375 19.785156 29.4375 C 19.707031 29.4375 19.640625 29.40625 19.585938 29.351562 C 19.527344 29.296875 19.5 29.230469 19.5 29.152344 C 19.5 29.070312 19.527344 29.003906 19.585938 28.949219 C 19.640625 28.894531 19.707031 28.867188 19.785156 28.867188 C 19.863281 28.867188 19.933594 28.894531 19.988281 28.949219 C 20.042969 29.003906 20.070312 29.070312 20.070312 29.152344 Z M 9.613281 22.304688 L 9.613281 22.152344 C 9.640625 21.75 9.726562 21.363281 9.871094 20.992188 C 10.015625 20.617188 10.210938 20.273438 10.457031 19.960938 C 10.707031 19.644531 10.996094 19.375 11.328125 19.152344 C 11.660156 18.925781 12.015625 18.753906 12.398438 18.636719 C 12.820312 18.917969 13.289062 19.058594 13.796875 19.058594 C 14.304688 19.058594 14.769531 18.917969 15.195312 18.636719 C 15.574219 18.753906 15.933594 18.925781 16.261719 19.152344 C 16.59375 19.375 16.882812 19.648438 17.128906 19.960938 C 17.378906 20.273438 17.574219 20.617188 17.71875 20.992188 C 17.863281 21.363281 17.945312 21.75 17.972656 22.152344 L 17.972656 22.304688 Z M 16.078125 27.4375 C 16.078125 27.519531 16.050781 27.585938 15.996094 27.640625 C 15.9375 27.695312 15.871094 27.722656 15.792969 27.722656 C 15.714844 27.722656 15.648438 27.695312 15.589844 27.640625 C 15.535156 27.585938 15.507812 27.519531 15.507812 27.4375 C 15.507812 27.359375 15.535156 27.292969 15.589844 27.238281 C 15.648438 27.183594 15.714844 27.152344 15.792969 27.152344 C 15.871094 27.152344 15.9375 27.183594 15.996094 27.238281 C 16.050781 27.292969 16.078125 27.359375 16.078125 27.4375 Z M 11.804688 16.496094 C 11.804688 16.234375 11.855469 15.980469 11.957031 15.734375 C 12.058594 15.492188 12.203125 15.277344 12.386719 15.089844 C 12.574219 14.902344 12.789062 14.757812 13.035156 14.65625 C 13.277344 14.554688 13.53125 14.507812 13.796875 14.507812 C 14.058594 14.507812 14.3125 14.554688 14.558594 14.65625 C 14.800781 14.757812 15.015625 14.902344 15.203125 15.089844 C 15.390625 15.277344 15.535156 15.492188 15.636719 15.734375 C 15.738281 15.980469 15.785156 16.234375 15.785156 16.496094 C 15.785156 16.761719 15.738281 17.015625 15.636719 17.257812 C 15.535156 17.503906 15.390625 17.71875 15.203125 17.90625 C 15.015625 18.089844 14.800781 18.234375 14.558594 18.335938 C 14.3125 18.4375 14.058594 18.488281 13.796875 18.488281 C 13.53125 18.488281 13.277344 18.4375 13.035156 18.335938 C 12.792969 18.234375 12.578125 18.089844 12.390625 17.902344 C 12.203125 17.714844 12.058594 17.5 11.957031 17.257812 C 11.855469 17.015625 11.804688 16.761719 11.804688 16.496094 Z M 14.367188 29.152344 C 14.367188 29.230469 14.339844 29.296875 14.28125 29.351562 C 14.226562 29.40625 14.160156 29.4375 14.082031 29.4375 C 14.003906 29.4375 13.933594 29.40625 13.878906 29.351562 C 13.824219 29.296875 13.796875 29.230469 13.796875 29.152344 C 13.796875 29.070312 13.824219 29.003906 13.878906 28.949219 C 13.933594 28.894531 14.003906 28.867188 14.082031 28.867188 C 14.160156 28.867188 14.226562 28.894531 14.28125 28.949219 C 14.339844 29.003906 14.367188 29.070312 14.367188 29.152344 Z M 4.097656 7.757812 C 4.175781 7.757812 4.242188 7.785156 4.300781 7.839844 C 4.355469 7.894531 4.382812 7.964844 4.382812 8.042969 C 4.382812 8.121094 4.355469 8.1875 4.300781 8.242188 C 4.242188 8.300781 4.175781 8.328125 4.097656 8.328125 C 4.019531 8.328125 3.953125 8.300781 3.894531 8.242188 C 3.839844 8.1875 3.8125 8.121094 3.8125 8.042969 C 3.8125 7.964844 3.839844 7.894531 3.894531 7.839844 C 3.953125 7.785156 4.019531 7.757812 4.097656 7.757812 Z M 1.246094 4.617188 L 1.246094 2.335938 L 3.8125 2.335938 L 3.8125 4.617188 Z M 34.90625 32.574219 L 34.90625 33.714844 L 0.675781 33.714844 L 0.675781 32.574219 Z M 33.761719 10.324219 C 33.761719 10.550781 33.71875 10.769531 33.632812 10.980469 C 33.546875 11.1875 33.421875 11.375 33.261719 11.535156 C 33.101562 11.695312 32.917969 11.820312 32.707031 11.90625 C 32.496094 11.992188 32.277344 12.035156 32.050781 12.035156 C 31.824219 12.035156 31.605469 11.992188 31.398438 11.90625 C 31.1875 11.820312 31.003906 11.695312 30.839844 11.535156 C 30.679688 11.375 30.558594 11.1875 30.46875 10.980469 C 30.382812 10.769531 30.339844 10.550781 30.339844 10.324219 L 30.339844 5.191406 L 33.761719 5.191406 Z M 34.90625 4.617188 L 32.335938 4.617188 L 32.335938 2.335938 L 34.90625 2.335938 Z M 34.90625 4.617188 " fill-opacity="1" fill-rule="nonzero"/></g></svg>