<svg width="56" height="56" viewBox="0 0 56 56" fill="none" xmlns="http://www.w3.org/2000/svg">
<g clip-path="url(#clip0_154_11117)">
<rect width="56" height="56" rx="8" fill="#FFF9ED"/>
<path fill-rule="evenodd" clip-rule="evenodd" d="M34.6954 19.5557C34.7182 19.5737 34.7951 19.6266 34.8336 19.647C34.8828 19.6759 34.9309 19.6939 34.9718 19.7035C35.0727 19.7287 35.1604 19.7143 35.2337 19.6807C35.3202 19.6398 35.4032 19.5713 35.4452 19.4355C35.5017 19.2469 35.3959 19.0474 35.2085 18.9909C35.1724 18.9789 35.1364 18.9741 35.1015 18.9741C35.0451 18.938 34.973 18.8972 34.9345 18.884L34.3181 18.7157C33.9191 18.6208 28.1319 18.2928 23.806 18.3324C21.6634 18.3516 19.8741 18.4718 19.2312 18.7314C19.0486 18.8059 18.9597 19.0137 19.0342 19.1952C19.1075 19.3779 19.3154 19.4656 19.498 19.3923C20.2503 19.0895 22.6536 19.0246 25.2972 19.045C29.2831 19.075 33.8061 19.3274 34.1534 19.4091L34.6954 19.5557ZM34.7687 19.2096C34.7663 19.2156 34.7639 19.2204 34.7627 19.2264L34.7687 19.2096Z" fill="#665135"/>
<path fill-rule="evenodd" clip-rule="evenodd" d="M15.623 9.17339C15.7072 9.04241 16.9869 9.06885 17.4207 9.04962C18.5046 9.00035 19.5921 8.93907 20.6676 9.13374C21.4559 9.27553 22.1889 9.63603 22.9964 9.6829C23.9686 9.73937 24.9179 9.44497 25.878 9.35845C26.8333 9.27313 27.7706 9.38488 28.7247 9.34763C30.1559 9.28995 31.4393 9.06164 32.8897 9.23468C33.7609 9.33682 34.5696 9.53749 35.2882 10.0446C35.3446 10.0855 35.8601 10.4568 35.8529 10.5397C35.8457 10.613 35.1283 10.8521 35.0574 10.8858C34.1634 11.3027 33.3259 11.7534 32.4895 12.2773C29.8915 13.9031 27.0568 15.0531 23.9722 15.2478C22.6756 15.3295 21.1411 15.249 20.0596 14.4222" fill="#665135" fill-opacity="0.902"/>
<path fill-rule="evenodd" clip-rule="evenodd" d="M21.2166 19.2554C-1.47072 38.0421 -4.12398 56.991 28.1814 56.6509C51.6245 56.4046 57.3648 36.0629 33.298 19.7697C32.9567 17.358 33.6357 15.2983 35.902 11.3449C36.4259 9.38135 33.2463 9.53877 29.2725 12.3014C28.8255 11.0817 28.0047 10.4893 26.6625 10.7717C24.455 10.4292 22.5708 11.0625 20.8501 12.2004C20.5593 9.88485 18.341 9.31046 15.6613 9.15063C17.0528 13.336 18.907 16.7006 21.2166 19.2554Z" fill="#F68F27"/>
<mask id="mask0_154_11117" style="mask-type:luminance" maskUnits="userSpaceOnUse" x="11" y="9" width="26" height="12">
<path d="M11.5703 9.01587H36.4879V20.7056H11.5703V9.01587Z" fill="white"/>
</mask>
<g mask="url(#mask0_154_11117)">
<mask id="mask1_154_11117" style="mask-type:luminance" maskUnits="userSpaceOnUse" x="-1" y="5" width="52" height="56">
<path d="M-0.782227 11.4263L43.8365 5.11279L50.7208 53.8003L6.10327 60.1138L-0.782227 11.4263Z" fill="white"/>
</mask>
<g mask="url(#mask1_154_11117)">
<mask id="mask2_154_11117" style="mask-type:luminance" maskUnits="userSpaceOnUse" x="4" y="9" width="45" height="48">
<path fill-rule="evenodd" clip-rule="evenodd" d="M21.2166 19.2551C-1.47072 38.0418 -4.12398 56.9908 28.1814 56.6507C51.6245 56.4044 57.3648 36.0627 33.298 19.7694C32.9567 17.3577 33.6357 15.2981 35.902 11.3446C36.4259 9.38111 33.2463 9.53853 29.2725 12.3011C28.8255 11.0815 28.0047 10.489 26.6625 10.7714C24.455 10.429 22.5708 11.0622 20.8501 12.2002C20.5593 9.8846 18.341 9.31021 15.6613 9.15039C17.0528 13.3358 18.907 16.7004 21.2166 19.2551Z" fill="white"/>
</mask>
<g mask="url(#mask2_154_11117)">
<path fill-rule="evenodd" clip-rule="evenodd" d="M16.0484 8.51593C15.9955 8.49791 16.0532 8.79111 16.0544 8.79592C16.1085 9.11316 16.207 9.42439 16.3067 9.72961C16.5807 10.578 16.9184 11.4119 17.2765 12.2279C18.2546 14.4605 19.4695 16.6055 21.0917 18.432C21.3573 18.7312 21.6325 19.0232 21.9233 19.2972C22.1035 19.4666 22.291 19.6289 22.4857 19.7791C24.3374 21.2078 23.5131 17.9982 23.3737 17.1823C23.3545 17.0669 23.1286 15.9494 23.4434 15.9866C23.7138 16.0191 23.9469 16.4697 24.0622 16.668C24.49 17.4058 24.8061 18.2241 25.1089 19.0196C25.1533 19.1386 25.4225 20.1444 25.6064 20.1227C25.7506 20.1047 25.7638 19.3164 25.7734 19.2179C25.8323 18.5558 25.9044 17.8937 25.9729 17.2328C25.9885 17.0777 25.9705 16.5634 26.1303 16.4601C26.23 16.3964 26.385 17.0513 26.3971 17.097C26.5749 17.8264 26.6494 18.5738 26.772 19.3116C26.7804 19.3609 26.8873 20.1504 27.046 20.0278C27.3812 19.7707 27.4846 18.7108 27.5495 18.3407C27.9051 16.3183 27.5627 14.3091 26.8092 12.4249C26.5689 11.8193 26.3057 11.2197 26.0282 10.6296C25.9777 10.5191 25.7133 10.1117 25.7902 9.97955C25.8335 9.90745 26.1087 10.2523 26.1267 10.274C26.4884 10.7258 26.76 11.2449 27.0448 11.7472C28.0686 13.5545 28.7499 15.5685 29.0011 17.6341C29.0828 18.307 29.1188 18.9884 29.1392 19.6637C29.1404 19.7202 29.1849 20.5698 29.1969 20.5637C29.3003 20.5181 29.3375 19.9845 29.3555 19.892C29.4745 19.2311 29.5766 18.5666 29.7172 17.9105C29.7437 17.7843 29.8098 17.1931 30.0032 17.1703C30.1474 17.1534 30.2388 17.6846 30.2616 17.7699C30.419 18.3767 30.5332 18.9932 30.7098 19.594C30.7374 19.6853 30.8444 20.2129 31.0102 19.9882C31.2806 19.6192 31.3563 19.0028 31.4921 18.5738C31.7565 17.7483 32.0617 16.9371 32.5075 16.1897C33.2008 15.0313 34.441 14.3968 35.0959 13.2409C35.4684 12.5835 35.657 11.8313 35.77 11.0899C35.8096 10.8303 35.8493 10.5708 35.8745 10.31C35.8781 10.2824 35.907 9.88342 35.9382 9.89544C36.074 9.94711 36.1221 10.6729 36.1401 10.7919C36.2855 11.7364 36.2843 12.7133 36.0752 13.6494C35.6847 15.3978 34.7221 16.9876 33.9615 18.5942C33.7548 19.0304 33.6106 20.1035 33.1732 20.3931C32.8307 20.619 32.1494 20.4916 31.7709 20.4892C30.5103 20.4844 29.2498 20.422 27.9905 20.4063C25.0788 20.3703 22.0603 20.0158 19.4311 18.6832C15.8525 16.8699 13.1019 12.8707 11.708 9.2153" fill="#665135" fill-opacity="0.2118"/>
</g>
</g>
</g>
<mask id="mask3_154_11117" style="mask-type:luminance" maskUnits="userSpaceOnUse" x="31" y="18" width="18" height="39">
<path d="M31.2578 18.2446H48.7924V56.0824H31.2578V18.2446Z" fill="white"/>
</mask>
<g mask="url(#mask3_154_11117)">
<mask id="mask4_154_11117" style="mask-type:luminance" maskUnits="userSpaceOnUse" x="-1" y="5" width="52" height="56">
<path d="M-0.782227 11.4265L43.8365 5.11304L50.7208 53.8006L6.10327 60.1141L-0.782227 11.4265Z" fill="white"/>
</mask>
<g mask="url(#mask4_154_11117)">
<mask id="mask5_154_11117" style="mask-type:luminance" maskUnits="userSpaceOnUse" x="4" y="9" width="45" height="48">
<path fill-rule="evenodd" clip-rule="evenodd" d="M21.2166 19.2554C-1.47072 38.0421 -4.12398 56.991 28.1814 56.6509C51.6245 56.4046 57.3648 36.0629 33.298 19.7697C32.9567 17.358 33.6357 15.2983 35.902 11.3449C36.4259 9.38135 33.2463 9.53877 29.2725 12.3014C28.8255 11.0817 28.0047 10.4893 26.6625 10.7717C24.455 10.4292 22.5708 11.0625 20.8501 12.2004C20.5593 9.88485 18.341 9.31046 15.6613 9.15063C17.0528 13.336 18.907 16.7006 21.2166 19.2554Z" fill="white"/>
</mask>
<g mask="url(#mask5_154_11117)">
<path fill-rule="evenodd" clip-rule="evenodd" d="M31.3467 20.6733C31.3575 20.4558 32.7983 22.3267 32.9353 22.5743C33.9531 24.408 34.6753 26.3907 35.6738 28.2401C35.6991 28.287 36.044 29.008 36.1245 28.9767C36.807 28.7172 35.4215 22.9107 34.8111 21.7584C34.4013 20.9857 33.8654 20.2875 33.2489 19.6699C33.2477 19.6687 33.1287 19.5545 33.166 19.5449C33.5169 19.4512 37.1711 23.395 37.4895 23.7495C42.1472 28.9202 46.2196 35.6063 46.4227 42.7417C46.5152 45.9886 45.8146 49.0936 44.2176 51.932C43.4678 53.2658 42.3815 54.3809 41.6305 55.6968C41.5968 55.7544 41.4875 55.9563 41.5572 56.0368C41.759 56.2699 43.0496 54.995 43.1554 54.894C44.7908 53.3391 46.3253 51.6508 47.5883 49.775C51.0827 44.579 51.5706 37.565 48.4439 32.059C47.08 29.6568 45.1501 27.4782 43.0977 25.6313C40.8338 23.5933 36.9464 21.6478 35.9106 18.5427" fill="#665135" fill-opacity="0.302"/>
</g>
</g>
</g>
<mask id="mask6_154_11117" style="mask-type:luminance" maskUnits="userSpaceOnUse" x="3" y="18" width="26" height="23">
<path d="M3.87988 18.2446H28.4898V40.7012H3.87988V18.2446Z" fill="white"/>
</mask>
<g mask="url(#mask6_154_11117)">
<mask id="mask7_154_11117" style="mask-type:luminance" maskUnits="userSpaceOnUse" x="-1" y="5" width="52" height="56">
<path d="M-0.78125 11.4265L43.8375 5.11304L50.7218 53.8006L6.10424 60.1141L-0.78125 11.4265Z" fill="white"/>
</mask>
<g mask="url(#mask7_154_11117)">
<mask id="mask8_154_11117" style="mask-type:luminance" maskUnits="userSpaceOnUse" x="4" y="9" width="45" height="48">
<path fill-rule="evenodd" clip-rule="evenodd" d="M21.2175 19.2554C-1.46975 38.0421 -4.12301 56.991 28.1823 56.6509C51.6255 56.4046 57.3658 36.0629 33.299 19.7697C32.9577 17.358 33.6367 15.2983 35.903 11.3449C36.4269 9.38135 33.2473 9.53877 29.2734 12.3014C28.8264 11.0817 28.0057 10.4893 26.6634 10.7717C24.456 10.4292 22.5718 11.0625 20.851 12.2004C20.5602 9.88485 18.342 9.31046 15.6623 9.15063C17.0538 13.336 18.908 16.7006 21.2175 19.2554Z" fill="white"/>
</mask>
<g mask="url(#mask8_154_11117)">
<path fill-rule="evenodd" clip-rule="evenodd" d="M27.5844 19.9944C27.1422 20.1326 27.7983 26.0135 27.5616 26.118C27.2047 26.2754 25.8925 23.3374 25.5596 21.5445C25.4995 21.2177 25.4635 20.886 25.4719 20.5531C25.4719 20.5327 25.5019 20.1109 25.4971 20.1109C25.4503 20.1109 25.3541 20.5459 25.3433 20.5808C25.0249 21.6466 24.6932 23.0334 24.09 23.967C24.0515 24.0247 23.9842 24.1245 23.9013 24.1161C23.4519 24.0692 23.5168 20.6433 23.5745 19.9908C23.5853 19.8838 23.5348 19.8634 23.4363 19.8898C18.858 21.1383 10.6158 30.2649 7.99499 33.9011C6.45687 36.0365 3.67623 40.6172 3.44071 40.5824C3.19917 40.5487 3.61975 39.2317 3.64859 39.1344C3.84086 38.4855 4.07278 37.8498 4.32272 37.2213C5.60249 33.9997 7.16705 30.9595 9.19424 28.1404C10.2361 26.6912 11.4017 25.3502 12.6526 24.0788C13.4962 23.2196 14.3481 22.3664 15.2506 21.5697C16.2768 20.6661 18.7138 18.0645 20.3937 18.4851C21.1255 18.6677 21.7864 19.2037 22.541 19.4104C24.4036 19.9235 26.438 20.0052 28.3619 20.1241" fill="#665135" fill-opacity="0.302"/>
</g>
</g>
</g>
<path fill-rule="evenodd" clip-rule="evenodd" d="M19.5258 18.8647C19.4273 18.8202 19.3107 18.8202 19.2086 18.8755C19.0355 18.968 18.9694 19.1843 19.0632 19.3573C19.1052 19.4379 19.2254 19.552 19.4261 19.6169C19.664 19.6926 20.0786 19.7467 20.1723 19.7695C20.6121 19.8765 21.0543 19.9786 21.4965 20.0759C21.9399 20.1709 22.3846 20.261 22.8292 20.3463C24.336 20.6335 25.879 20.8714 27.4291 20.9856C28.9901 21.0985 30.5582 21.0853 32.1 20.8678C32.6755 20.7861 33.4722 20.69 34.1716 20.4557C34.7003 20.2778 35.1726 20.0183 35.485 19.6494L35.4826 19.6481C35.5259 19.5977 35.5475 19.5472 35.5571 19.5148C35.6016 19.3537 35.5283 19.1819 35.3817 19.1038C35.2675 19.0437 35.1341 19.0509 35.0284 19.1146C34.9214 19.1278 34.4179 19.1867 34.3735 19.1915C33.8868 19.2552 33.3965 19.3117 32.9063 19.3622C32.4172 19.4126 31.9269 19.4559 31.4354 19.4907C29.8805 19.6013 28.3448 19.5628 26.8163 19.4523C24.4959 19.284 22.1887 18.9524 19.8539 18.7145C19.7217 18.7 19.5967 18.7625 19.5258 18.8647ZM25.3166 20.0387C26.034 20.1396 26.7574 20.2213 27.4808 20.2742C28.9877 20.3836 30.4993 20.3715 31.9882 20.1637C31.82 20.1769 31.6529 20.1901 31.4871 20.2021C29.8973 20.3139 28.328 20.2766 26.7646 20.1637C26.2815 20.1288 25.7985 20.0856 25.3166 20.0387Z" fill="#665135"/>
<path fill-rule="evenodd" clip-rule="evenodd" d="M36.7754 34.032C36.1697 33.8397 35.6254 34.0019 35.1675 34.3564C34.6556 34.753 34.2675 35.4247 34.068 35.8225C33.6186 36.7129 33.186 38.71 32.292 39.9874C31.8546 40.6123 31.2838 41.0413 30.4438 40.7769C30.0665 40.6591 29.6627 40.8682 29.545 41.2479C29.426 41.6253 29.6363 42.0278 30.0136 42.1468C31.2081 42.5205 32.1309 42.196 32.8664 41.5099C33.5333 40.8898 34.0332 39.9237 34.4213 38.942C34.801 37.983 35.0714 37.0157 35.3478 36.4689C35.4631 36.2406 35.6566 35.8693 35.9246 35.5989C36.0435 35.4788 36.1697 35.3454 36.3416 35.4007C36.7177 35.5196 37.1214 35.3105 37.2416 34.9332C37.3618 34.5559 37.1527 34.1522 36.7754 34.032Z" fill="#665135"/>
<path fill-rule="evenodd" clip-rule="evenodd" d="M24.8832 37.1756C25.3014 36.5555 26.1065 35.6627 26.9789 34.7542C28.4798 33.1897 30.1813 31.5855 30.5863 31.1961C30.8711 30.9221 30.8807 30.4679 30.6067 30.1807C30.3327 29.8959 29.8785 29.8875 29.5925 30.1615C29.1827 30.5556 27.462 32.1779 25.9443 33.7605C25.4324 34.294 24.9445 34.8239 24.5335 35.3034C24.5251 34.9729 24.5167 34.6401 24.5071 34.3096C24.4626 32.8989 24.3977 31.4893 24.3232 30.0762C24.3016 29.6808 23.9627 29.378 23.5686 29.3984C23.172 29.4201 22.8692 29.7577 22.8896 30.1531C22.9654 31.5542 23.0302 32.9529 23.0723 34.3529C23.1156 35.7492 23.1372 37.1443 23.124 38.5442C23.1156 39.5248 23.1083 40.7385 23.5782 41.4595C23.8822 41.9209 24.3388 42.2453 25.0502 42.2994C25.3302 42.3211 25.6126 42.3174 25.8914 42.285C26.1762 42.2526 26.4574 42.1889 26.7325 42.0927C26.908 42.0303 27.0822 41.957 27.2517 41.8716C27.4235 41.7851 27.5905 41.6866 27.7491 41.5724C27.8681 41.4883 27.9811 41.3958 28.088 41.2948C28.1938 41.1963 28.2935 41.0894 28.386 40.974C29.0722 40.1268 29.0013 39.4707 28.6792 38.972C28.4774 38.6596 28.1169 38.3844 27.6446 38.1693C27.0378 37.8929 26.2194 37.6947 25.5417 37.4676C25.4215 37.4279 25.3062 37.3858 25.1992 37.3438C25.0959 37.3005 24.9685 37.2272 24.8832 37.1756ZM24.5575 38.6284C24.5515 39.1463 24.5239 39.7411 24.6248 40.241C24.6873 40.5558 24.7967 40.8406 25.1596 40.8683C25.3482 40.8839 25.5381 40.8815 25.7256 40.8598C25.9046 40.8382 26.0824 40.7998 26.2567 40.7385C26.3757 40.6976 26.4922 40.6483 26.6064 40.5919C26.7133 40.5366 26.8179 40.4753 26.9176 40.4044L27.2721 40.0704C27.3442 39.9826 27.3983 39.9009 27.4367 39.824C27.4487 39.8 27.4595 39.7639 27.4656 39.7435C27.4295 39.7123 27.2925 39.5969 27.182 39.5404C26.9813 39.4347 26.7434 39.3458 26.4898 39.2616C25.8337 39.0441 25.0971 38.8615 24.5575 38.6284Z" fill="#665135"/>
<path fill-rule="evenodd" clip-rule="evenodd" d="M19.0578 34.7627C18.9616 34.7519 18.8523 34.7603 18.7297 34.8012C18.6384 34.8324 18.386 34.9994 18.3608 35.0175L17.9102 35.3719C17.7059 35.5474 17.5076 35.7336 17.3178 35.9295C17.1303 36.123 16.9488 36.3261 16.777 36.5376C16.1245 37.3463 15.323 38.7618 15.2389 39.9671C15.1656 41.0354 15.5609 41.9751 16.8143 42.4389C17.7708 42.7922 19.0061 42.6612 19.983 42.0868C20.9263 41.5304 21.6269 40.5823 21.6521 39.3146C21.6666 38.6441 21.52 37.988 21.2724 37.3655C20.9215 36.4787 20.3628 35.6652 19.8196 34.997C19.6309 34.7663 19.3269 34.6822 19.0578 34.7627ZM19.0277 36.3153L18.8451 36.4594C18.6732 36.6073 18.5062 36.7635 18.3464 36.9281C18.189 37.0915 18.0375 37.2622 17.8934 37.44C17.3887 38.0637 16.735 39.1379 16.6701 40.0668C16.6388 40.5078 16.7938 40.9008 17.3117 41.093C17.8994 41.3105 18.6552 41.2024 19.2548 40.8491C19.7908 40.5343 20.2041 40.0055 20.2186 39.2857C20.2318 38.6813 20.0503 38.0937 19.7884 37.5494C19.5757 37.1059 19.3065 36.6914 19.0277 36.3153ZM18.2587 35.4693C18.2526 35.6531 18.3079 35.7913 18.386 35.8971C18.3019 35.7745 18.255 35.6267 18.2587 35.4693Z" fill="#665135"/>
<path fill-rule="evenodd" clip-rule="evenodd" d="M36.4066 33.3591L36.4187 33.3687L36.4235 33.3699L36.4307 33.3735L36.4355 33.3784L36.4379 33.3796C36.6854 33.5214 37.0063 33.5093 37.2442 33.3183C37.553 33.0731 37.6035 32.6201 37.3572 32.3101C37.2418 32.1671 37.1276 32.1118 37.0399 32.0806C37.0207 32.0734 36.9991 32.0661 36.9786 32.0625C36.7359 31.9892 36.4643 32.0493 36.2709 32.238C35.9885 32.5156 35.9849 32.971 36.2624 33.251C36.3069 33.2978 36.3562 33.3339 36.4066 33.3591ZM36.4127 33.3627C36.3466 33.3219 36.2877 33.269 36.236 33.2041C36.2937 33.2786 36.3526 33.3255 36.4066 33.3591L36.4127 33.3627L36.4187 33.3687L36.4307 33.3735L36.4379 33.3796C36.4739 33.3988 36.5088 33.412 36.54 33.424C36.6302 33.4577 36.7599 33.4625 36.8428 33.4601C36.7443 33.4601 36.5713 33.448 36.4127 33.3627ZM36.6782 32.0445C36.6578 32.0469 36.6458 32.0481 36.6458 32.0481L36.6782 32.0445Z" fill="#665135"/>
<path fill-rule="evenodd" clip-rule="evenodd" d="M17.4523 32.9038C17.3249 33.0756 17.2768 33.3051 17.3405 33.5274C17.4499 33.9072 17.8476 34.1271 18.2273 34.0177C18.3031 33.9961 18.3812 33.96 18.4545 33.9072C18.5266 33.8531 18.672 33.6524 18.672 33.6524C18.672 33.6524 18.6599 33.674 18.6551 33.6824C18.857 33.3424 18.7453 32.9026 18.4052 32.6995C18.0807 32.5072 17.6662 32.5998 17.4523 32.9038ZM17.719 32.6827L17.7118 32.6851L17.7214 32.6803L17.719 32.6827ZM17.7467 32.6694L17.7383 32.6731L17.7539 32.6658L17.7467 32.6694ZM17.7743 32.6574L17.7683 32.661L17.7875 32.6526L17.7743 32.6574ZM17.7984 32.649L17.8308 32.6394C17.8212 32.6418 17.8092 32.6454 17.7984 32.649Z" fill="#665135"/>
<path fill-rule="evenodd" clip-rule="evenodd" d="M20.595 33.6463H20.5962L20.5998 33.6379L20.6046 33.6307C20.7645 33.3122 20.6695 32.9181 20.3679 32.7126C20.0399 32.4903 19.5928 32.5756 19.3705 32.9037C19.3429 32.9457 19.3189 32.9878 19.3008 33.0322C19.2768 33.0875 19.2588 33.1476 19.248 33.2149C19.1903 33.6066 19.4619 33.9707 19.8536 34.0296C20.1648 34.0753 20.4592 33.9131 20.595 33.6463Z" fill="#665135"/>
<path fill-rule="evenodd" clip-rule="evenodd" d="M19.8492 19.4571C19.9597 19.54 20.1147 19.5545 20.2421 19.4787C20.4128 19.379 20.4692 19.1615 20.3695 18.9909C20.1832 18.6712 19.9958 18.3624 19.7879 18.0596C19.6497 17.8565 19.5019 17.657 19.3409 17.4612C19.0585 17.1187 18.7521 16.769 18.3952 16.4998C18.1344 16.3016 17.8472 16.1466 17.5228 16.0612C17.0217 15.9279 16.6516 16.0901 16.4112 16.3773C16.0916 16.757 16.0183 17.4131 16.2442 17.9214C16.4617 18.4093 16.8727 18.7878 17.3726 19.0582C18.0479 19.4235 18.8842 19.5929 19.5488 19.6097C19.6725 19.6121 19.7831 19.552 19.8492 19.4571ZM19.4791 18.8935C19.4202 18.7962 19.3589 18.7001 19.2952 18.6051C19.1402 18.3708 18.9756 18.1389 18.7905 17.9154C18.543 17.615 18.2786 17.305 17.9662 17.0682C17.7775 16.9264 17.572 16.8123 17.3389 16.7498C17.1202 16.6909 16.9676 16.781 16.8943 16.9348C16.7958 17.1367 16.797 17.4107 16.8955 17.6318C17.0914 18.0704 17.518 18.366 17.995 18.5667C18.4793 18.7698 19.0212 18.8719 19.4791 18.8935Z" fill="#665135"/>
<path fill-rule="evenodd" clip-rule="evenodd" d="M20.1229 19.3863C20.7033 19.3827 21.3281 19.3094 21.8809 19.0907C22.3015 18.9261 22.6812 18.6798 22.9792 18.3253C23.3061 17.9371 23.4599 17.2594 23.288 16.7751C23.1522 16.3906 22.847 16.0998 22.2979 16.0938C21.8364 16.0902 21.3966 16.3197 21.0157 16.6706C20.5398 17.108 20.1493 17.7304 19.903 18.163C19.8681 18.2255 19.5148 18.7999 19.4511 19.0439C19.3802 19.3154 19.5172 19.4753 19.629 19.5377C19.8008 19.6351 20.0171 19.5738 20.1145 19.402L20.1229 19.3863ZM20.4413 18.6629C20.7537 18.6449 21.071 18.5992 21.3726 18.5115C21.7787 18.3926 22.1573 18.1955 22.4337 17.8662C22.5875 17.6848 22.6728 17.3916 22.6439 17.1404C22.6331 17.0419 22.6055 16.9494 22.5394 16.8857C22.4817 16.8316 22.3988 16.8088 22.2907 16.8076C22.0011 16.804 21.7379 16.9758 21.4976 17.1957C21.0782 17.5802 20.7393 18.1342 20.523 18.5163C20.5146 18.5296 20.4834 18.5872 20.4413 18.6629Z" fill="#665135"/>
<path fill-rule="evenodd" clip-rule="evenodd" d="M19.7405 19.6337C19.8667 19.6061 19.9725 19.5099 20.0085 19.3766C20.0686 19.1494 19.9989 19.0257 19.9665 18.9776C19.9148 18.9007 19.8451 18.8562 19.767 18.8334C19.6877 18.8094 19.5591 18.7986 19.4209 18.8995C19.3452 18.9548 19.207 19.1218 19.1049 19.2864C19.0208 19.4198 18.9607 19.5532 18.9475 19.6157C18.897 19.838 18.8778 20.0723 18.8778 20.3102C18.8778 20.6383 18.9138 20.9712 18.9499 21.28C18.9919 21.6513 19.0556 22.0178 19.0892 22.3891C19.1109 22.6186 19.1217 22.8481 19.1061 23.0813C19.0832 23.4514 19.0171 23.8155 18.9294 24.176C18.7924 24.7347 18.6002 25.2839 18.4151 25.8258C18.3526 26.0109 18.4524 26.214 18.6386 26.2777C18.8237 26.3402 19.0268 26.2404 19.0904 26.0554C19.2815 25.4942 19.4798 24.9246 19.6228 24.3454C19.7201 23.9453 19.7922 23.5391 19.8187 23.1269C19.8355 22.8566 19.8235 22.5898 19.7994 22.3218C19.7646 21.9469 19.7009 21.5744 19.6588 21.1983C19.6252 20.9159 19.5903 20.6107 19.5903 20.3114C19.5903 20.1264 19.6048 19.9437 19.6432 19.7707C19.642 19.7743 19.6408 19.7863 19.6408 19.7863L19.7405 19.6337Z" fill="#665135"/>
<path fill-rule="evenodd" clip-rule="evenodd" d="M19.7952 19.0355C19.806 18.8841 19.7219 18.7375 19.5753 18.6774C19.3938 18.6017 19.1859 18.6894 19.1102 18.8709C19.079 18.9454 19.0634 19.0823 19.1126 19.247C19.1667 19.4344 19.3121 19.7192 19.3398 19.7961C19.4503 20.1122 19.5488 20.4318 19.6378 20.7538C19.7267 21.0783 19.806 21.4063 19.8817 21.738C20.1665 22.9865 20.5054 24.4081 20.5823 25.802C20.6327 26.7117 20.5727 27.6069 20.3035 28.4336C20.241 28.6199 20.3431 28.8218 20.5306 28.8831C20.7181 28.9443 20.9187 28.8422 20.98 28.6547C21.278 27.7475 21.3501 26.7609 21.2949 25.7636C21.2143 24.3276 20.8683 22.8652 20.5775 21.5794C20.4994 21.2381 20.4164 20.9005 20.3239 20.5652C20.2326 20.2275 20.1293 19.8911 20.0115 19.5582C19.9863 19.4897 19.8264 19.11 19.7952 19.0355Z" fill="#665135"/>
<path fill-rule="evenodd" clip-rule="evenodd" d="M23.3103 47.1769C23.3127 47.1757 23.3163 47.1745 23.3199 47.1745C23.3271 47.1745 23.3343 47.1769 23.3379 47.1829C23.3836 47.2971 23.3619 47.4173 23.3199 47.5302C23.261 47.6852 23.1601 47.8294 23.0579 47.946C23.0207 47.9893 22.7215 48.2428 22.647 48.3714C22.5412 48.554 22.5857 48.709 22.6482 48.8028C22.7082 48.8929 22.8236 48.9794 22.9918 49.0167C23.1805 49.0587 23.4965 49.0347 23.6011 49.0455L24.0661 49.12C24.2596 49.1573 24.447 49.0299 24.4831 48.8364C24.5203 48.643 24.3918 48.4567 24.1995 48.4194L23.672 48.3353L23.6624 48.3341C23.8234 48.1311 23.97 47.8823 24.0361 47.624C24.095 47.3896 24.0913 47.1469 23.9976 46.9138C23.8907 46.6542 23.6684 46.5028 23.4268 46.4692C23.1913 46.4355 22.9378 46.5148 22.7611 46.7155C22.6734 46.814 22.564 47.0339 22.5664 47.207C22.57 47.3668 22.6373 47.505 22.7803 47.5975C22.945 47.7057 23.1661 47.6588 23.273 47.4942C23.3367 47.3968 23.3463 47.2791 23.3103 47.1769Z" fill="#665135"/>
<path fill-rule="evenodd" clip-rule="evenodd" d="M24.3613 48.5819C24.2916 48.7573 24.3697 48.958 24.544 49.0385C24.723 49.1202 24.9345 49.0421 25.0162 48.8631C25.039 48.8138 25.0571 48.7621 25.0691 48.7093C25.0799 48.6636 25.0847 48.6167 25.0835 48.5699C25.0835 48.5158 25.0499 48.3884 25.0354 48.3584C24.9874 48.2622 24.9225 48.2214 24.8876 48.201C24.7302 48.1144 24.5908 48.1373 24.4671 48.255C24.4394 48.2803 24.3589 48.3488 24.3565 48.5098C24.3553 48.535 24.3577 48.559 24.3613 48.5819ZM24.8852 48.8282C24.8119 48.8751 24.7314 48.8883 24.6449 48.8667C24.6641 48.8703 24.6846 48.8727 24.705 48.8727C24.7711 48.8751 24.8324 48.8583 24.8852 48.8282ZM25.0679 48.5446C25.0619 48.6179 25.033 48.6864 24.9898 48.7405C25.021 48.7056 25.0607 48.6456 25.0679 48.5446Z" fill="#665135"/>
<path fill-rule="evenodd" clip-rule="evenodd" d="M25.7578 47.3393C25.7566 47.3285 25.7542 47.3081 25.7542 47.2961C25.7542 47.2612 25.7542 47.2252 25.7554 47.1855L25.7542 47.0665C25.7602 47.0221 25.7566 46.9764 25.7446 46.9295C25.6929 46.7397 25.497 46.6279 25.3072 46.6796C25.2723 46.688 25.0548 46.7649 25.0416 47.0209C25.0404 47.0605 25.0428 47.1615 25.0428 47.1699C25.0392 47.3465 25.0464 47.4919 25.0993 47.6205C25.145 47.7299 25.2195 47.8332 25.354 47.9281C25.4382 47.987 25.5283 48.0291 25.6244 48.0591C25.7314 48.0928 25.8455 48.1096 25.9561 48.1324C26.0222 48.1456 26.0919 48.1504 26.1375 48.2105L26.0943 48.2526C25.9993 48.3091 25.8924 48.3343 25.7842 48.3451C25.6472 48.3595 25.5079 48.3511 25.3745 48.3379C25.1786 48.3187 25.0044 48.4617 24.9851 48.6575C24.9659 48.8534 25.1089 49.0288 25.3048 49.0469C25.5235 49.0697 25.7554 49.0769 25.9753 49.0385C26.1459 49.0096 26.3094 48.9543 26.4596 48.8654C26.6374 48.7585 26.7672 48.5914 26.8213 48.4088C26.8813 48.2033 26.8561 47.9774 26.7035 47.7779C26.5954 47.6361 26.4644 47.5508 26.319 47.4955C26.218 47.4571 26.1099 47.4354 25.9993 47.415C25.9188 47.3994 25.8335 47.3934 25.7662 47.3465L25.7578 47.3393Z" fill="#665135"/>
<path fill-rule="evenodd" clip-rule="evenodd" d="M25.5047 47.2899C25.5263 47.2911 25.5528 47.2923 25.5576 47.2923L25.8087 47.2983L26.6415 47.3428C26.8386 47.3524 27.0056 47.201 27.0164 47.0051C27.0272 46.808 26.8758 46.6398 26.6787 46.6302L25.8316 46.5857L25.5696 46.5797C25.5492 46.5797 25.4134 46.5737 25.3701 46.5833C25.1598 46.6242 25.0986 46.7792 25.0805 46.8657C25.0637 46.9547 25.0625 47.0712 25.1767 47.189C25.2644 47.2791 25.3894 47.3127 25.5047 47.2899ZM25.703 46.7083C25.7595 46.7744 25.7871 46.8561 25.7883 46.9378C25.7907 46.8681 25.7739 46.7876 25.703 46.7083Z" fill="#665135"/>
<path fill-rule="evenodd" clip-rule="evenodd" d="M28.0937 46.9199C28.0829 46.9595 28.0721 47.004 28.0697 47.028L28.036 47.5051L27.9423 48.762L27.9038 49.2235L27.893 49.3412C27.8906 49.3629 27.8822 49.4169 27.881 49.4326C27.8774 49.4806 27.8834 49.5143 27.8858 49.5287C27.9086 49.6464 27.9711 49.7065 28.0108 49.7378C28.0985 49.8099 28.1946 49.8327 28.3004 49.8135C28.3208 49.8099 28.5143 49.7991 28.5828 49.5527C28.6693 49.2331 28.7798 48.7933 28.9613 48.4208C29.0634 48.2129 29.1824 48.023 29.3494 47.9173C29.5165 47.8103 29.5645 47.5904 29.4588 47.4246C29.353 47.2588 29.1331 47.2095 28.9673 47.3152C28.8904 47.3633 28.8195 47.421 28.751 47.4871L28.7786 47.1049C28.7919 47.0569 28.8291 46.9211 28.8267 46.873C28.8231 46.7757 28.7883 46.7 28.7378 46.6411C28.6801 46.5726 28.5984 46.5149 28.4686 46.5053C28.2727 46.4933 28.1033 46.6423 28.0901 46.8382C28.0877 46.8658 28.0901 46.8935 28.0937 46.9199ZM28.2667 47.1698C28.3028 47.1927 28.3472 47.2095 28.4013 47.2155C28.3533 47.2095 28.3076 47.1939 28.2667 47.1698Z" fill="#665135"/>
<path fill-rule="evenodd" clip-rule="evenodd" d="M28.1409 48.4604L28.1433 48.4784L28.1722 48.6009L28.3007 48.9254C28.4053 49.1417 28.5351 49.3484 28.7117 49.4878C28.8559 49.6019 29.0301 49.6776 29.2452 49.6884C29.4423 49.6993 29.6105 49.5479 29.6202 49.352C29.631 49.1561 29.4796 48.9879 29.2837 48.9771C29.214 48.9735 29.1623 48.941 29.1203 48.8978C29.0446 48.8221 28.9929 48.7187 28.9424 48.6166L28.8595 48.4123L28.8439 48.3438C28.8367 48.3089 28.8186 48.2236 28.8102 48.2044C28.7538 48.0782 28.6612 48.0326 28.606 48.0121C28.5146 47.9785 28.4233 47.9797 28.3308 48.0229C28.2887 48.0434 28.1758 48.0902 28.1337 48.2657C28.1169 48.333 28.1205 48.3991 28.1409 48.4604ZM28.8211 48.4531C28.8054 48.5048 28.779 48.5505 28.7441 48.5889C28.7718 48.5613 28.8018 48.5192 28.8211 48.4531Z" fill="#665135"/>
<path fill-rule="evenodd" clip-rule="evenodd" d="M30.2347 49.1345C30.2215 49.2318 30.2022 49.3388 30.171 49.4397C30.153 49.501 30.1313 49.5587 30.1025 49.6091C30.0929 49.626 30.0737 49.6488 30.0653 49.6584C30.0544 49.656 30.0376 49.6512 30.0256 49.6476C29.8442 49.5707 29.6351 49.6572 29.5594 49.8387C29.4825 50.0201 29.569 50.2292 29.7504 50.3049C30.0917 50.4467 30.3464 50.3662 30.5399 50.1919C30.6733 50.0718 30.7766 49.8879 30.8439 49.68C30.9208 49.4385 30.9533 49.1657 30.9677 48.9915L30.9917 48.6418L31.0098 48.2621C31.0122 48.2128 31.011 48.1143 31.0086 48.029L31.0302 47.898L31.0398 47.7958C31.0422 47.7538 31.0338 47.6504 31.0266 47.6276C30.9785 47.4678 30.8656 47.4113 30.785 47.3873C30.7682 47.3825 30.7514 47.3789 30.7334 47.3765C30.6505 47.32 30.5507 47.3032 30.4414 47.3188C30.3741 47.3284 30.2948 47.3584 30.2179 47.4077C30.1181 47.4726 30.0184 47.5783 29.9896 47.612C29.855 47.7706 29.6459 48.1419 29.6206 48.4459C29.6014 48.6791 29.6723 48.8809 29.8357 49.0215C29.9547 49.1225 30.0881 49.1525 30.2215 49.1369L30.2347 49.1345ZM30.2659 47.9052L30.2563 47.892C30.2599 47.8968 30.2623 47.9016 30.2659 47.9052Z" fill="#665135"/>
<path fill-rule="evenodd" clip-rule="evenodd" d="M30.2956 69.4581C29.7079 57.373 35.5552 46.5425 43.4573 38.1525C45.6467 40.1208 43.9632 43.9793 41.3953 48.7679L48.9369 45.8131C49.7095 44.2701 50.1253 42.7753 50.1181 41.3369C48.92 38.805 48.5812 36.7261 50.1758 35.6639L52.549 39.4767C52.197 35.8297 52.0275 32.4206 54.2013 32.0913L55.6721 36.7261C56.416 33.3819 57.8459 31.2958 60.2541 31.0146L59.175 37.673C58.9635 35.3226 65.0571 32.7799 64.9321 33.0743C62.4879 38.8639 57.6104 49.6728 51.9566 53.899C41.8411 60.3591 38.891 65.9793 38.8586 71.9563L30.2956 69.4581Z" fill="#F4E8E0"/>
<mask id="mask9_154_11117" style="mask-type:luminance" maskUnits="userSpaceOnUse" x="42" y="30" width="21" height="18">
<path d="M42.9482 30.8572H62.9438V47.1613H42.9482V30.8572Z" fill="white"/>
</mask>
<g mask="url(#mask9_154_11117)">
<mask id="mask10_154_11117" style="mask-type:luminance" maskUnits="userSpaceOnUse" x="19" y="26" width="56" height="50">
<path d="M59.8938 26.1011L19.875 55.3518L34.4343 75.2837L74.4543 46.033L59.8938 26.1011Z" fill="white"/>
</mask>
<g mask="url(#mask10_154_11117)">
<mask id="mask11_154_11117" style="mask-type:luminance" maskUnits="userSpaceOnUse" x="30" y="31" width="35" height="41">
<path fill-rule="evenodd" clip-rule="evenodd" d="M30.2956 69.4581C29.7079 57.373 35.5552 46.5425 43.4573 38.1525C45.6467 40.1208 43.9632 43.9793 41.3953 48.7679L48.9369 45.8131C49.7095 44.2701 50.1253 42.7753 50.1181 41.3369C48.92 38.805 48.5812 36.7261 50.1758 35.6639L52.549 39.4767C52.197 35.8297 52.0275 32.4206 54.2013 32.0913L55.6721 36.7261C56.416 33.3819 57.8459 31.2958 60.2541 31.0146L59.175 37.673C58.9635 35.3226 65.0571 32.7799 64.9321 33.0743C62.4879 38.8639 57.6104 49.6728 51.9566 53.899C41.8411 60.3591 38.891 65.9793 38.8586 71.9563L30.2956 69.4581Z" fill="white"/>
</mask>
<g mask="url(#mask11_154_11117)">
<path fill-rule="evenodd" clip-rule="evenodd" d="M43.2314 47.0867C52.6981 44.8468 55.9149 43.5983 62.6743 31.1744C62.6743 31.1744 55.7924 27.7184 48.6677 32.2991C48.2123 32.5923 43.7674 47.5133 43.2314 47.0867Z" fill="#665135" fill-opacity="0.2784"/>
</g>
</g>
</g>
<mask id="mask12_154_11117" style="mask-type:luminance" maskUnits="userSpaceOnUse" x="50" y="31" width="5" height="15">
<path d="M50.6387 31.7803H54.0225V45.0081H50.6387V31.7803Z" fill="white"/>
</mask>
<g mask="url(#mask12_154_11117)">
<mask id="mask13_154_11117" style="mask-type:luminance" maskUnits="userSpaceOnUse" x="19" y="26" width="56" height="50">
<path d="M59.8938 26.1013L19.875 55.352L34.4343 75.2839L74.4543 46.0332L59.8938 26.1013Z" fill="white"/>
</mask>
<g mask="url(#mask13_154_11117)">
<mask id="mask14_154_11117" style="mask-type:luminance" maskUnits="userSpaceOnUse" x="30" y="31" width="35" height="41">
<path fill-rule="evenodd" clip-rule="evenodd" d="M30.2956 69.4583C29.7079 57.3732 35.5552 46.5427 43.4573 38.1527C45.6467 40.121 43.9632 43.9796 41.3953 48.7682L48.9369 45.8133C49.7095 44.2704 50.1253 42.7755 50.1181 41.3371C48.92 38.8052 48.5812 36.7264 50.1758 35.6641L52.549 39.477C52.197 35.8299 52.0275 32.4208 54.2013 32.0916L55.6721 36.7264C56.416 33.3822 57.8459 31.2961 60.2541 31.0149L59.175 37.6733C58.9635 35.3228 65.0571 32.7801 64.9321 33.0745C62.4879 38.8641 57.6104 49.673 51.9566 53.8992C41.8411 60.3594 38.891 65.9795 38.8586 71.9565L30.2956 69.4583Z" fill="white"/>
</mask>
<g mask="url(#mask14_154_11117)">
<path fill-rule="evenodd" clip-rule="evenodd" d="M51.0041 44.7666C51.5688 44.0625 51.9906 43.3643 52.2971 42.6673C52.5302 42.135 52.6972 41.6075 52.8126 41.086C52.9568 40.4287 53.0229 39.7846 53.0313 39.1609C53.0409 38.4976 52.9832 37.8583 52.9171 37.2503C52.8318 36.4452 52.7188 35.6965 52.6888 35.0104C52.6359 33.8123 52.8246 32.8126 53.8051 32.0519C53.8171 32.0435 53.8208 32.0267 53.8123 32.0147C53.8027 32.0026 53.7871 32.0002 53.7739 32.0086C52.8823 32.571 52.5134 33.3521 52.3752 34.2942C52.2358 35.2375 52.3343 36.343 52.3824 37.5591C52.3956 37.9052 52.404 38.2609 52.4064 38.6226C52.4088 38.9674 52.404 39.3183 52.3848 39.6764C52.3668 40.0177 52.3367 40.365 52.2874 40.7195C52.2177 41.2181 52.112 41.7288 51.9522 42.2516C51.7143 43.0266 51.3682 43.8269 50.8394 44.6477C50.807 44.6933 50.8166 44.757 50.8623 44.7895C50.9079 44.8219 50.9704 44.8123 51.0041 44.7666Z" fill="#665135" fill-opacity="0.5608"/>
</g>
</g>
</g>
<mask id="mask15_154_11117" style="mask-type:luminance" maskUnits="userSpaceOnUse" x="54" y="30" width="7" height="13">
<path d="M54.0225 30.8572H60.4826V42.8545H54.0225V30.8572Z" fill="white"/>
</mask>
<g mask="url(#mask15_154_11117)">
<mask id="mask16_154_11117" style="mask-type:luminance" maskUnits="userSpaceOnUse" x="19" y="26" width="56" height="50">
<path d="M59.8938 26.1011L19.875 55.3518L34.4343 75.2837L74.4543 46.033L59.8938 26.1011Z" fill="white"/>
</mask>
<g mask="url(#mask16_154_11117)">
<mask id="mask17_154_11117" style="mask-type:luminance" maskUnits="userSpaceOnUse" x="30" y="31" width="35" height="41">
<path fill-rule="evenodd" clip-rule="evenodd" d="M30.2956 69.4581C29.7079 57.373 35.5552 46.5425 43.4573 38.1525C45.6467 40.1208 43.9632 43.9793 41.3953 48.7679L48.9369 45.8131C49.7095 44.2701 50.1253 42.7753 50.1181 41.3369C48.92 38.805 48.5812 36.7261 50.1758 35.6639L52.549 39.4767C52.197 35.8297 52.0275 32.4206 54.2013 32.0913L55.6721 36.7261C56.416 33.3819 57.8459 31.2958 60.2541 31.0146L59.175 37.673C58.9635 35.3226 65.0571 32.7799 64.9321 33.0743C62.4879 38.8639 57.6104 49.6728 51.9566 53.899C41.8411 60.3591 38.891 65.9793 38.8586 71.9563L30.2956 69.4581Z" fill="white"/>
</mask>
<g mask="url(#mask17_154_11117)">
<path fill-rule="evenodd" clip-rule="evenodd" d="M54.421 42.6407C54.57 41.6613 54.7707 40.682 54.9954 39.7194C55.1468 39.0693 55.3127 38.4301 55.4917 37.8088C55.6467 37.2729 55.8101 36.7513 55.9832 36.249C56.1682 35.7167 56.3581 35.206 56.572 34.7277C56.9709 33.8325 57.4324 33.0478 57.9791 32.429C58.6196 31.7044 59.3646 31.2033 60.2406 31.011C60.2551 31.0098 60.2647 30.9954 60.2623 30.981C60.2599 30.9666 60.2467 30.9569 60.2322 30.9594C59.1339 31.0927 58.1786 31.6936 57.3567 32.62C56.8892 33.1476 56.4674 33.7808 56.0913 34.4946C55.839 34.9765 55.6047 35.492 55.4016 36.04C55.2105 36.5531 55.0447 37.0926 54.9041 37.6502C54.7407 38.2895 54.6109 38.9516 54.5075 39.6257C54.3561 40.6123 54.272 41.6205 54.2191 42.6202C54.2143 42.6767 54.254 42.726 54.3093 42.732C54.3657 42.7368 54.415 42.6971 54.421 42.6407Z" fill="#665135" fill-opacity="0.5608"/>
</g>
</g>
</g>
<path fill-rule="evenodd" clip-rule="evenodd" d="M24.3055 69.2874C24.8931 57.2023 19.0458 46.3718 11.1437 37.9818C8.95428 39.9502 10.6378 43.8087 13.2057 48.5973L5.66415 45.6424C4.89148 44.0995 4.47571 42.6046 4.48292 41.1662C5.68097 38.6343 6.01984 36.5555 4.42524 35.4932L2.05317 39.3061C2.40405 35.6602 2.57348 32.2511 0.399687 31.9207L-1.07114 36.5555C-1.81497 33.2113 -3.24494 31.1264 -5.65306 30.844L-4.57397 37.5024C-4.36248 35.1519 -10.4561 32.6092 -10.3311 32.9036C-7.88694 38.6932 -3.00941 49.5021 2.64438 53.7283C12.7599 60.1885 15.71 65.8086 15.7424 71.7856L24.3055 69.2874Z" fill="#F4E8E0"/>
<mask id="mask18_154_11117" style="mask-type:luminance" maskUnits="userSpaceOnUse" x="-9" y="30" width="21" height="18">
<path d="M-8.11719 30.5498H11.5708V47.1615H-8.11719V30.5498Z" fill="white"/>
</mask>
<g mask="url(#mask18_154_11117)">
<mask id="mask19_154_11117" style="mask-type:luminance" maskUnits="userSpaceOnUse" x="-20" y="25" width="55" height="51">
<path d="M-5.29229 25.9307L34.7265 55.1814L20.166 75.1133L-19.8516 45.8625L-5.29229 25.9307Z" fill="white"/>
</mask>
<g mask="url(#mask19_154_11117)">
<mask id="mask20_154_11117" style="mask-type:luminance" maskUnits="userSpaceOnUse" x="-11" y="30" width="36" height="42">
<path fill-rule="evenodd" clip-rule="evenodd" d="M24.3055 69.2876C24.8931 57.2026 19.0458 46.372 11.1437 37.9821C8.95428 39.9504 10.6378 43.8089 13.2057 48.5975L5.66415 45.6426C4.89148 44.0997 4.47571 42.6049 4.48292 41.1665C5.68097 38.6346 6.01984 36.5557 4.42524 35.4934L2.05317 39.3063C2.40405 35.6605 2.57348 32.2514 0.399687 31.9209L-1.07114 36.5557C-1.81497 33.2115 -3.24494 31.1266 -5.65306 30.8442L-4.57397 37.5026C-4.36248 35.1522 -10.4561 32.6095 -10.3311 32.9039C-7.88694 38.6935 -3.00941 49.5024 2.64438 53.7286C12.7599 60.1887 15.71 65.8088 15.7424 71.7859L24.3055 69.2876Z" fill="white"/>
</mask>
<g mask="url(#mask20_154_11117)">
<path fill-rule="evenodd" clip-rule="evenodd" d="M11.3693 46.9163C1.90269 44.6764 -1.31415 43.4279 -8.07227 31.0052C-8.07227 31.0052 -1.19158 27.5492 5.93304 32.1287C6.38847 32.4219 10.8334 47.3429 11.3693 46.9163Z" fill="#665135" fill-opacity="0.2784"/>
</g>
</g>
</g>
<mask id="mask21_154_11117" style="mask-type:luminance" maskUnits="userSpaceOnUse" x="0" y="31" width="4" height="14">
<path d="M0.496094 31.7803H3.87996V44.7005H0.496094V31.7803Z" fill="white"/>
</mask>
<g mask="url(#mask21_154_11117)">
<mask id="mask22_154_11117" style="mask-type:luminance" maskUnits="userSpaceOnUse" x="-20" y="25" width="55" height="51">
<path d="M-5.29229 25.9307L34.7265 55.1814L20.166 75.1133L-19.8516 45.8625L-5.29229 25.9307Z" fill="white"/>
</mask>
<g mask="url(#mask22_154_11117)">
<mask id="mask23_154_11117" style="mask-type:luminance" maskUnits="userSpaceOnUse" x="-11" y="30" width="36" height="42">
<path fill-rule="evenodd" clip-rule="evenodd" d="M24.3055 69.2876C24.8931 57.2026 19.0458 46.372 11.1437 37.9821C8.95428 39.9504 10.6378 43.8089 13.2057 48.5975L5.66415 45.6426C4.89148 44.0997 4.47571 42.6049 4.48292 41.1665C5.68097 38.6346 6.01984 36.5557 4.42524 35.4934L2.05317 39.3063C2.40405 35.6605 2.57348 32.2514 0.399687 31.9209L-1.07114 36.5557C-1.81497 33.2115 -3.24494 31.1266 -5.65306 30.8442L-4.57397 37.5026C-4.36248 35.1522 -10.4561 32.6095 -10.3311 32.9039C-7.88694 38.6935 -3.00941 49.5024 2.64438 53.7286C12.7599 60.1887 15.71 65.8088 15.7424 71.7859L24.3055 69.2876Z" fill="white"/>
</mask>
<g mask="url(#mask23_154_11117)">
<path fill-rule="evenodd" clip-rule="evenodd" d="M3.76264 44.477C3.23391 43.6563 2.88783 42.856 2.64991 42.0809C2.49009 41.5582 2.38434 41.0475 2.31464 40.5488C2.26538 40.1943 2.23533 39.847 2.21731 39.5058C2.19928 39.1477 2.19448 38.7968 2.19568 38.4531C2.19808 38.0902 2.20649 37.7345 2.21971 37.3884C2.26778 36.1724 2.36631 35.0668 2.22692 34.1247C2.08873 33.1826 1.71982 32.4016 0.828194 31.838C0.814975 31.8296 0.799354 31.832 0.789741 31.844C0.781329 31.856 0.784934 31.8728 0.79695 31.8812C1.7775 32.6419 1.96736 33.6417 1.91329 34.8397C1.88325 35.5259 1.77029 36.2745 1.68497 37.0796C1.61888 37.6877 1.56241 38.3269 1.57082 38.9902C1.57923 39.6139 1.64532 40.2592 1.78952 40.9153C1.90488 41.4368 2.07191 41.9644 2.30503 42.4967C2.61145 43.1936 3.03323 43.8918 3.59801 44.596C3.63166 44.6416 3.69415 44.6513 3.73981 44.6188C3.78547 44.5864 3.79508 44.5227 3.76264 44.477Z" fill="#665135" fill-opacity="0.5608"/>
</g>
</g>
</g>
<mask id="mask24_154_11117" style="mask-type:luminance" maskUnits="userSpaceOnUse" x="-6" y="30" width="7" height="13">
<path d="M-5.96484 30.5498H0.495264V42.8548H-5.96484V30.5498Z" fill="white"/>
</mask>
<g mask="url(#mask24_154_11117)">
<mask id="mask25_154_11117" style="mask-type:luminance" maskUnits="userSpaceOnUse" x="-20" y="25" width="55" height="51">
<path d="M-5.29326 25.9307L34.7255 55.1814L20.165 75.1133L-19.8525 45.8625L-5.29326 25.9307Z" fill="white"/>
</mask>
<g mask="url(#mask25_154_11117)">
<mask id="mask26_154_11117" style="mask-type:luminance" maskUnits="userSpaceOnUse" x="-11" y="30" width="36" height="42">
<path fill-rule="evenodd" clip-rule="evenodd" d="M24.3045 69.2876C24.8921 57.2026 19.0448 46.372 11.1427 37.9821C8.95331 39.9504 10.6368 43.8089 13.2048 48.5975L5.66317 45.6426C4.8905 44.0997 4.47473 42.6049 4.48194 41.1665C5.67999 38.6346 6.01886 36.5557 4.42426 35.4934L2.05219 39.3063C2.40307 35.6605 2.57251 32.2514 0.39871 31.9209L-1.07212 36.5557C-1.81594 33.2115 -3.24592 31.1266 -5.65404 30.8442L-4.57495 37.5026C-4.36346 35.1522 -10.4571 32.6095 -10.3321 32.9039C-7.88792 38.6935 -3.01039 49.5024 2.64341 53.7286C12.759 60.1887 15.709 65.8088 15.7415 71.7859L24.3045 69.2876Z" fill="white"/>
</mask>
<g mask="url(#mask26_154_11117)">
<path fill-rule="evenodd" clip-rule="evenodd" d="M0.380414 42.4498C0.327541 41.45 0.243426 40.4419 0.0920168 39.4553C-0.0113256 38.7812 -0.141105 38.119 -0.303328 37.4798C-0.445124 36.9222 -0.610952 36.3827 -0.802016 35.8695C-1.0051 35.3216 -1.23942 34.8061 -1.49177 34.3242C-1.86789 33.6104 -2.28967 32.9772 -2.75711 32.4496C-3.57905 31.5232 -4.53436 30.9223 -5.63268 30.7889C-5.6471 30.7865 -5.66031 30.7962 -5.66272 30.8106C-5.66512 30.825 -5.65551 30.8394 -5.64109 30.8406C-4.76508 31.0329 -4.02005 31.534 -3.37837 32.2598C-2.83282 32.8774 -2.37138 33.6621 -1.97243 34.5573C-1.75853 35.0356 -1.56867 35.5463 -1.38362 36.0786C-1.21058 36.5809 -1.04715 37.1024 -0.89214 37.6396C-0.713093 38.2608 -0.547265 38.8989 -0.395856 39.549C-0.171146 40.5115 0.0295306 41.4909 0.178536 42.4702C0.184545 42.5267 0.233812 42.5676 0.29029 42.5616C0.345566 42.5556 0.385221 42.5063 0.380414 42.4498Z" fill="#665135" fill-opacity="0.5608"/>
</g>
</g>
</g>
</g>
<defs>
<clipPath id="clip0_154_11117">
<rect width="56" height="56" rx="8" fill="white"/>
</clipPath>
</defs>
</svg>
