<svg width="56" height="56" viewBox="0 0 56 56" fill="none" xmlns="http://www.w3.org/2000/svg">
<g clip-path="url(#clip0_154_11085)">
<rect width="56" height="56" rx="8" fill="#FFF9ED"/>
<path d="M35.1865 23.0084C35.0692 22.8997 34.9471 22.7963 34.8185 22.6988C34.6908 22.6014 34.5581 22.51 34.4207 22.4245C34.2832 22.3391 34.1409 22.2604 33.9953 22.1877C33.8489 22.115 33.6993 22.0498 33.5465 21.9906C33.3937 21.9321 33.2384 21.8804 33.0799 21.8354C32.9214 21.7912 32.7613 21.7537 32.5988 21.7237C32.4362 21.6938 32.2729 21.6713 32.1079 21.6563C31.9429 21.6413 31.778 21.6338 31.6122 21.6338C31.4472 21.6338 31.2823 21.6413 31.1173 21.6563C30.9523 21.6713 30.789 21.6938 30.6264 21.7237C30.4639 21.7537 30.3038 21.7912 30.1453 21.8354C29.9868 21.8804 29.8315 21.9321 29.6787 21.9906C29.5258 22.0498 29.3762 22.115 29.2299 22.1877C29.0843 22.2604 28.942 22.3391 28.8045 22.4245C28.667 22.51 28.5344 22.6014 28.4066 22.6988C28.2781 22.7963 28.156 22.8997 28.0387 23.0084L26.6656 24.284L25.2925 23.0084C25.1752 22.8997 25.0531 22.7963 24.9245 22.6988C24.7968 22.6014 24.6642 22.51 24.5267 22.4245C24.3892 22.3391 24.2469 22.2604 24.1013 22.1877C23.955 22.115 23.8054 22.0498 23.6525 21.9906C23.4997 21.9321 23.3444 21.8804 23.1859 21.8354C23.0274 21.7912 22.8665 21.7537 22.7048 21.7237C22.5422 21.6938 22.3789 21.6713 22.2139 21.6563C22.0489 21.6413 21.884 21.6331 21.7182 21.6331C21.5532 21.6331 21.3875 21.6413 21.2233 21.6563C21.0583 21.6713 20.895 21.6938 20.7324 21.7237C20.5699 21.7537 20.4098 21.7912 20.2513 21.8354C20.0928 21.8804 19.9375 21.9321 19.7839 21.9906C19.631 22.0498 19.4823 22.115 19.3359 22.1877C19.1895 22.2604 19.048 22.3391 18.9105 22.4245C18.7731 22.51 18.6404 22.6014 18.5119 22.6988C18.3841 22.7963 18.262 22.8997 18.1447 23.0084C18.0275 23.1171 17.9167 23.231 17.8116 23.3494C17.7064 23.4686 17.6078 23.5922 17.5164 23.7196C17.4242 23.8478 17.3393 23.979 17.2609 24.1146C17.1832 24.2503 17.1121 24.3889 17.049 24.5313C16.9859 24.673 16.9301 24.8176 16.8816 24.9645C16.8339 25.1122 16.7934 25.2606 16.7611 25.412C16.7288 25.5626 16.7045 25.714 16.6883 25.8677C16.6721 26.0206 16.6641 26.1735 16.6641 26.3271C16.6641 26.4815 16.6721 26.6344 16.6883 26.7873C16.7045 26.9402 16.7288 27.0924 16.7611 27.243C16.7934 27.3937 16.8339 27.5428 16.8816 27.6897C16.9301 27.8374 16.9859 27.982 17.049 28.1237C17.1121 28.2661 17.1832 28.4047 17.2609 28.5404C17.3393 28.676 17.4242 28.8072 17.5164 28.9354C17.6078 29.0628 17.7064 29.1864 17.8116 29.3049C17.9167 29.424 18.0275 29.538 18.1447 29.6466L26.6656 37.559L35.1865 29.6459C35.3029 29.5372 35.4145 29.4233 35.5188 29.3041C35.624 29.1857 35.7226 29.062 35.8148 28.9346C35.9062 28.8064 35.9911 28.6745 36.0695 28.5396C36.1472 28.404 36.2183 28.2653 36.2814 28.1229C36.3445 27.9813 36.4003 27.8366 36.4488 27.689C36.4965 27.5421 36.5369 27.3937 36.5693 27.2423C36.6016 27.0916 36.6259 26.9402 36.6421 26.7873C36.6582 26.6337 36.6663 26.4808 36.6663 26.3271C36.6663 26.1735 36.6582 26.0198 36.6421 25.8669C36.6259 25.714 36.6016 25.5619 36.5693 25.4112C36.5369 25.2606 36.4965 25.1115 36.4488 24.9645C36.4003 24.8176 36.3445 24.673 36.2814 24.5313C36.2183 24.3889 36.1472 24.2503 36.0695 24.1146C35.9911 23.979 35.9062 23.8478 35.8148 23.7196C35.7226 23.5922 35.624 23.4686 35.5188 23.3494C35.4145 23.231 35.3029 23.1171 35.1865 23.0084Z" fill="#F68F27"/>
<mask id="mask0_154_11085" style="mask-type:luminance" maskUnits="userSpaceOnUse" x="5" y="34" width="53" height="24">
<path d="M5.55371 34.8032H57.9292V58H5.55371V34.8032Z" fill="white"/>
</mask>
<g mask="url(#mask0_154_11085)">
<path d="M10.453 35.6718C10.453 35.6718 8.2478 34.259 6.84477 35.1412C5.78704 35.8067 5.02367 37.2765 6.80272 39.6958C8.48474 41.9848 14.8554 49.5929 22.7059 53.0585C24.3402 53.7803 27.0751 54.242 29.5318 54.0733L41.2728 52.5511C42.2666 52.4492 44.7387 52.5376 45.4972 53.1417L51.884 57.7181C51.952 57.7668 52.0248 57.8081 52.1024 57.8418C52.1792 57.8763 52.2601 57.9018 52.3434 57.9197C52.4267 57.937 52.5116 57.946 52.5965 57.9467C52.6822 57.9475 52.7671 57.9392 52.8504 57.9227C52.9345 57.907 53.0154 57.8823 53.093 57.8493C53.1714 57.8163 53.2442 57.7766 53.313 57.7286C53.3817 57.6814 53.444 57.6274 53.4998 57.5675C53.5556 57.5075 53.6041 57.4423 53.6453 57.3726L57.8124 50.2315C57.8124 50.2315 44.0238 40.3434 27.2303 44.1441C21.9789 45.332 17.8272 40.9265 17.8272 40.9265L10.453 35.6718Z" fill="#F4E8E0"/>
</g>
<path d="M20.1857 40.6868C20.6709 40.6171 21.2661 40.6868 21.9065 40.788C19.8622 39.385 15.1445 36.1846 13.8878 35.6742C12.2713 35.0177 10.4502 35.672 10.4502 35.672C10.4502 35.672 13.6776 37.9789 17.3998 41.6799C18.0023 41.2325 18.912 40.869 20.1857 40.6868Z" fill="#DCC0A9"/>
<path d="M29.0221 40.8255C29.0221 40.8255 25.5748 42.0883 22.2528 41.7436C20.8846 41.6027 19.4371 41.1792 18.4505 41.3201C13.7602 41.9902 13.6365 45.8905 18.2653 47.1302C21.88 48.0985 25.0548 48.0288 28.0501 47.9396C32.8269 47.7972 35.0135 47.1189 46.241 44.3023C44.6819 42.5935 40.7372 37.1597 29.0221 40.8255Z" fill="#DCC0A9"/>
<mask id="mask1_154_11085" style="mask-type:luminance" maskUnits="userSpaceOnUse" x="16" y="38" width="42" height="13">
<path d="M16.5254 38.8325H58.0001V50.3447H16.5254V38.8325Z" fill="white"/>
</mask>
<g mask="url(#mask1_154_11085)">
<path d="M57.3543 48.7542C54.7634 47.4336 48.2496 43.9657 47.9787 43.6689C46.418 41.9609 42.4749 36.5263 30.7598 40.1921C30.7598 40.1921 27.3125 41.4549 23.9905 41.1109C22.6223 40.9693 21.1748 40.5458 20.1882 40.6867C15.498 41.3568 15.3241 44.3915 19.9529 45.6311C23.5668 46.5995 28.9581 46.9697 32.0092 47.1076C36.9413 47.3302 43.7704 44.0594 57.8137 50.2337C57.8509 50.1708 57.8816 50.1056 57.905 50.0374C57.9285 49.9692 57.9447 49.9002 57.9527 49.829C57.9616 49.7578 57.9624 49.6866 57.956 49.6154C57.9495 49.5442 57.9358 49.4738 57.9147 49.4056C57.8929 49.3366 57.8646 49.2706 57.829 49.2069C57.7942 49.1432 57.7522 49.084 57.7045 49.0278C57.656 48.9724 57.6026 48.9214 57.5436 48.8749C57.4845 48.8292 57.4215 48.7887 57.3543 48.7542Z" fill="#F4E8E0"/>
</g>
<mask id="mask2_154_11085" style="mask-type:luminance" maskUnits="userSpaceOnUse" x="-1" y="-1" width="53" height="24">
<path d="M-0.864258 -1H51.3042V22.3317H-0.864258V-1Z" fill="white"/>
</mask>
<g mask="url(#mask2_154_11085)">
<path d="M46.5494 21.3282C46.5494 21.3282 48.7554 22.741 50.1577 21.8589C51.2154 21.1941 51.9796 19.7236 50.1997 17.302C48.5169 15.0138 42.1479 7.40491 34.2966 3.93926C32.6623 3.2175 29.9274 2.75581 27.4706 2.92445L15.7297 4.44592C14.7358 4.5486 12.2637 4.46091 11.506 3.85607L5.11678 -0.720333C5.04885 -0.76905 4.97688 -0.810272 4.89925 -0.843999C4.82162 -0.877726 4.74156 -0.903958 4.65827 -0.921197C4.57417 -0.939184 4.49007 -0.948178 4.40435 -0.948928C4.31863 -0.949677 4.23453 -0.941433 4.15043 -0.924944C4.06714 -0.908455 3.98627 -0.884471 3.90783 -0.851494C3.8302 -0.818516 3.75661 -0.778793 3.68868 -0.730826C3.61995 -0.683607 3.55768 -0.629644 3.50188 -0.569685C3.44528 -0.509725 3.39676 -0.444519 3.35632 -0.374817L-0.811523 6.76634C-0.811523 6.76634 12.977 16.6551 29.7705 12.8537C35.0219 11.6665 39.1736 16.072 39.1736 16.072L46.5494 21.3282Z" fill="#F4E8E0"/>
</g>
<path d="M36.8173 16.3134C36.3313 16.3831 35.7378 16.3134 35.0957 16.2122C37.1384 17.616 41.8569 20.8156 43.1136 21.326C44.7293 21.9833 46.5504 21.329 46.5504 21.329C46.5504 21.329 43.323 19.0213 39.6008 15.3203C38.9983 15.7678 38.0886 16.132 36.8173 16.3134Z" fill="#DCC0A9"/>
<path d="M27.9812 16.1746C27.9812 16.1746 31.4277 14.9117 34.7497 15.2564C36.1188 15.3974 37.5663 15.8216 38.5529 15.6799C43.2423 15.0099 43.3668 11.1095 38.7372 9.86985C35.1217 8.9015 31.9461 8.97121 28.9516 9.06115C24.1756 9.20355 21.989 9.88184 10.7607 12.6984C12.3207 14.4065 16.2637 19.8411 27.9812 16.1746Z" fill="#DCC0A9"/>
<mask id="mask3_154_11085" style="mask-type:luminance" maskUnits="userSpaceOnUse" x="-1" y="6" width="42" height="13">
<path d="M-1 6.59839H40.5394V18.1106H-1V6.59839Z" fill="white"/>
</mask>
<g mask="url(#mask3_154_11085)">
<path d="M-0.350333 8.24585C2.23981 9.56646 8.7544 13.0351 9.02449 13.3312C10.5852 15.0393 14.5283 20.4738 26.2442 16.8081C26.2442 16.8081 29.6915 15.5452 33.0127 15.8899C34.3817 16.0308 35.8284 16.4543 36.815 16.3134C41.5052 15.6433 41.6799 12.6094 37.0511 11.369C33.4364 10.4006 28.045 10.0304 24.994 9.89249C20.0627 9.66989 13.2336 12.9392 -0.810462 6.76636C-0.847661 6.82931 -0.877581 6.89452 -0.901032 6.96272C-0.924484 7.03093 -0.940657 7.10063 -0.949552 7.17108C-0.958448 7.24228 -0.959256 7.31349 -0.952787 7.38469C-0.946318 7.45589 -0.93257 7.52634 -0.910736 7.59455C-0.889711 7.6635 -0.861408 7.72945 -0.825827 7.79316C-0.790246 7.85687 -0.749004 7.91608 -0.700484 7.97229C-0.652773 8.02775 -0.599401 8.07872 -0.540369 8.12519C-0.481337 8.17091 -0.418261 8.21138 -0.350333 8.24585Z" fill="#F4E8E0"/>
</g>
</g>
<defs>
<clipPath id="clip0_154_11085">
<rect width="56" height="56" rx="8" fill="white"/>
</clipPath>
</defs>
</svg>
