<svg width="32" height="32" viewBox="0 0 32 32" fill="none" xmlns="http://www.w3.org/2000/svg">
<mask id="mask0_604_1848" style="mask-type:luminance" maskUnits="userSpaceOnUse" x="4" y="17" width="24" height="11">
<path d="M4.63889 17.0667H27.5722V27.5722H4.63889V17.0667Z" fill="white"/>
</mask>
<g mask="url(#mask0_604_1848)">
<path d="M22.5222 17.2305H9.68889C9.04167 17.2277 8.50556 17.4777 8.08889 17.9749L5.11667 21.5444C4.8 21.9222 4.63889 22.3583 4.63889 22.8527V27.5722H27.5722V22.8527C27.575 22.3583 27.4139 21.9222 27.0944 21.5444L24.125 17.9749C23.7056 17.4777 23.1722 17.2277 22.5222 17.2305Z" fill="#B3B9C6"/>
</g>
<mask id="mask1_604_1848" style="mask-type:luminance" maskUnits="userSpaceOnUse" x="4" y="17" width="24" height="7">
<path d="M4.63889 17.0667H27.5722V23.4667H4.63889V17.0667Z" fill="white"/>
</mask>
<g mask="url(#mask1_604_1848)">
<path d="M27.0944 21.5528L24.125 17.9833C23.7056 17.4861 23.1722 17.2389 22.5222 17.2389H9.68889C9.04167 17.2389 8.50556 17.4861 8.08889 17.9833L5.11667 21.5444C5.025 21.6667 4.97222 21.8056 4.95833 21.9583C4.94444 22.1139 4.97222 22.2583 5.04167 22.3972C5.11111 22.5333 5.21111 22.6444 5.34444 22.725C5.475 22.8056 5.61944 22.8444 5.77222 22.8444H26.4611C26.7861 22.8361 27.0222 22.6833 27.1667 22.3917C27.3111 22.0972 27.2889 21.8167 27.0944 21.5528Z" fill="#B3B9C6"/>
</g>
<path d="M21.6861 18.9166H10.525C10.3833 18.925 10.2472 18.9611 10.1167 19.0222C9.98889 19.0833 9.875 19.1666 9.77778 19.2694C9.67778 19.375 9.60278 19.4944 9.55 19.6277C9.49722 19.7611 9.47222 19.8972 9.47222 20.0416C9.47222 20.1833 9.49722 20.3222 9.55 20.4555C9.60278 20.5888 9.67778 20.7083 9.77778 20.8111C9.875 20.9166 9.98889 21 10.1167 21.0611C10.2472 21.1222 10.3833 21.1583 10.525 21.1666H21.6861C21.8306 21.1583 21.9667 21.1222 22.0944 21.0611C22.225 21 22.3389 20.9166 22.4361 20.8111C22.5333 20.7083 22.6111 20.5888 22.6611 20.4555C22.7139 20.3222 22.7417 20.1833 22.7417 20.0416C22.7417 19.8972 22.7139 19.7611 22.6611 19.6277C22.6111 19.4944 22.5333 19.375 22.4361 19.2694C22.3389 19.1666 22.225 19.0833 22.0944 19.0222C21.9667 18.9611 21.8306 18.925 21.6861 18.9166Z" fill="white"/>
<mask id="mask2_604_1848" style="mask-type:luminance" maskUnits="userSpaceOnUse" x="6" y="4" width="21" height="18">
<path d="M6.4 4.63892H26.3111V21.3334H6.4V4.63892Z" fill="white"/>
</mask>
<g mask="url(#mask2_604_1848)">
<path d="M25.2556 12.4695L17.8083 5.02225C17.6861 4.90003 17.5444 4.80558 17.3833 4.73892C17.2222 4.67225 17.0556 4.63892 16.8833 4.63892C16.7083 4.63892 16.5417 4.67225 16.3833 4.73892C16.2222 4.80558 16.0806 4.90003 15.9583 5.02225L6.95833 14.0222C6.83333 14.1472 6.73889 14.2889 6.675 14.45C6.60833 14.6084 6.575 14.7778 6.575 14.95C6.575 15.125 6.60833 15.2917 6.675 15.4528C6.73889 15.6111 6.83333 15.7556 6.95833 15.8778L12.2472 21.1667H18.4139L25.2556 14.3195C25.3778 14.1972 25.475 14.0556 25.5417 13.8972C25.6083 13.7361 25.6417 13.5695 25.6417 13.3945C25.6417 13.2222 25.6083 13.0556 25.5417 12.8945C25.475 12.7334 25.3778 12.5945 25.2556 12.4695Z" fill="#B3B9C6"/>
</g>
<mask id="mask3_604_1848" style="mask-type:luminance" maskUnits="userSpaceOnUse" x="6" y="4" width="13" height="13">
<path d="M6.4 4.63892H18.4889V16.3556H6.4V4.63892Z" fill="white"/>
</mask>
<g mask="url(#mask3_604_1848)">
<path d="M15.9583 5.02225L6.95833 14.0222C6.83333 14.1472 6.73889 14.2889 6.675 14.45C6.60833 14.6084 6.575 14.7778 6.575 14.95C6.575 15.125 6.60833 15.2917 6.675 15.4528C6.73889 15.6111 6.83333 15.7556 6.95833 15.8778L7.38611 16.3084L18.2417 5.45836L17.8083 5.02225C17.6861 4.90003 17.5444 4.80558 17.3833 4.73892C17.2222 4.67225 17.0556 4.63892 16.8833 4.63892C16.7083 4.63892 16.5417 4.67225 16.3833 4.73892C16.2222 4.80558 16.0806 4.90003 15.9583 5.02225Z" fill="white"/>
</g>
<path d="M7.625 14.4333L7.90278 14.1555L8.18056 14.4333L7.90278 14.7111L7.625 14.4333Z" fill="#B3B9C6"/>
<path d="M8.19444 13.8666L8.475 13.5861L8.75555 13.8666L8.475 14.1472L8.19444 13.8666Z" fill="#B3B9C6"/>
<path d="M8.76667 13.2917L9.04722 13.0111L9.32778 13.2917L9.04722 13.5722L8.76667 13.2917Z" fill="#B3B9C6"/>
<path d="M17.1528 11.075C16.8972 11.1 16.6556 11.1694 16.4278 11.2833C16.1972 11.4 15.9972 11.5528 15.825 11.7417C15.6556 11.9333 15.525 12.15 15.4361 12.3889C15.3472 12.6306 15.3028 12.8778 15.3083 13.1361V13.3778H15.0639C14.8083 13.3722 14.5611 13.4139 14.3222 13.5028C14.0806 13.5917 13.8667 13.7222 13.675 13.8944C13.4861 14.0639 13.3333 14.2639 13.2167 14.4917C13.1028 14.7222 13.0333 14.9639 13.0111 15.2167C12.9972 15.4861 13.0361 15.7444 13.1278 15.9944C13.2194 16.2472 13.3583 16.4694 13.5417 16.6639C13.725 16.8583 13.9389 17.0083 14.1861 17.1139C14.4306 17.2194 14.6889 17.2722 14.9556 17.2722H18.8111C18.9194 17.275 19.0111 17.2361 19.0889 17.1583C19.1667 17.0833 19.2056 16.9889 19.2083 16.8806V13.025C19.2083 12.7583 19.1528 12.5 19.0472 12.2556C18.9417 12.0083 18.7917 11.7944 18.5972 11.6083C18.4056 11.425 18.1806 11.2861 17.9306 11.1944C17.6806 11.1028 17.4194 11.0611 17.1528 11.075Z" fill="white"/>
</svg>
