<svg xmlns="http://www.w3.org/2000/svg" xmlns:xlink="http://www.w3.org/1999/xlink" width="48" zoomAndPan="magnify" viewBox="0 0 36 36.000001" height="48" preserveAspectRatio="xMidYMid meet" version="1.0"><defs><clipPath id="610b0595f5"><path d="M 6 0 L 29 0 L 29 35.027344 L 6 35.027344 Z M 6 0 " clip-rule="nonzero"/></clipPath><clipPath id="0de4375791"><path d="M 30 4 L 34.785156 4 L 34.785156 15 L 30 15 Z M 30 4 " clip-rule="nonzero"/></clipPath><clipPath id="e43e639e12"><path d="M 1.21875 2 L 6 2 L 6 7 L 1.21875 7 Z M 1.21875 2 " clip-rule="nonzero"/></clipPath><clipPath id="df089c2786"><path d="M 1.21875 19 L 5 19 L 5 24 L 1.21875 24 Z M 1.21875 19 " clip-rule="nonzero"/></clipPath></defs><path fill="#ff9a01" d="M 13.859375 17.929688 L 10.886719 17.929688 C 10.476562 17.929688 10.144531 18.265625 10.144531 18.671875 L 10.144531 21.644531 C 10.144531 22.054688 10.476562 22.386719 10.886719 22.386719 L 13.859375 22.386719 C 14.265625 22.386719 14.601562 22.054688 14.601562 21.644531 L 14.601562 18.671875 C 14.601562 18.265625 14.265625 17.929688 13.859375 17.929688 Z M 13.113281 20.902344 L 11.628906 20.902344 L 11.628906 19.414062 L 13.113281 19.414062 Z M 13.113281 20.902344 " fill-opacity="1" fill-rule="nonzero"/><path fill="#ff9a01" d="M 19.058594 17.929688 L 16.085938 17.929688 C 15.679688 17.929688 15.34375 18.265625 15.34375 18.671875 L 15.34375 21.644531 C 15.34375 22.054688 15.679688 22.386719 16.085938 22.386719 L 19.058594 22.386719 C 19.46875 22.386719 19.800781 22.054688 19.800781 21.644531 L 19.800781 18.671875 C 19.800781 18.265625 19.46875 17.929688 19.058594 17.929688 Z M 18.316406 20.902344 L 16.832031 20.902344 L 16.832031 19.414062 L 18.316406 19.414062 Z M 18.316406 20.902344 " fill-opacity="1" fill-rule="nonzero"/><path fill="#ff9a01" d="M 24.261719 17.929688 L 21.289062 17.929688 C 20.878906 17.929688 20.546875 18.265625 20.546875 18.671875 L 20.546875 21.644531 C 20.546875 22.054688 20.878906 22.386719 21.289062 22.386719 L 24.261719 22.386719 C 24.667969 22.386719 25.003906 22.054688 25.003906 21.644531 L 25.003906 18.671875 C 25.003906 18.265625 24.667969 17.929688 24.261719 17.929688 Z M 23.519531 20.902344 L 22.03125 20.902344 L 22.03125 19.414062 L 23.519531 19.414062 Z M 23.519531 20.902344 " fill-opacity="1" fill-rule="nonzero"/><path fill="#ff9a01" d="M 13.859375 23.132812 L 10.886719 23.132812 C 10.476562 23.132812 10.144531 23.464844 10.144531 23.875 L 10.144531 26.847656 C 10.144531 27.253906 10.476562 27.589844 10.886719 27.589844 L 13.859375 27.589844 C 14.265625 27.589844 14.601562 27.253906 14.601562 26.847656 L 14.601562 23.875 C 14.601562 23.464844 14.265625 23.132812 13.859375 23.132812 Z M 13.113281 26.101562 L 11.628906 26.101562 L 11.628906 24.617188 L 13.113281 24.617188 Z M 13.113281 26.101562 " fill-opacity="1" fill-rule="nonzero"/><path fill="#ff9a01" d="M 19.058594 23.132812 L 16.085938 23.132812 C 15.679688 23.132812 15.34375 23.464844 15.34375 23.875 L 15.34375 26.847656 C 15.34375 27.253906 15.679688 27.589844 16.085938 27.589844 L 19.058594 27.589844 C 19.46875 27.589844 19.800781 27.253906 19.800781 26.847656 L 19.800781 23.875 C 19.800781 23.464844 19.46875 23.132812 19.058594 23.132812 Z M 18.316406 26.101562 L 16.832031 26.101562 L 16.832031 24.617188 L 18.316406 24.617188 Z M 18.316406 26.101562 " fill-opacity="1" fill-rule="nonzero"/><path fill="#ff9a01" d="M 24.261719 23.132812 L 21.289062 23.132812 C 20.878906 23.132812 20.546875 23.464844 20.546875 23.875 L 20.546875 26.847656 C 20.546875 27.253906 20.878906 27.589844 21.289062 27.589844 L 24.261719 27.589844 C 24.667969 27.589844 25.003906 27.253906 25.003906 26.847656 L 25.003906 23.875 C 25.003906 23.464844 24.667969 23.132812 24.261719 23.132812 Z M 23.519531 26.101562 L 22.03125 26.101562 L 22.03125 24.617188 L 23.519531 24.617188 Z M 23.519531 26.101562 " fill-opacity="1" fill-rule="nonzero"/><path fill="#ff9a01" d="M 13.859375 28.332031 L 10.886719 28.332031 C 10.476562 28.332031 10.144531 28.667969 10.144531 29.074219 L 10.144531 32.046875 C 10.144531 32.457031 10.476562 32.789062 10.886719 32.789062 L 13.859375 32.789062 C 14.265625 32.789062 14.601562 32.457031 14.601562 32.046875 L 14.601562 29.074219 C 14.601562 28.667969 14.265625 28.332031 13.859375 28.332031 Z M 13.113281 31.304688 L 11.628906 31.304688 L 11.628906 29.816406 L 13.113281 29.816406 Z M 13.113281 31.304688 " fill-opacity="1" fill-rule="nonzero"/><path fill="#ff9a01" d="M 19.058594 28.332031 L 16.085938 28.332031 C 15.679688 28.332031 15.34375 28.667969 15.34375 29.074219 L 15.34375 32.046875 C 15.34375 32.457031 15.679688 32.789062 16.085938 32.789062 L 19.058594 32.789062 C 19.46875 32.789062 19.800781 32.457031 19.800781 32.046875 L 19.800781 29.074219 C 19.800781 28.667969 19.46875 28.332031 19.058594 28.332031 Z M 18.316406 31.304688 L 16.832031 31.304688 L 16.832031 29.816406 L 18.316406 29.816406 Z M 18.316406 31.304688 " fill-opacity="1" fill-rule="nonzero"/><path fill="#ff9a01" d="M 24.261719 28.332031 L 21.289062 28.332031 C 20.878906 28.332031 20.546875 28.667969 20.546875 29.074219 L 20.546875 32.046875 C 20.546875 32.457031 20.878906 32.789062 21.289062 32.789062 L 24.261719 32.789062 C 24.667969 32.789062 25.003906 32.457031 25.003906 32.046875 L 25.003906 29.074219 C 25.003906 28.667969 24.667969 28.332031 24.261719 28.332031 Z M 23.519531 31.304688 L 22.03125 31.304688 L 22.03125 29.816406 L 23.519531 29.816406 Z M 23.519531 31.304688 " fill-opacity="1" fill-rule="nonzero"/><path fill="#ff9a01" d="M 17.1875 8.820312 C 16.890625 8.722656 16.511719 8.566406 16.25 8.394531 C 16.148438 8.328125 16.078125 8.277344 16.058594 8.246094 L 15.417969 9.519531 C 16.085938 9.964844 16.933594 10.21875 17.714844 10.285156 L 17.714844 11.324219 L 18.332031 11.324219 L 18.332031 10.292969 C 18.613281 10.277344 18.886719 10.230469 19.148438 10.15625 C 19.410156 10.082031 19.632812 9.964844 19.832031 9.816406 C 20.03125 9.667969 20.1875 9.472656 20.308594 9.234375 C 20.425781 9 20.484375 8.707031 20.484375 8.375 C 20.484375 8.085938 20.441406 7.832031 20.34375 7.625 C 20.1875 7.273438 19.898438 6.953125 19.335938 6.730469 C 18.800781 6.515625 18.292969 6.40625 18.234375 6.390625 L 18.234375 5.179688 C 18.398438 5.203125 18.5625 5.246094 18.726562 5.296875 C 18.976562 5.386719 19.273438 5.511719 19.496094 5.648438 C 19.585938 5.699219 19.640625 5.734375 19.652344 5.765625 L 20.292969 4.554688 C 20.039062 4.414062 19.75 4.273438 19.410156 4.140625 C 19.074219 4.003906 18.710938 3.914062 18.324219 3.878906 L 18.324219 2.988281 L 17.707031 2.988281 L 17.707031 3.886719 C 16.875 3.976562 16.175781 4.339844 15.84375 5.097656 C 15.738281 5.335938 15.679688 5.609375 15.679688 5.921875 C 15.679688 6.574219 15.929688 7.042969 16.621094 7.378906 C 17.105469 7.617188 17.632812 7.734375 17.804688 7.792969 L 17.804688 8.976562 C 17.597656 8.9375 17.386719 8.886719 17.1875 8.820312 Z M 18.226562 7.921875 C 18.433594 7.996094 18.597656 8.070312 18.726562 8.160156 C 18.851562 8.246094 18.910156 8.367188 18.910156 8.515625 C 18.910156 8.8125 18.679688 8.96875 18.226562 8.984375 Z M 17.34375 6.039062 C 17.238281 5.953125 17.1875 5.839844 17.1875 5.691406 C 17.1875 5.378906 17.394531 5.207031 17.8125 5.179688 L 17.8125 6.265625 C 17.601562 6.203125 17.445312 6.121094 17.34375 6.039062 Z M 17.34375 6.039062 " fill-opacity="1" fill-rule="nonzero"/><g clip-path="url(#610b0595f5)"><path fill="#ff9a01" d="M 25.546875 7.527344 L 24.246094 7.527344 C 24.460938 3.878906 21.546875 0.839844 17.945312 0.839844 C 14.332031 0.839844 11.429688 3.878906 11.644531 7.527344 L 9.601562 7.527344 C 7.855469 7.527344 6.429688 8.945312 6.429688 10.699219 L 6.429688 31.855469 C 6.429688 33.601562 7.847656 35.027344 9.601562 35.027344 L 25.554688 35.027344 C 27.300781 35.027344 28.726562 33.609375 28.726562 31.855469 L 28.726562 10.699219 C 28.71875 8.945312 27.300781 7.527344 25.546875 7.527344 Z M 13.878906 11.984375 C 16.226562 13.96875 19.652344 13.96875 22.007812 11.984375 L 24.261719 11.984375 L 24.261719 15.699219 L 10.886719 15.699219 L 10.886719 11.984375 Z M 17.945312 2.324219 C 20.605469 2.324219 22.773438 4.496094 22.773438 7.15625 C 22.773438 9.816406 20.605469 11.984375 17.945312 11.984375 C 15.285156 11.984375 13.113281 9.816406 13.113281 7.15625 C 13.113281 4.496094 15.285156 2.324219 17.945312 2.324219 Z M 27.234375 31.847656 C 27.234375 32.777344 26.476562 33.535156 25.546875 33.535156 L 9.601562 33.535156 C 8.671875 33.535156 7.914062 32.777344 7.914062 31.847656 L 7.914062 10.699219 C 7.914062 9.769531 8.671875 9.011719 9.601562 9.011719 L 11.910156 9.011719 C 12.074219 9.539062 12.304688 10.039062 12.59375 10.5 L 10.144531 10.5 C 9.734375 10.5 9.398438 10.832031 9.398438 11.242188 L 9.398438 16.445312 C 9.398438 16.851562 9.734375 17.1875 10.144531 17.1875 L 25.003906 17.1875 C 25.414062 17.1875 25.746094 16.851562 25.746094 16.445312 L 25.746094 11.242188 C 25.746094 10.832031 25.414062 10.5 25.003906 10.5 L 23.300781 10.5 C 23.59375 10.039062 23.824219 9.539062 23.984375 9.011719 L 25.554688 9.011719 C 26.484375 9.011719 27.242188 9.769531 27.242188 10.699219 Z M 27.234375 31.847656 " fill-opacity="1" fill-rule="nonzero"/></g><g clip-path="url(#0de4375791)"><path fill="#ff9a01" d="M 34.328125 10.625 C 33.988281 10.394531 33.527344 10.492188 33.296875 10.832031 L 33.175781 11.019531 L 33.175781 5.296875 C 33.175781 4.890625 32.84375 4.554688 32.433594 4.554688 C 32.027344 4.554688 31.691406 4.890625 31.691406 5.296875 L 31.691406 11.019531 L 31.566406 10.832031 C 31.335938 10.492188 30.875 10.402344 30.53125 10.625 C 30.191406 10.855469 30.101562 11.316406 30.324219 11.660156 C 31.957031 14.109375 31.816406 13.910156 31.878906 13.976562 C 32.203125 14.332031 32.777344 14.289062 33.042969 13.894531 C 33.050781 13.886719 34.515625 11.695312 34.53125 11.664062 C 34.765625 11.308594 34.671875 10.847656 34.328125 10.625 Z M 34.328125 10.625 " fill-opacity="1" fill-rule="nonzero"/></g><path fill="#ff9a01" d="M 30.949219 9.011719 L 30.949219 3.292969 L 31.074219 3.476562 C 31.304688 3.820312 31.765625 3.910156 32.105469 3.683594 C 32.449219 3.457031 32.539062 2.996094 32.316406 2.652344 C 30.679688 0.207031 30.820312 0.402344 30.777344 0.355469 C 30.480469 0.0078125 29.945312 0 29.640625 0.355469 C 29.597656 0.410156 29.722656 0.222656 28.101562 2.652344 C 27.871094 2.996094 27.96875 3.457031 28.308594 3.683594 C 28.652344 3.914062 29.113281 3.820312 29.34375 3.476562 L 29.460938 3.292969 L 29.460938 9.011719 C 29.460938 9.421875 29.796875 9.757812 30.207031 9.757812 C 30.613281 9.757812 30.949219 9.421875 30.949219 9.011719 Z M 30.949219 9.011719 " fill-opacity="1" fill-rule="nonzero"/><g clip-path="url(#e43e639e12)"><path fill="#ff9a01" d="M 3.457031 2.324219 C 2.230469 2.324219 1.226562 3.328125 1.226562 4.554688 C 1.226562 5.78125 2.230469 6.785156 3.457031 6.785156 C 4.679688 6.785156 5.683594 5.78125 5.683594 4.554688 C 5.683594 3.328125 4.679688 2.324219 3.457031 2.324219 Z M 3.457031 5.296875 C 3.046875 5.296875 2.710938 4.964844 2.710938 4.554688 C 2.710938 4.144531 3.046875 3.8125 3.457031 3.8125 C 3.863281 3.8125 4.199219 4.144531 4.199219 4.554688 C 4.199219 4.964844 3.863281 5.296875 3.457031 5.296875 Z M 3.457031 5.296875 " fill-opacity="1" fill-rule="nonzero"/></g><path fill="#ff9a01" d="M 32.0625 23.875 C 31.039062 23.875 30.207031 24.707031 30.207031 25.730469 C 30.207031 26.757812 31.039062 27.589844 32.0625 27.589844 C 33.089844 27.589844 33.921875 26.757812 33.921875 25.730469 C 33.921875 24.707031 33.089844 23.875 32.0625 23.875 Z M 32.0625 26.101562 C 31.855469 26.101562 31.691406 25.941406 31.691406 25.730469 C 31.691406 25.523438 31.855469 25.359375 32.0625 25.359375 C 32.269531 25.359375 32.433594 25.523438 32.433594 25.730469 C 32.433594 25.941406 32.269531 26.101562 32.0625 26.101562 Z M 32.0625 26.101562 " fill-opacity="1" fill-rule="nonzero"/><g clip-path="url(#df089c2786)"><path fill="#ff9a01" d="M 3.085938 19.414062 C 2.058594 19.414062 1.226562 20.246094 1.226562 21.273438 C 1.226562 22.296875 2.058594 23.132812 3.085938 23.132812 C 4.109375 23.132812 4.941406 22.296875 4.941406 21.273438 C 4.941406 20.246094 4.109375 19.414062 3.085938 19.414062 Z M 3.085938 21.644531 C 2.875 21.644531 2.710938 21.480469 2.710938 21.273438 C 2.710938 21.066406 2.875 20.902344 3.085938 20.902344 C 3.292969 20.902344 3.457031 21.066406 3.457031 21.273438 C 3.457031 21.480469 3.292969 21.644531 3.085938 21.644531 Z M 3.085938 21.644531 " fill-opacity="1" fill-rule="nonzero"/></g><path fill="#ff9a01" d="M 31.691406 20.902344 C 31.691406 20.492188 31.355469 20.160156 30.949219 20.160156 C 30.539062 20.160156 30.207031 20.492188 30.207031 20.902344 C 30.207031 21.308594 30.539062 21.644531 30.949219 21.644531 C 31.355469 21.644531 31.691406 21.308594 31.691406 20.902344 Z M 31.691406 20.902344 " fill-opacity="1" fill-rule="nonzero"/><path fill="#ff9a01" d="M 31.691406 29.816406 C 31.28125 29.816406 30.949219 30.152344 30.949219 30.5625 C 30.949219 30.96875 31.28125 31.304688 31.691406 31.304688 C 32.101562 31.304688 32.433594 30.96875 32.433594 30.5625 C 32.433594 30.152344 32.101562 29.816406 31.691406 29.816406 Z M 31.691406 29.816406 " fill-opacity="1" fill-rule="nonzero"/><path fill="#ff9a01" d="M 4.199219 26.101562 C 3.789062 26.101562 3.457031 26.4375 3.457031 26.847656 C 3.457031 27.253906 3.789062 27.589844 4.199219 27.589844 C 4.605469 27.589844 4.941406 27.253906 4.941406 26.847656 C 4.941406 26.4375 4.605469 26.101562 4.199219 26.101562 Z M 4.199219 26.101562 " fill-opacity="1" fill-rule="nonzero"/><path fill="#ff9a01" d="M 4.199219 12.726562 C 3.789062 12.726562 3.457031 13.0625 3.457031 13.472656 C 3.457031 13.878906 3.789062 14.214844 4.199219 14.214844 C 4.605469 14.214844 4.941406 13.878906 4.941406 13.472656 C 4.941406 13.0625 4.605469 12.726562 4.199219 12.726562 Z M 4.199219 12.726562 " fill-opacity="1" fill-rule="nonzero"/><path fill="#ff9a01" d="M 10.144531 3.8125 C 10.550781 3.8125 10.886719 3.476562 10.886719 3.070312 C 10.886719 2.660156 10.550781 2.324219 10.144531 2.324219 C 9.734375 2.324219 9.398438 2.660156 9.398438 3.070312 C 9.398438 3.476562 9.734375 3.8125 10.144531 3.8125 Z M 10.144531 3.8125 " fill-opacity="1" fill-rule="nonzero"/><path fill="#ff9a01" d="M 26.488281 4.554688 C 26.898438 4.554688 27.234375 4.21875 27.234375 3.8125 C 27.234375 3.402344 26.898438 3.070312 26.488281 3.070312 C 26.082031 3.070312 25.746094 3.402344 25.746094 3.8125 C 25.746094 4.21875 26.082031 4.554688 26.488281 4.554688 Z M 26.488281 4.554688 " fill-opacity="1" fill-rule="nonzero"/></svg>