<svg width="32" height="32" viewBox="0 0 32 32" fill="none" xmlns="http://www.w3.org/2000/svg">
<mask id="mask0_604_1886" style="mask-type:luminance" maskUnits="userSpaceOnUse" x="4" y="4" width="24" height="24">
<path d="M4 4H28V28H4V4Z" fill="white"/>
</mask>
<g mask="url(#mask0_604_1886)">
<path d="M27.7865 19.0573L24.8594 16.401C24.8073 16.3437 24.7552 16.3177 24.7031 16.2916L19.8073 14.4583L21.1354 13.3906C24.224 10.8645 23.7969 8.20308 23.4479 7.16663C22.8906 5.41142 21.3229 4.13538 19.6979 4.026C19.6198 4.026 19.5104 4.026 19.4323 4.026C18.1302 4.026 16.8802 4.55725 16 5.51558C15.1198 4.55725 13.8698 4.026 12.5677 4.026C12.4635 4.026 12.3802 4.026 12.3021 4.026C10.651 4.13538 9.10938 5.41142 8.55208 7.16663C8.22917 8.20308 7.77604 10.8645 10.8906 13.4166L12.224 14.4843L7.32813 16.3177C7.27083 16.3437 7.19271 16.375 7.16667 16.427L4.23959 19.0885C4.05208 19.1927 4 19.3802 4.02604 19.5677C4.05208 19.75 4.1875 19.8854 4.375 19.9635L6.95313 20.9218V24.25C6.95313 24.4635 7.08854 24.6718 7.29688 24.7552L15.8125 27.9479C15.8646 27.9739 15.9479 27.9739 16 27.9739C16.0521 27.9739 16.1354 27.9739 16.1875 27.9479L24.7031 24.7552C24.9115 24.6718 25.0469 24.4895 25.0469 24.25V20.9218L27.625 19.9635C27.7865 19.9114 27.9219 19.75 27.974 19.5677C28 19.3802 27.9479 19.1927 27.7865 19.0573ZM11.5313 12.5937C9.71875 11.1041 8.97396 9.27079 9.5625 7.51038C9.98438 6.15621 11.1563 5.17183 12.3802 5.0885C12.4635 5.0885 12.5156 5.0885 12.5938 5.0885C13.7656 5.0885 14.9115 5.67704 15.599 6.66142C15.7083 6.79163 15.8646 6.87496 16.026 6.87496C16.1875 6.87496 16.3437 6.79163 16.4531 6.66142C17.1198 5.67704 18.2604 5.0885 19.4323 5.0885C19.5104 5.0885 19.5677 5.0885 19.6458 5.0885C20.8698 5.17183 22.0156 6.15621 22.4635 7.51038C23.026 9.23954 22.3073 11.1041 20.4948 12.5937L16 16.1354L11.5313 12.5937ZM5.56771 19.2708L7.61979 17.4114L15.0156 20.177L12.9688 22.0416L5.56771 19.2708ZM15.4688 26.6718L8.01563 23.875V21.3229L12.8854 23.1562C13.0729 23.2395 13.2865 23.1823 13.4167 23.052L15.4688 21.1875V26.6718ZM16 19.4323L9 16.7968L13.151 15.2291L15.6562 17.1979C15.7604 17.276 15.8646 17.302 15.974 17.302C16.0781 17.302 16.2135 17.276 16.2917 17.1979L18.7917 15.2291L23 16.7968L16 19.4323ZM23.9844 23.875L16.5312 26.6718V21.1875L18.5833 23.052C18.6615 23.1302 18.7917 23.1823 18.9271 23.1823C18.9792 23.1823 19.0573 23.1823 19.1146 23.1562L23.9844 21.3229V23.875ZM19.0312 22.0416L16.9844 20.177L24.3802 17.4114L26.4323 19.2708L19.0312 22.0416Z" fill="white"/>
</g>
</svg>
