<svg width="33" height="32" viewBox="0 0 33 32" fill="none" xmlns="http://www.w3.org/2000/svg">
<path d="M16.5 10C15.7044 10 14.9413 10.3161 14.3787 10.8787C13.8161 11.4413 13.5 12.2044 13.5 13C13.5 13.7956 13.8161 14.5587 14.3787 15.1213C14.9413 15.6839 15.7044 16 16.5 16C17.2956 16 18.0587 15.6839 18.6213 15.1213C19.1839 14.5587 19.5 13.7956 19.5 13C19.5 12.2044 19.1839 11.4413 18.6213 10.8787C18.0587 10.3161 17.2956 10 16.5 10Z" fill="#B3B9C6"/>
<path fill-rule="evenodd" clip-rule="evenodd" d="M2.5 6.5C2.5 5.11867 3.62 4 5 4H28C29.38 4 30.5 5.12 30.5 6.5V19.5C30.5 20.8813 29.38 22 28 22H5C4.6717 22 4.34661 21.9353 4.04329 21.8097C3.73998 21.6841 3.46438 21.4999 3.23223 21.2678C3.00009 21.0356 2.81594 20.76 2.6903 20.4567C2.56466 20.1534 2.5 19.8283 2.5 19.5V6.5ZM11.5 13C11.5 11.6739 12.0268 10.4021 12.9645 9.46447C13.9021 8.52678 15.1739 8 16.5 8C17.8261 8 19.0979 8.52678 20.0355 9.46447C20.9732 10.4021 21.5 11.6739 21.5 13C21.5 14.3261 20.9732 15.5979 20.0355 16.5355C19.0979 17.4732 17.8261 18 16.5 18C15.1739 18 13.9021 17.4732 12.9645 16.5355C12.0268 15.5979 11.5 14.3261 11.5 13ZM25.5 12C25.2348 12 24.9804 12.1054 24.7929 12.2929C24.6054 12.4804 24.5 12.7348 24.5 13V13.0107C24.5 13.5627 24.948 14.0107 25.5 14.0107H25.5107C25.7759 14.0107 26.0302 13.9053 26.2178 13.7178C26.4053 13.5302 26.5107 13.2759 26.5107 13.0107V13C26.5107 12.7348 26.4053 12.4804 26.2178 12.2929C26.0302 12.1054 25.7759 12 25.5107 12H25.5ZM6.5 13C6.5 12.7348 6.60536 12.4804 6.79289 12.2929C6.98043 12.1054 7.23478 12 7.5 12H7.51067C7.77588 12 8.03024 12.1054 8.21777 12.2929C8.40531 12.4804 8.51067 12.7348 8.51067 13V13.0107C8.51067 13.2759 8.40531 13.5302 8.21777 13.7178C8.03024 13.9053 7.77588 14.0107 7.51067 14.0107H7.5C7.23478 14.0107 6.98043 13.9053 6.79289 13.7178C6.60536 13.5302 6.5 13.2759 6.5 13.0107V13Z" fill="#B3B9C6"/>
<path d="M3.5 24C3.23478 24 2.98043 24.1054 2.79289 24.2929C2.60536 24.4804 2.5 24.7348 2.5 25C2.5 25.2652 2.60536 25.5196 2.79289 25.7071C2.98043 25.8946 3.23478 26 3.5 26C10.7 26 17.6733 26.9627 24.3 28.7667C25.8867 29.1987 27.5 28.0227 27.5 26.34V25C27.5 24.7348 27.3946 24.4804 27.2071 24.2929C27.0196 24.1054 26.7652 24 26.5 24H3.5Z" fill="#B3B9C6"/>
</svg>
