<svg width="200" height="24" viewBox="0 0 200 24" fill="none" xmlns="http://www.w3.org/2000/svg">
<path d="M107.765 15.3785C106.633 14.5984 105.167 14.1127 103.371 13.9216L101.353 13.7305C100.253 13.624 99.4438 13.3451 98.9275 12.8908C98.4112 12.4365 98.1513 11.8631 98.1513 11.1645C98.1513 10.3404 98.4945 9.64489 99.1774 9.07466C99.8636 8.50443 100.9 8.21932 102.292 8.21932C103.638 8.21932 104.661 8.49504 105.357 9.04333C106.053 9.59163 106.413 10.2684 106.436 11.0705H108.791C108.768 9.50703 108.158 8.30391 106.956 7.4611C105.753 6.61829 104.201 6.19531 102.292 6.19531C100.966 6.19531 99.8169 6.4021 98.8409 6.81254C97.8649 7.22298 97.1053 7.79948 96.569 8.5389C96.0294 9.27832 95.7595 10.1431 95.7595 11.1363C95.7595 12.4866 96.2592 13.5488 97.2586 14.3195C98.2579 15.0903 99.5638 15.5602 101.179 15.7294L103.198 15.9206C104.454 16.0459 105.413 16.3373 106.076 16.7916C106.739 17.2459 107.069 17.885 107.069 18.7059C107.069 19.5926 106.669 20.3477 105.873 20.9712C105.077 21.5947 103.881 21.9048 102.289 21.9048C100.583 21.9048 99.3639 21.579 98.6344 20.9242C97.9048 20.2693 97.5184 19.5425 97.4718 18.7404H95.1133C95.1366 20.3226 95.7629 21.5853 96.9987 22.5252C98.2313 23.4651 99.9935 23.9351 102.285 23.9351C103.721 23.9351 104.98 23.7127 106.056 23.2709C107.132 22.8291 107.968 22.2088 108.565 21.4192C109.161 20.6265 109.457 19.7367 109.457 18.7435C109.467 17.2803 108.901 16.1618 107.765 15.3785Z" fill="#282560"/>
<path d="M117.342 1.41797H114.917V6.7067H111.719V8.51138H114.917V18.1395C114.917 19.5118 115.163 20.6053 115.656 21.4168C116.149 22.2282 116.845 22.8047 117.745 23.1431C118.641 23.4815 119.71 23.6507 120.943 23.6507H123.771V21.4982H120.573C119.54 21.4982 118.744 21.2413 118.181 20.7212C117.618 20.2042 117.338 19.4586 117.338 18.4904V8.51138H123.768V6.7067H117.338V1.41797H117.342Z" fill="#282560"/>
<path d="M140.409 16.7762C140.409 18.2958 139.953 19.5115 139.047 20.4169C138.138 21.3255 136.918 21.7798 135.393 21.7798C133.934 21.7798 132.794 21.3506 131.975 20.4984C131.155 19.643 130.746 18.4869 130.746 17.03V6.67501H128.254V16.5538C128.254 18.8754 128.814 20.6864 129.936 21.9866C131.059 23.2837 132.684 23.9323 134.82 23.9323H134.92C136.355 23.9323 137.545 23.6315 138.487 23.03C139.43 22.4284 140.136 21.5731 140.609 20.4639C140.726 20.1913 140.826 19.9062 140.912 19.6086V23.4561H142.931V6.67188H140.406V16.7762H140.409Z" fill="#282560"/>
<path d="M163.511 9.69697C162.815 8.5471 161.896 7.6667 160.75 7.0526C159.604 6.44164 158.281 6.13459 156.776 6.13459C155.45 6.13459 154.257 6.37271 153.191 6.84582C152.125 7.32205 151.216 7.96434 150.463 8.77896C149.71 9.59044 149.134 10.521 148.727 11.5643C148.324 12.6076 148.121 13.7011 148.121 14.8416V15.2833C148.121 16.4677 148.328 17.5799 148.744 18.6233C149.16 19.6697 149.753 20.5971 150.53 21.4086C151.306 22.2201 152.225 22.8561 153.291 23.3073C154.357 23.7616 155.54 23.9872 156.842 23.9872C158.301 23.9872 159.62 23.6927 160.8 23.1005C161.979 22.5083 162.932 21.6185 163.661 20.4248C163.791 20.2118 163.908 19.9862 164.014 19.7575V23.4483H166.033V0.332031H163.508V9.69697H163.511ZM163.611 15.7282C163.611 16.9533 163.331 18.0342 162.768 18.9742C162.209 19.9141 161.439 20.6379 160.463 21.1423C159.487 21.6499 158.391 21.9037 157.179 21.9037C155.876 21.9037 154.734 21.6123 153.744 21.0326C152.755 20.453 151.992 19.6447 151.456 18.6107C150.916 17.5768 150.646 16.3925 150.646 15.064C150.646 13.7763 150.909 12.617 151.439 11.58C151.965 10.546 152.718 9.7283 153.694 9.12674C154.67 8.52518 155.819 8.22439 157.145 8.22439C158.378 8.22439 159.484 8.47818 160.463 8.98575C161.439 9.49331 162.209 10.1951 162.768 11.0912C163.328 11.9873 163.611 13.0275 163.611 14.2118V15.7282Z" fill="#282560"/>
<path d="M174.045 3.60058C174.652 3.60058 175.101 3.44706 175.391 3.14001C175.681 2.83297 175.828 2.44759 175.828 1.98389C175.828 1.52018 175.681 1.13481 175.391 0.827758C175.098 0.520711 174.652 0.367188 174.045 0.367188C173.439 0.367188 172.986 0.520711 172.683 0.827758C172.38 1.13481 172.227 1.52018 172.227 1.98389C172.227 2.44759 172.38 2.83297 172.683 3.14001C172.983 3.45019 173.439 3.60058 174.045 3.60058Z" fill="#282560"/>
<path d="M170.648 6.70703V8.60571H173.51V23.4599H176.002V8.60571V6.70703H173.51H170.648Z" fill="#282560"/>
<path d="M199.379 11.6636C198.963 10.6171 198.353 9.68343 197.544 8.85941C196.734 8.0354 195.752 7.37744 194.596 6.87927C193.44 6.38423 192.111 6.13672 190.605 6.13672C189.123 6.13672 187.803 6.38423 186.647 6.87927C185.492 7.3743 184.509 8.0354 183.703 8.85941C182.893 9.68343 182.277 10.6171 181.851 11.6636C181.424 12.71 181.211 13.769 181.211 14.8468V15.2886C181.211 16.3664 181.417 17.4223 181.834 18.4562C182.25 19.4901 182.857 20.4238 183.653 21.2604C184.449 22.0938 185.425 22.758 186.581 23.2562C187.737 23.7512 189.079 23.9987 190.605 23.9987C192.131 23.9987 193.476 23.7512 194.646 23.2562C195.812 22.7611 196.794 22.0969 197.59 21.2604C198.387 20.4269 198.986 19.4933 199.393 18.4562C199.796 17.4223 199.999 16.3664 199.999 15.2886V14.8468C200.002 13.769 199.796 12.7069 199.379 11.6636ZM196.704 18.4719C196.165 19.4964 195.385 20.3204 194.366 20.9408C193.343 21.5643 192.094 21.8744 190.612 21.8744C189.153 21.8744 187.913 21.5643 186.891 20.9408C185.868 20.3173 185.088 19.4964 184.552 18.4719C184.012 17.4473 183.743 16.3131 183.743 15.0661C183.743 13.8004 184.019 12.6536 184.569 11.6291C185.118 10.6046 185.911 9.79309 186.944 9.19152C187.977 8.58996 189.199 8.28918 190.615 8.28918C192.051 8.28918 193.287 8.58996 194.319 9.19152C195.352 9.79309 196.141 10.6077 196.691 11.6291C197.241 12.6536 197.517 13.7972 197.517 15.0661C197.511 16.3131 197.241 17.4473 196.704 18.4719Z" fill="#282560"/>
<path d="M57.4363 0.356285H50.684L43.5419 9.87788C42.9556 10.5264 42.1028 10.8961 41.1967 10.8961H39.1147V0.34375H33.6049H33.6016V5.63875L33.6049 12.3718V23.6543H33.6082H39.1147V15.1447H41.5731C42.4692 15.1447 43.3187 15.5112 43.9016 16.1441L50.5007 23.6511H57.5696L47.5693 12.7447L57.4363 0.356285Z" fill="#282560"/>
<path d="M19.8555 3.46435H21.2479C21.7509 3.46435 22.1607 3.84973 22.1607 4.32283L22.1673 23.6543H27.6738V0.34375H20.2152L19.8555 3.46435Z" fill="#282560"/>
<path d="M79.4844 3.46045H80.8768C81.3798 3.46045 81.7896 3.84582 81.7896 4.31892L81.7962 23.6504H87.3027V0.339844H79.8442L79.4844 3.46045Z" fill="#282560"/>
<path d="M60.2578 9.65945V23.652H65.7743V9.54666C65.7743 6.08141 67.5798 4.66837 72.0036 4.66837C73.0729 4.66837 74.3588 4.84382 75.568 5.14774L76.3508 0.626629C74.6753 0.231854 72.7931 2.14213e-06 71.0875 2.14213e-06C64.102 -0.00313099 60.2578 3.43078 60.2578 9.65945Z" fill="#282560"/>
<path d="M0 9.65945V23.652H5.51647V14.121H14.4741V9.87564H5.51314V9.54666C5.51314 6.08141 7.31865 4.66837 11.7425 4.66837C12.8151 4.66837 14.0976 4.84382 15.3069 5.14774L16.0897 0.626629C14.4141 0.231854 12.532 2.14213e-06 10.8264 2.14213e-06C3.84421 -0.00313099 0 3.43078 0 9.65945Z" fill="#282560"/>
</svg>
